<svg id="Layer_1" data-name="Layer 1" xmlns="http://www.w3.org/2000/svg" viewBox="0 0 250 289.97"><defs><style>.cls-1{fill:#0ac500;}.cls-2{fill:#006eff;}</style></defs><path class="cls-1" d="M167.74,89.88a18.33,18.33,0,1,0,18.34,18.33A18.35,18.35,0,0,0,167.74,89.88Z"/><path class="cls-1" d="M122.66,63A14.93,14.93,0,1,0,137.58,78,14.94,14.94,0,0,0,122.66,63Z"/><path class="cls-1" d="M122.66,123.53a14.92,14.92,0,1,0,14.92,14.92A14.93,14.93,0,0,0,122.66,123.53Z"/><circle class="cls-1" cx="84.15" cy="53.44" r="12.19"/><path class="cls-1" d="M50.86,24.55a10,10,0,1,0,10,10A10,10,0,0,0,50.86,24.55Z"/><circle class="cls-1" cx="84.15" cy="162.98" r="12.19"/><path class="cls-1" d="M50.86,171.85a10,10,0,1,0,10,10A10,10,0,0,0,50.86,171.85Z"/><path class="cls-2" d="M79.63,89.88A18.33,18.33,0,1,0,98,108.21,18.36,18.36,0,0,0,79.63,89.88Z"/><circle class="cls-2" cx="163.22" cy="53.44" r="12.19"/><path class="cls-2" d="M196.51,44.57a10,10,0,1,0-10-10A10,10,0,0,0,196.51,44.57Z"/><circle class="cls-2" cx="163.22" cy="162.98" r="12.19"/><path class="cls-2" d="M196.51,171.85a10,10,0,1,0,10,10A10,10,0,0,0,196.51,171.85Z"/><path d="M35,252.71H29.84l-2.2-5H16l-2.16,5H8.65l13.08-28.35h.15Zm-17.4-9h8.45l-4.24-9.66Z"/><path d="M59.14,228.49l-3,3.41a9.35,9.35,0,0,0-7.09-3.19c-5.5,0-9.25,4.21-9.25,10.09s3.75,10,9.25,10a9.16,9.16,0,0,0,7.2-3.33l3,3.48a12.92,12.92,0,0,1-10.16,4.21c-8.15,0-14-6.18-14-14.4s5.88-14.44,14-14.44A13.13,13.13,0,0,1,59.14,228.49Z"/><path d="M84,252.71H79.27V240.62H66.57v12.09H61.83V224.85h4.74V236.3h12.7V224.85H84Z"/><path d="M114.33,242.1V224.85h4.73V253.2h-.15l-17-17.78v17.29H97.19V224.36h.16Z"/><path d="M140.63,243v1.59H127.14c.19,3,2,4.66,5.23,4.66a5.92,5.92,0,0,0,4.85-2.16l3,2.39a9.63,9.63,0,0,1-8,3.64c-5.91,0-9.78-4.17-9.78-9.9s3.83-10,9.37-10C137.71,233.23,140.63,237.62,140.63,243Zm-13.49-1.67h9c-.11-2.62-1.63-4.44-4.32-4.44A4.45,4.45,0,0,0,127.14,241.3Z"/><path d="M149.69,233.6h5.76v3.87h-5.76V246a2.74,2.74,0,0,0,2.88,3,5.7,5.7,0,0,0,2.69-.65l1.22,3.68a7.87,7.87,0,0,1-4.25,1.1c-4.36,0-7.13-2.5-7.13-7.13v-8.49h-3.6V233.6h3.6v-6.4h4.59Z"/><path d="M175.73,253.09h-.15l-5.27-10.46L165,253.09h-.15l-8.79-19.49H161l4.32,10.54,5-10.54h.16l4.92,10.54,4.36-10.54h4.85Z"/><path d="M204.38,243.19a9.93,9.93,0,1,1-10-10A9.61,9.61,0,0,1,204.38,243.19Zm-15.23,0c0,3.42,2.2,5.88,5.27,5.88s5.34-2.46,5.34-5.88-2.24-5.95-5.34-5.95S189.15,239.74,189.15,243.19Z"/><path d="M217.35,237.77h-.42a5.84,5.84,0,0,0-5,2.88v12.06h-4.59V233.6h4.09l.27,2.54a6.46,6.46,0,0,1,5.61-2.91Z"/><path d="M224.25,242.32,232,233.6h5.19L230.8,241l7,11.75h-5.19l-5-8.3-3.41,3.6v4.7H219.7V223.9h4.55Z"/></svg>