<svg width="52" height="20" viewBox="0 0 52 20" fill="none" xmlns="http://www.w3.org/2000/svg">
<path d="M9.50615 2.57827C8.89678 3.25382 7.92178 3.78664 6.94678 3.71052C6.8249 2.79711 7.30225 1.8266 7.86084 1.22717C8.47021 0.532597 9.53662 0.0378301 10.3999 -0.000228882C10.5015 0.951246 10.1054 1.88369 9.50615 2.57827ZM10.3897 3.8913C8.97803 3.81519 7.76943 4.64297 7.09912 4.64297C6.41865 4.64297 5.39287 3.92936 4.27568 3.94839C2.82334 3.96742 1.47256 4.73812 0.731152 5.96552C-0.792285 8.42032 0.335059 12.055 1.80771 14.0531C2.52881 15.0426 3.39209 16.1273 4.52959 16.0892C5.60615 16.0512 6.03271 15.4327 7.33271 15.4327C8.64287 15.4327 9.01865 16.0892 10.1562 16.0702C11.3343 16.0512 12.0757 15.0806 12.7968 14.0911C13.6194 12.9684 13.9546 11.8742 13.9749 11.8171C13.9546 11.7981 11.6999 10.9893 11.6796 8.55353C11.6593 6.51737 13.4569 5.54687 13.5382 5.48978C12.5226 4.0816 10.9382 3.92936 10.3897 3.8913ZM18.5452 1.13203V15.9655H21.003V10.8942H24.4054C27.5132 10.8942 29.6968 8.89606 29.6968 6.00358C29.6968 3.11109 27.5538 1.13203 24.4866 1.13203H18.5452ZM21.003 3.07303H23.8366C25.9694 3.07303 27.1882 4.13869 27.1882 6.01309C27.1882 7.8875 25.9694 8.96266 23.8265 8.96266H21.003V3.07303ZM34.1858 16.0797C35.7296 16.0797 37.1616 15.3471 37.8116 14.1863H37.8624V15.9655H40.1374V8.58207C40.1374 6.44126 38.3093 5.06162 35.496 5.06162C32.8858 5.06162 30.9562 6.46029 30.8851 8.38226H33.0991C33.2819 7.46885 34.1858 6.86942 35.4249 6.86942C36.928 6.86942 37.771 7.52594 37.771 8.73431V9.55258L34.7038 9.72384C31.8499 9.88559 30.3062 10.9798 30.3062 12.8827C30.3062 14.8047 31.9007 16.0797 34.1858 16.0797ZM34.846 14.3195C33.5358 14.3195 32.703 13.7296 32.703 12.8257C32.703 11.8932 33.5054 11.3509 35.039 11.2652L37.771 11.1035V11.9408C37.771 13.3299 36.5116 14.3195 34.846 14.3195ZM43.1741 19.9998C45.571 19.9998 46.6983 19.1434 47.6835 16.5459L51.9999 5.20434H49.5015L46.6069 13.9674H46.5562L43.6616 5.20434H41.0921L45.2562 16.0036L45.0327 16.6601C44.6569 17.7733 44.0476 18.2015 42.9608 18.2015C42.7679 18.2015 42.3921 18.1825 42.2397 18.1634V19.9427C42.3819 19.9807 42.9913 19.9998 43.1741 19.9998Z" fill="black"/>
</svg>
