<svg width="381" height="113" viewBox="0 0 381 113" fill="none" xmlns="http://www.w3.org/2000/svg">
<g clip-path="url(#clip0_1005_585)">
<path d="M379.37 31.0555H370.873V20.7447C370.873 20.1989 370.632 19.7137 370.21 19.3497C369.788 19.0465 369.306 18.9252 368.764 19.0465L361.292 20.866C360.508 21.048 359.966 21.7758 359.966 22.5643V30.9949H355.687C354.723 30.9949 354 31.7833 354 32.7538V39.0009C354 39.9713 354.783 40.7598 355.687 40.7598H359.966V65.8696C360.086 76.5444 366.836 78 374.187 78C374.91 78 375.634 78 376.357 77.9393C377.08 77.9393 377.863 77.8787 378.647 77.8787H378.707C379.731 77.7574 380.334 77.0296 380.334 76.0591V69.3874C380.334 68.417 379.551 67.6285 378.647 67.6285H376.055C372.319 67.6285 370.813 65.9909 370.813 61.9273V40.7598H379.309C380.274 40.7598 380.997 39.9713 380.997 39.0009V32.8144C381.057 31.844 380.274 31.0555 379.37 31.0555Z" fill="white"/>
<path d="M333.321 30C328.926 30 325.541 31.4082 323.106 34.1633V32.449C323.106 31.4694 322.393 30.6735 321.443 30.6735H313.663C312.713 30.6735 312 31.4082 312 32.449V76.1633C312 77.1429 312.713 77.9388 313.663 77.9388H321.443C322.393 77.9388 323.106 77.2041 323.106 76.1633V48.7959C323.106 43.7143 326.075 40.3469 330.53 40.3469C334.984 40.3469 337.894 43.7143 337.894 48.9184V76.2245C337.894 77.2041 338.607 78 339.557 78H347.337C348.287 78 349 77.2653 349 76.2245V46.7755C349 36.551 342.823 30 333.321 30Z" fill="white"/>
<path d="M293.455 49.3568H276.52C276.642 47.8492 276.824 46.8241 277.129 45.9196V45.8593C278.226 42.1206 280.906 40.1306 284.805 40.1306C289.008 40.1306 291.993 42.3618 292.967 46.402C293.211 47.0653 293.394 48.0905 293.455 49.3568ZM284.805 30C275.545 30 268.54 35.1859 266.103 43.809C265.311 46.402 264.946 49.598 265.007 53.6382C265.007 58.5829 265.677 62.5628 267.017 65.8191C270.063 73.4774 276.642 77.8191 285.657 78C285.779 78 285.901 78 285.962 78C293.455 78 299.851 74.9246 303.628 69.5578C304.176 68.7739 303.993 67.9296 303.262 67.2663L297.902 62.7437C297.414 62.3216 296.927 62.2613 296.623 62.3216C296.318 62.3819 295.831 62.5628 295.404 63.1658C293.272 66.2412 290.348 67.809 286.632 67.809C281.637 67.7487 278.408 65.6985 277.129 61.7789C276.764 60.9347 276.581 59.6683 276.459 58.2814H303.262C304.298 58.2814 304.968 57.5578 304.968 56.5327C305.029 53.5176 305.029 51.2261 304.724 48.7538C303.262 36.3317 296.562 30 284.805 30Z" fill="white"/>
<path d="M246.755 53.8503C246.755 58.7911 246.575 60.0721 246.156 61.597C245.259 65.3179 242.567 67.5139 238.799 67.5139C235.031 67.5139 232.1 65.2569 230.963 61.475C230.604 60.4991 230.186 58.4251 230.186 53.9723C230.186 50.4344 230.485 48.0555 231.143 46.3475C232.399 42.5046 235.15 40.3087 238.739 40.3087C242.508 40.3087 245.259 42.5656 246.156 46.2865C246.575 47.9335 246.755 49.0924 246.755 53.8503ZM256.265 30.732H248.489C247.532 30.732 246.814 31.464 246.814 32.5009V33.6599C244.242 31.22 240.893 30 236.586 30C228.989 30 222.768 34.7579 220.376 42.3826C219.12 45.9815 219 50.4344 219 53.9113C219 58.4861 219.359 61.963 220.136 64.8909C222.828 74.0407 230.724 77.3346 237.184 77.3346C241.252 77.3346 244.482 76.1756 246.814 73.9187C246.755 77.7615 245.798 80.5065 243.824 82.3364C241.252 84.7153 236.885 85.6303 230.365 84.9593C228.69 84.9593 228.511 86.1183 228.511 86.6063L228.271 93.9261C228.271 94.963 228.81 95.634 229.827 95.756C231.442 95.939 232.997 96 234.492 96C241.73 96 247.771 94.048 251.779 90.3882C255.906 86.6063 258 81.0554 258 73.9187V32.5009C257.94 31.525 257.222 30.732 256.265 30.732Z" fill="white"/>
<path d="M214.772 30.7221C213.581 30.2407 212.271 30 210.782 30C206.792 30 203.577 31.6248 201.135 34.8745V32.2868C201.135 31.3239 200.361 30.5416 199.468 30.5416H191.667C190.715 30.5416 190 31.3239 190 32.2868V75.2548C190 76.2177 190.774 77 191.667 77H199.468C200.421 77 201.135 76.2177 201.135 75.2548V50.2804C201.135 44.9244 205.006 42.2766 208.817 42.0359C210.187 41.8553 210.901 41.9155 211.794 42.096C212.747 42.2766 213.64 41.6748 213.879 40.7721L215.963 33.1293C216.141 32.1063 215.665 31.0832 214.772 30.7221Z" fill="white"/>
<path d="M170.683 57.1778V61.1122C170.683 65.773 165.816 68.6179 161.07 68.6179C157.906 68.6179 154.499 67.2257 154.499 63.3518C154.499 59.4174 157.845 57.1778 163.686 57.1778H170.683ZM163.139 30C154.377 30 147.381 33.9949 145.312 40.169C145.129 40.7137 145.19 41.2585 145.495 41.7427C145.738 42.1665 146.164 42.4691 146.711 42.5902L154.56 44.5271C155.351 44.6482 156.203 44.2245 156.507 43.4981C157.42 41.3796 159.853 40.169 163.443 40.169C168.189 40.169 170.683 42.4691 170.683 46.7667V48.6431H161.678C149.997 48.6431 143 54.3934 143 63.9571C143 74.3077 151.031 78 158.515 78C163.565 78 167.702 76.4868 170.622 73.7024V75.5788C170.622 76.5473 171.413 77.3342 172.326 77.3342H180.296C181.27 77.3342 182 76.5473 182 75.5788V45.7377C182.06 36.4767 174.273 30 163.139 30Z" fill="white"/>
<path d="M77.3298 0H45.6702C44.5826 0 43.7368 0.910994 43.7368 2.00418C43.0721 32.8565 27.5444 62.1297 0.778708 82.8396C-0.0671606 83.5076 -0.248421 84.7223 0.355771 85.6333L18.9045 112.174C19.5087 113.085 20.7775 113.267 21.6233 112.599C38.3595 99.7233 51.8329 84.1757 61.5 66.9883C71.1671 84.2364 84.6406 99.7233 101.377 112.599C102.223 113.267 103.491 113.085 104.096 112.174L122.644 85.6333C123.248 84.7223 123.067 83.5076 122.221 82.8396C95.4556 62.1297 79.9279 32.8565 79.2633 2.00418C79.2633 0.850261 78.4174 0 77.3298 0Z" fill="#FF875B"/>
</g>
<defs>
<clipPath id="clip0_1005_585">
<rect width="381" height="113" fill="white"/>
</clipPath>
</defs>
</svg>
