<svg width="375" height="112" viewBox="0 0 375 112" fill="none" xmlns="http://www.w3.org/2000/svg">
<g clip-path="url(#clip0_1005_577)">
<mask id="mask0_1005_577" style="mask-type:luminance" maskUnits="userSpaceOnUse" x="0" y="0" width="375" height="112">
<path d="M375 0H0V112H375V0Z" fill="white"/>
</mask>
<g mask="url(#mask0_1005_577)">
<path fill-rule="evenodd" clip-rule="evenodd" d="M182.77 73.3822C185.087 74.5764 187.713 75.1929 190.609 75.1929C193.506 75.1929 196.131 74.5764 198.448 73.3822C200.765 72.188 202.58 70.4928 203.893 68.3354C205.206 66.2165 205.863 63.7894 205.863 61.0928C205.863 58.3959 205.206 55.9688 203.893 53.8114C202.58 51.6925 200.765 49.9975 198.448 48.8031C196.131 47.6089 193.506 46.9924 190.609 46.9924C187.713 46.9924 185.087 47.6089 182.77 48.8031C180.453 49.9975 178.638 51.6925 177.325 53.8114C176.013 55.9688 175.356 58.3959 175.356 61.0928C175.356 63.7894 176.013 66.2165 177.325 68.3354C178.638 70.4928 180.453 72.188 182.77 73.3822ZM193.699 66.987C192.772 67.565 191.729 67.8345 190.609 67.8345C189.489 67.8345 188.447 67.565 187.559 66.987C186.632 66.4478 185.898 65.6771 185.358 64.6369C184.817 63.6354 184.547 62.441 184.547 61.0928C184.547 59.7443 184.817 58.5501 185.358 57.5099C185.898 56.5082 186.632 55.7378 187.559 55.1598C188.447 54.6206 189.489 54.3508 190.609 54.3508C191.729 54.3508 192.772 54.6206 193.699 55.1598C194.587 55.7378 195.32 56.5082 195.861 57.5099C196.402 58.5501 196.672 59.7443 196.672 61.0928C196.672 62.441 196.402 63.6354 195.861 64.6369C195.32 65.6771 194.587 66.4478 193.699 66.987ZM157.44 54.6539H149.524V47.6038H174.47V54.6539H166.553V74.5715H157.44V54.6539ZM129.872 69.8715L128.057 74.5715H118.79L130.606 47.604H139.565L151.382 74.5715H141.959L140.144 69.8715H129.872ZM137.634 63.322L135.008 56.5418L132.383 63.322H137.634ZM233.242 74.5715L233.165 62.2818L227.295 72.1444H223.279L217.41 62.7058V74.5715H209.107V47.6038H216.599L225.403 61.9738L233.976 47.6038H241.467L241.545 74.5715H233.242ZM245.876 47.6038H254.988V74.5715H245.876V47.6038ZM273.38 75.1929C270.523 75.1929 267.935 74.6149 265.657 73.3822C263.379 72.188 261.565 70.5313 260.29 68.3739C258.977 66.255 258.321 63.8279 258.321 61.0928C258.321 58.3574 258.977 55.9303 260.29 53.7729C261.565 51.654 263.379 49.959 265.657 48.7646C267.935 47.6089 270.523 46.9924 273.38 46.9924C276.007 46.9924 278.363 47.4549 280.409 48.3794C282.455 49.3041 284.154 50.6525 285.506 52.3859L279.752 57.5099C278.093 55.391 276.122 54.3508 273.844 54.3508C271.952 54.3508 270.408 54.9673 269.25 56.1615C268.09 57.3942 267.511 59.0509 267.511 61.0928C267.511 63.1344 268.09 64.7911 269.25 65.9853C270.408 67.2182 271.952 67.8347 273.844 67.8347C276.122 67.8347 278.093 66.7945 279.752 64.6756L285.506 69.7994C284.154 71.533 282.455 72.8815 280.409 73.8059C278.363 74.7306 276.007 75.1929 273.38 75.1929ZM312.966 74.5715V47.604H310.146V59.6237H293.231V47.604H290.374V74.5715H293.231V62.1278H310.146V74.5715H312.966ZM332.609 74.8025C329.095 74.8025 326.391 73.801 324.422 71.7976C322.453 69.7942 321.488 66.8664 321.488 63.0525V47.604H324.345V62.9368C324.345 66.0574 325.041 68.4075 326.468 69.9485C327.898 71.4894 329.944 72.2599 332.609 72.2599C335.311 72.2599 337.357 71.4894 338.787 69.9485C340.216 68.4075 340.91 66.0574 340.91 62.9368V47.604H343.692V63.0525C343.692 66.8664 342.727 69.7942 340.795 71.7976C338.827 73.801 336.122 74.8025 332.609 74.8025ZM373.57 62.9368C372.567 61.8196 371.215 61.0491 369.441 60.6639C370.713 60.1632 371.756 59.354 372.49 58.3138C373.224 57.3123 373.57 56.0409 373.57 54.5384C373.57 52.3425 372.759 50.6089 371.1 49.4147C369.441 48.2202 367.083 47.604 364.071 47.604H352.409V74.5715H364.845C368.203 74.5715 370.713 73.955 372.452 72.6838C374.152 71.4509 375 69.6787 375 67.3673C375 65.5567 374.536 64.0927 373.57 62.9368ZM355.268 59.7392V49.9539H363.879C366.08 49.9539 367.742 50.3776 368.937 51.1868C370.134 52.0343 370.713 53.267 370.713 54.8467C370.713 56.4261 370.134 57.659 368.937 58.468C367.742 59.3155 366.08 59.7392 363.879 59.7392H355.268ZM370.289 70.9887C369.054 71.7976 367.238 72.2214 364.805 72.2214H355.268V62.0893H364.805C369.71 62.0893 372.143 63.7845 372.143 67.1361C372.143 68.8698 371.524 70.1797 370.289 70.9887Z" fill="white" fill-opacity="0.9"/>
<path fill-rule="evenodd" clip-rule="evenodd" d="M20.2165 95.0581C19.6737 94.4158 19.2942 93.586 18.983 92.7001L18.7751 92.0148L18.6273 91.2879L18.5687 90.9981L18.5531 90.9235L18.5085 90.5441L18.4142 89.7839C18.3548 88.7453 18.3295 87.6836 18.4261 86.5989C18.5872 84.4333 19.0202 82.2299 19.5927 80.0438C20.7609 75.6681 22.5105 71.3704 24.5363 67.2C26.5533 63.0238 28.868 58.9801 31.387 55.0403C31.3999 55.1049 31.4128 55.1698 31.4257 55.2344C31.4578 55.3952 31.4899 55.556 31.523 55.7167C31.7271 56.7063 31.9395 57.6933 32.163 58.6787L20.2314 85.9077C20.2269 85.9546 20.2215 86.0013 20.2162 86.048C20.2092 86.1089 20.2023 86.1698 20.1972 86.2307H40.6838L41.1375 85.0556C41.1377 85.0568 41.1382 85.0579 41.1387 85.0589C41.1394 85.0607 41.1403 85.0624 41.1413 85.0638C41.142 85.0631 41.1427 85.0621 41.1436 85.0612C41.1438 85.0607 41.1443 85.0603 41.1448 85.0598C41.1455 85.0596 41.1459 85.0591 41.1464 85.0586C41.1804 85.1303 41.2144 85.2017 41.2484 85.2731L41.2934 85.3676L41.2936 85.368C41.5238 85.8524 41.7539 86.3366 41.9953 86.8168C42.6778 88.1867 43.3987 89.5386 44.1436 90.8782C42.7423 91.7317 41.3217 92.5407 39.8817 93.2972C37.8855 94.3313 35.8455 95.2523 33.7781 95.9798C31.7145 96.691 29.6135 97.2711 27.5862 97.4342C27.4976 97.4398 27.4088 97.4458 27.3197 97.4519C26.9051 97.4804 26.49 97.5091 26.0913 97.4883C25.7191 97.4997 25.3676 97.4631 25.0165 97.4267C24.8967 97.4141 24.777 97.4017 24.6567 97.3912C24.0544 97.2949 23.4811 97.1504 22.9412 96.9593C22.662 96.8613 22.3887 96.7533 22.1317 96.6243C21.7278 96.4052 21.3557 96.1473 21.0104 95.8554C20.726 95.6146 20.4594 95.3514 20.2165 95.0581ZM61.9641 61.2339H50.2941L56.1286 46.1676L61.9641 61.2339ZM34.9634 35.6732C36.1174 35.6844 37.2708 35.7103 38.4218 35.7509C39.1985 35.7842 39.9745 35.8274 40.7505 35.8724V35.8755C41.1961 35.9021 41.6536 35.9324 42.1148 35.9644C42.4929 35.991 42.8761 36.0192 43.26 36.0488L43.6097 36.0754C44.2713 36.1272 44.9381 36.1851 45.6045 36.2458L45.7127 36.2558C46.3099 36.3111 46.9066 36.3662 47.5031 36.431C48.3037 36.5155 49.0924 36.6067 49.852 36.7038C53.6522 37.1719 57.4395 37.7818 61.1955 38.5492C64.957 39.2931 68.6878 40.1814 72.3705 41.2209C72.4587 41.2449 72.5466 41.2701 72.6345 41.2956C72.6727 41.3063 72.7106 41.3173 72.7486 41.3282C72.7821 41.3376 72.8154 41.3471 72.8487 41.3565C73.451 41.5245 74.051 41.6988 74.6496 41.8773C74.9592 41.969 75.2688 42.0616 75.5787 42.1566C75.8773 42.2485 76.1759 42.3432 76.474 42.438L76.5959 42.4765L76.762 42.5294C77.0756 42.6295 77.3892 42.7296 77.7016 42.8323C78.1526 42.9795 78.6026 43.1277 79.0509 43.2796C80.4628 43.7575 81.8686 44.2531 83.2617 44.7762C84.4833 45.234 85.6908 45.7224 86.8915 46.2247C84.8576 49.7089 82.6371 53.0999 80.246 56.3752C80.1532 56.5024 80.0583 56.6277 79.9636 56.7532L79.9631 56.7537C79.8855 56.8563 79.8077 56.9592 79.7313 57.0628L74.4284 44.9615C73.5401 44.6931 72.649 44.4318 71.7534 44.1859C68.07 43.1471 64.339 42.2588 60.5784 41.5142C56.8223 40.7465 53.0351 40.1378 49.2349 39.6695C46.7606 39.3524 43.4805 39.0353 40.8516 38.8479L39.3724 42.224C39.3743 42.2235 39.3759 42.2233 39.3778 42.2231C39.3806 42.2224 39.3834 42.2219 39.386 42.2214C39.3905 42.2205 39.3949 42.2196 39.3998 42.2189C39.401 42.2326 39.4024 42.2466 39.4036 42.2609C39.4048 42.273 39.4057 42.2851 39.4069 42.2973C39.408 42.3103 39.4095 42.3234 39.4109 42.3365C39.7941 46.029 40.3444 49.7126 41.0395 53.371C41.7122 57.0346 42.5426 60.6746 43.4923 64.2796C44.4244 67.8907 45.5196 71.4572 46.7205 74.9821C46.7967 75.2033 46.8766 75.4229 46.9568 75.6422C46.9744 75.6903 46.992 75.7386 47.0093 75.7867H63.2609C63.1118 75.9299 62.9632 76.0739 62.8146 76.2176C62.5177 76.5053 62.2207 76.7928 61.9195 77.0758C58.5555 80.2244 55.0498 83.2197 51.3722 85.9544C50.4188 86.6761 49.452 87.3761 48.473 88.057C47.2575 85.5766 46.1391 83.0419 45.1076 80.4683C44.7288 79.5251 44.3641 78.5762 44.007 77.6249L44.2521 76.9907C44.1715 77.018 44.0911 77.0448 44.0107 77.0716H44.0102L44.0091 77.0721C43.947 77.0929 43.8848 77.1134 43.8227 77.1344C43.4566 76.1474 43.0995 75.1569 42.758 74.1613C42.1563 72.398 41.5823 70.6251 41.0416 68.8417C40.5019 67.0586 39.9947 65.2643 39.529 63.4587C39.0544 61.6562 38.6095 59.8446 38.1989 58.0267C37.7883 56.2079 37.4126 54.3823 37.0763 52.5502C36.8466 51.341 36.6387 50.1275 36.4411 48.9139C36.3877 48.5858 36.3359 48.2582 36.2852 47.9302C36.2808 47.905 36.277 47.8798 36.2733 47.8546C36.2578 47.7549 36.2416 47.6555 36.2252 47.5561V47.5557C36.1999 47.4003 36.1746 47.2451 36.1516 47.0892C36.1505 47.0813 36.1493 47.0734 36.1479 47.0654C36.147 47.0587 36.146 47.0521 36.1448 47.0456C36.1409 47.0192 36.1376 46.9929 36.1343 46.9672L36.1331 46.9574C36.0016 46.0668 35.8784 45.1747 35.7654 44.2827C35.7359 44.0433 35.7091 43.8032 35.6824 43.5636V43.5633L35.6822 43.5631C35.6663 43.4182 35.6501 43.2733 35.6332 43.1286C35.6177 42.9973 35.6023 42.8661 35.5866 42.735C35.538 42.3288 35.4898 41.9221 35.4476 41.5149C35.4462 41.5021 35.4448 41.489 35.4436 41.4762C35.4424 41.4629 35.4412 41.4496 35.4401 41.4365C35.4389 41.4232 35.4377 41.4101 35.4366 41.3971C35.2291 39.4917 35.0712 37.5816 34.9634 35.6732ZM35.4891 19.4897C35.7595 17.7034 36.09 15.9276 36.5749 14.2273C37.0458 12.5248 37.6369 10.8749 38.4077 9.37979C39.1821 7.89511 40.1187 6.54523 41.2638 5.57914C42.4179 4.64714 43.7412 4.06334 45.2285 3.99222C46.713 3.91146 48.3141 4.34784 49.8602 5.06424C51.4102 5.79623 52.893 6.81492 54.2995 7.96252C57.1275 10.2659 59.6048 13.1101 61.8973 16.0943C62.9698 17.4879 63.9855 18.934 64.9673 20.4069C63.3002 21.6308 61.6819 22.9155 60.1151 24.2513C61.8623 23.1518 63.6202 22.079 65.4129 21.0759C66.3916 22.5398 67.3193 24.0401 68.2416 25.5521C67.6132 23.8964 66.9033 22.2724 66.1601 20.658C66.1711 20.6521 66.1823 20.6454 66.1934 20.6395C68.246 19.4971 70.3357 18.4325 72.473 17.5012C74.6095 16.5721 76.7742 15.7327 78.9769 15.0963C81.1765 14.4777 83.4192 14.0236 85.6045 13.9828C86.1452 13.9695 86.6843 13.9806 87.2131 14.0206C88.8068 14.1406 90.3136 14.5214 91.5195 15.2801C92.3276 15.7742 92.9885 16.4255 93.529 17.1663C93.9152 17.7057 94.2012 18.3258 94.4299 18.98C94.519 19.2348 94.6015 19.4934 94.6741 19.7564L94.8419 20.4787C94.8677 20.6294 94.8874 20.7831 94.9071 20.9367C94.9198 21.0353 94.9324 21.1338 94.9467 21.2315L95.0002 21.6071L95.0203 21.9953L95.0679 22.7702C95.0662 23.8222 95.0241 24.8855 94.8659 25.9618C94.5792 28.1134 94.0193 30.2729 93.33 32.4037C92.3379 35.4242 91.0523 38.3803 89.5976 41.2676C88.2007 40.6252 86.7905 40.0162 85.3737 39.4308C82.8881 38.4137 80.3655 37.5025 77.8221 36.6653C77.8216 36.6653 77.8212 36.6653 77.8209 36.6651C77.8207 36.6651 77.8205 36.6648 77.8205 36.6644C77.2763 36.4852 76.7318 36.3104 76.1869 36.137L76.1505 36.1256L76.1494 36.1251C75.4437 35.9032 74.7387 35.6813 74.0302 35.4716C72.6141 35.0597 71.1898 34.6782 69.7617 34.3114L66.255 26.3072H46.347L44.6159 30.2575C44.5491 30.2531 44.4825 30.2496 44.4157 30.2463C44.3491 30.243 44.2826 30.2398 44.2155 30.2353C43.4145 30.1863 42.6124 30.1434 41.8104 30.11C40.7306 30.0648 39.6492 30.033 38.5666 30.0211C37.3123 30.0078 36.0558 30.0225 34.7993 30.0515C34.788 26.4952 34.9901 22.9495 35.4891 19.4897ZM66.0738 81.4907C66.9762 80.6393 67.8659 79.7762 68.745 78.9028C71.2826 76.3831 73.7264 73.7737 76.076 71.0845C78.2721 68.5232 80.3923 65.8938 82.4152 63.189C83.2751 62.0408 84.1223 60.8811 84.9422 59.7009C87.4329 56.087 89.7766 52.3605 91.8441 48.4636L91.9195 48.3215L91.9205 48.3198C92.0963 47.9885 92.272 47.6574 92.4434 47.3233C93.0724 46.0906 93.6806 44.846 94.2614 43.5848C94.6971 42.6396 95.1197 41.6862 95.5148 40.7185C96.4282 38.458 97.2452 36.1466 97.9038 33.7678C98.5648 31.3903 99.0527 28.938 99.2501 26.4035C99.3616 25.1403 99.3497 23.8439 99.2726 22.5443L99.1596 21.5597L99.0994 21.0692L99 20.5751C98.9784 20.4726 98.9578 20.3703 98.9372 20.268V20.2675V20.2672C98.8917 20.0415 98.8465 19.8162 98.7912 19.5904L98.4963 18.6095C98.3456 18.1769 98.1764 17.7449 97.9856 17.3189C97.6052 16.4706 97.136 15.6475 96.5271 14.9015C95.6135 13.7939 94.4855 12.8426 93.2208 12.2062C91.9598 11.5587 90.6105 11.1868 89.2903 11.026C87.9661 10.8623 86.663 10.8771 85.399 11.0156C82.8673 11.2935 80.4961 12.0121 78.2238 12.873C75.9595 13.7583 73.7843 14.8007 71.7141 16.0024C69.6546 17.1774 67.6734 18.4599 65.7605 19.8275C64.9927 18.251 64.1787 16.6936 63.2986 15.1638C61.3641 11.8202 59.0977 8.63004 56.3107 5.76732C54.8981 4.35449 53.329 3.04537 51.517 1.96742C49.702 0.91539 47.5826 0.0967316 45.233 0.010791C42.8885 -0.106266 40.4618 0.738323 38.5814 2.09189C36.7027 3.46547 35.3177 5.23614 34.237 7.06162C32.0902 10.7422 30.9652 14.6815 30.2107 18.5955C29.448 22.5065 29.1457 26.4383 29.0409 30.3508C28.1998 30.4204 27.3591 30.4946 26.5184 30.5893C22.506 31.048 18.4944 31.7711 14.563 33.0195C13.2174 33.4439 11.8859 33.9425 10.5751 34.5219H10.5737C10.339 34.6255 10.1058 34.7331 9.87187 34.8411C9.50503 35.0117 9.13891 35.1864 8.77577 35.3731C8.54187 35.4954 8.30794 35.6197 8.07551 35.7488C7.84306 35.8776 7.61135 36.0103 7.38115 36.1473C6.23159 36.8312 5.11915 37.6194 4.09655 38.5588C3.89234 38.7471 3.6911 38.9403 3.49355 39.1412L2.91134 39.7495C2.78384 39.8949 2.66292 40.0493 2.5422 40.2036C2.48644 40.2747 2.43073 40.3459 2.37443 40.4161C2.0516 40.7948 1.78353 41.2309 1.51723 41.664L1.51714 41.6642C1.47964 41.7251 1.44216 41.786 1.40457 41.8469C1.3873 41.8721 1.37292 41.8997 1.35846 41.9274C1.3487 41.9461 1.33885 41.965 1.32809 41.9832C1.24169 42.1321 1.16615 42.2893 1.09082 42.4461C1.06191 42.5063 1.03301 42.5665 1.00356 42.6263C0.963403 42.718 0.920531 42.8071 0.877694 42.8962L0.87765 42.8965C0.85713 42.9392 0.836623 42.9819 0.816422 43.0248C0.754043 43.1573 0.695377 43.2915 0.649334 43.4322C0.623271 43.5129 0.596906 43.5932 0.570567 43.6735C0.504595 43.8746 0.438783 44.0753 0.378279 44.2769C0.29362 44.5592 0.21936 44.8443 0.171832 45.1379C-0.0479822 46.2994 -0.0539224 47.4959 0.13693 48.6264C0.184457 48.9095 0.241638 49.1888 0.308473 49.4636C0.358971 49.6704 0.413925 49.8748 0.475563 50.0757C0.656761 50.6802 0.884745 51.2617 1.14986 51.8145C1.50334 52.5539 1.90955 53.2481 2.35439 53.9044C2.50216 54.1238 2.65514 54.338 2.81109 54.5482C3.12373 54.9691 3.45122 55.3744 3.78987 55.7655C4.12924 56.1568 4.479 56.5332 4.83621 56.8983C6.26723 58.3609 7.82747 59.6426 9.47088 60.7782C9.88081 61.0643 10.2937 61.3429 10.7103 61.6147C11.5435 62.1577 12.3916 62.6733 13.2515 63.1624C13.6815 63.4067 14.1145 63.6461 14.5496 63.878C15.8566 64.5752 17.1881 65.2183 18.536 65.814C18.9853 66.0133 19.4368 66.2074 19.8898 66.3962C19.0618 65.8688 18.2397 65.3361 17.428 64.7908C16.6171 64.2462 15.8165 63.6883 15.0338 63.109C14.2451 62.5392 13.4713 61.9533 12.7161 61.3487C11.9616 60.7434 11.2257 60.1188 10.5143 59.4727C10.1608 59.1477 9.81098 58.8201 9.46716 58.4883C8.7795 57.8244 8.11561 57.1429 7.49255 56.4361C7.18139 56.0819 6.88062 55.7219 6.59175 55.3537C6.30288 54.989 6.0244 54.6156 5.7615 54.2365C5.62931 54.0468 5.50158 53.8557 5.37757 53.6622C5.00627 53.0843 4.67208 52.4923 4.38691 51.8908C4.19681 51.4892 4.02898 51.0839 3.88566 50.6742C3.81363 50.4705 3.74754 50.2668 3.68813 50.0624C3.51063 49.4489 3.39628 48.8355 3.3532 48.2316C3.32498 47.8294 3.32869 47.4315 3.36731 47.0419C3.40519 46.6529 3.47871 46.2705 3.58936 45.9002C3.64207 45.7142 3.70296 45.5303 3.77128 45.3504C3.88491 45.0525 4.02527 44.7643 4.18048 44.4822C4.40102 44.082 4.65649 43.6961 4.95056 43.33C5.32709 42.8619 5.7578 42.4226 6.23231 42.0135C7.497 40.9229 9.0372 40.0346 10.6836 39.3167C12.3322 38.5966 14.0922 38.0492 15.8834 37.5795C20.1541 36.5206 24.5934 35.9828 29.082 35.774C29.1635 38.1817 29.333 40.5813 29.5741 42.9714V42.973C29.7546 44.7629 29.973 46.5477 30.2306 48.325C30.2339 48.3462 30.2374 48.3672 30.2407 48.3882C30.2466 48.4246 30.2522 48.4608 30.2573 48.4969C30.3771 49.3206 30.5039 50.1431 30.6384 50.9633C30.7385 51.5723 30.8473 52.1794 30.9558 52.7858L30.9755 52.8962C27.6745 56.9658 24.6314 61.2635 21.9231 65.8028C19.4969 69.9286 17.3448 74.2597 15.7868 78.9059C15.0063 81.2275 14.3885 83.6348 14.0595 86.1537C13.8805 87.4095 13.8278 88.7075 13.8367 90.0209C13.9102 91.3472 14.0194 92.694 14.4234 94.055C14.8185 95.4049 15.3724 96.7813 16.2851 98.0054C16.5294 98.3379 16.7975 98.6543 17.079 98.9604C17.8327 99.7745 18.7075 100.486 19.6611 101.05C20.0524 101.276 20.4534 101.469 20.8596 101.642C21.8258 102.053 22.8246 102.33 23.813 102.523C23.8847 102.533 23.9562 102.544 24.0279 102.554L24.0309 102.555C24.6572 102.645 25.2877 102.737 25.8998 102.748C26.5289 102.796 27.1383 102.775 27.7481 102.754C27.8126 102.752 27.8775 102.75 27.942 102.748C30.6316 102.613 33.1462 102.013 35.553 101.244C36.4554 100.951 37.3376 100.624 38.2109 100.282C39.6642 99.7122 41.0848 99.0878 42.4713 98.4135C44.0693 97.6171 45.6288 96.768 47.1558 95.8746C48.5503 95.0581 49.9153 94.2025 51.255 93.3142C56.5587 89.8016 61.4541 85.7698 66.0738 81.4907ZM75.5398 105.198C74.4267 106.626 73.1004 107.846 71.5943 108.549C70.8405 108.901 70.0444 109.087 69.2491 109.189C68.4403 109.217 67.6376 109.215 66.8416 109C65.2502 108.645 63.7078 107.872 62.2966 106.85C60.8798 105.835 59.5624 104.617 58.3484 103.288C57.1364 101.954 55.9912 100.54 54.9248 99.0542C54.3084 98.1785 53.7143 97.2858 53.1345 96.3818C51.852 97.2286 50.5462 98.0474 49.2127 98.829C51.0877 101.409 53.1551 103.876 55.5403 106.092C57.0152 107.457 58.6059 108.739 60.4001 109.786C62.1809 110.832 64.1904 111.669 66.3722 111.921C67.4534 112.078 68.5793 111.982 69.6612 111.804C70.7395 111.553 71.7806 111.168 72.7059 110.604C74.5521 109.471 75.9387 107.854 76.9322 106.126C78.915 102.638 79.7719 98.8148 80.2177 95.0313C79.6666 96.8611 79.065 98.6666 78.2927 100.384C77.5404 102.105 76.6463 103.756 75.5398 105.198ZM113.096 61.7456C113.17 62.0058 113.237 62.2694 113.297 62.5378C113.802 64.8055 113.543 67.3727 112.483 69.4664C111.418 71.5696 109.757 73.1507 108.006 74.3412C107.121 74.9352 106.205 75.442 105.27 75.8858C104.569 76.2179 103.859 76.5135 103.143 76.7837C102.905 76.8749 102.666 76.9615 102.427 77.0469C101.947 77.2128 101.465 77.3684 100.983 77.515C99.5339 77.9543 98.0723 78.3055 96.5984 78.5633C94.2523 78.9938 91.8961 79.2561 89.5404 79.3903L92.5355 86.2253H71.5988L70.1426 82.4551C72.8902 79.7568 75.5325 76.9587 78.0626 74.0633C80.1101 71.6756 82.0875 69.2256 83.9864 66.7147L89.2376 78.6975C89.6815 78.6063 90.1256 78.5122 90.5681 78.4121C91.0441 78.3092 91.5187 78.2033 91.9917 78.0906C92.808 77.8981 93.6173 77.6869 94.421 77.4618C95.0149 77.2942 95.607 77.1216 96.192 76.9335C96.6511 76.7853 97.1077 76.6334 97.5607 76.4757C98.6716 76.0905 99.7596 75.6658 100.819 75.1947C100.895 75.1609 100.97 75.1277 101.046 75.0946C101.21 75.023 101.373 74.9511 101.535 74.8746C101.672 74.8085 101.807 74.7388 101.943 74.669C102.013 74.6328 102.083 74.5969 102.153 74.5612C102.416 74.4287 102.677 74.2922 102.934 74.1529C103.707 73.7336 104.454 73.2825 105.151 72.7869C105.521 72.523 105.88 72.2468 106.221 71.9593C106.393 71.8163 106.56 71.6711 106.722 71.5223C106.885 71.3741 107.044 71.2222 107.197 71.068C107.81 70.4494 108.343 69.7856 108.755 69.0863C108.962 68.7365 109.138 68.3779 109.28 68.012C109.419 67.6445 109.526 67.2726 109.601 66.8976C109.676 66.5236 109.719 66.1458 109.731 65.7664C109.737 65.5774 109.734 65.3877 109.724 65.1973C109.704 64.8174 109.653 64.4364 109.57 64.0579C109.528 63.8682 109.478 63.6785 109.422 63.4888C109.336 63.2149 109.232 62.9421 109.12 62.671C109.1 62.6213 109.08 62.5725 109.059 62.5228C108.942 62.251 108.815 61.9806 108.675 61.7132C108.67 61.7027 108.664 61.6926 108.659 61.6826C108.656 61.6782 108.654 61.6737 108.652 61.6693C108.346 61.093 107.991 60.5262 107.594 59.9765C107.393 59.6972 107.183 59.4202 106.962 59.1505C105.853 57.7925 104.524 56.5514 103.112 55.3882C101.693 54.2288 100.179 53.1501 98.5884 52.1656C97.3076 51.3595 95.9946 50.5897 94.6474 49.868C95.4457 48.29 96.2121 46.6928 96.9206 45.0644C100.201 46.9847 103.37 49.1612 106.249 51.7981C107.784 53.1998 109.227 54.7444 110.48 56.5026C110.644 56.7345 110.804 56.9723 110.96 57.2131C110.96 57.2126 110.961 57.2124 110.961 57.2124C110.961 57.2122 110.961 57.2119 110.961 57.2115C110.972 57.2264 110.981 57.242 110.99 57.2567C111.111 57.4427 111.23 57.6301 111.345 57.8205C111.405 57.9192 111.461 58.02 111.519 58.1191L111.537 58.1509C111.604 58.2645 111.67 58.3781 111.734 58.4941C111.773 58.5643 111.81 58.6357 111.848 58.7074C111.865 58.7398 111.882 58.772 111.899 58.8044C111.967 58.9335 112.034 59.0623 112.099 59.192C112.15 59.2963 112.2 59.4015 112.249 59.5068C112.313 59.6423 112.375 59.7786 112.435 59.9172C112.48 60.0217 112.524 60.1253 112.568 60.2313C112.628 60.3773 112.685 60.5255 112.74 60.6744C112.747 60.6928 112.754 60.7115 112.761 60.7299C112.792 60.812 112.823 60.8939 112.851 60.9775C112.908 61.1394 112.959 61.3048 113.01 61.4698L113.015 61.4864C113.042 61.5722 113.07 61.6583 113.096 61.7456Z" fill="#EA923A"/>
</g>
</g>
<defs>
<clipPath id="clip0_1005_577">
<rect width="375" height="112" fill="white"/>
</clipPath>
</defs>
</svg>
