<svg width="273" height="90" viewBox="0 0 273 90" fill="none" xmlns="http://www.w3.org/2000/svg">
<g clip-path="url(#clip0_1005_584)">
<path d="M252.188 5.19231L193.882 89.1346H211.783L270.392 5.19231H252.188Z" fill="white"/>
<path d="M213.586 5.19231L231.267 29.8303L222.042 43.2692L194.751 5.19231H213.586Z" fill="url(#paint0_linear_1005_584)"/>
<path d="M254.004 90L234.745 62.508L243.808 49.3269L272.13 90H254.004Z" fill="url(#paint1_linear_1005_584)"/>
<path fill-rule="evenodd" clip-rule="evenodd" d="M172.799 5.19231H188.666V89.2427H172.799V86.1033C168.216 88.5875 162.955 90 157.36 90C139.597 90 125.198 75.7614 125.198 58.1971C125.198 40.6328 139.597 26.3942 157.36 26.3942C162.955 26.3942 168.216 27.8068 172.799 30.2908V5.19231ZM157.191 76.0419C167.251 76.0419 175.407 67.9775 175.407 58.0296C175.407 48.0817 167.251 40.0173 157.191 40.0173C147.13 40.0173 138.975 48.0817 138.975 58.0296C138.975 67.9775 147.13 76.0419 157.191 76.0419Z" fill="white"/>
<path d="M126.976 5.19231L68.6848 89.1346H86.9592L145.194 5.19231H126.976Z" fill="white"/>
<path d="M86.8817 5.19231L105.201 30.7293L95.1065 45L67.8152 5.19231H86.8817Z" fill="url(#paint2_linear_1005_584)"/>
<path fill-rule="evenodd" clip-rule="evenodd" d="M47.6011 5.19231H63.4682V89.2427H47.6011V86.1033C43.0185 88.5875 37.7574 90 32.1627 90C14.3997 90 0 75.7614 0 58.1971C0 40.6328 14.3997 26.3942 32.1627 26.3942C37.7574 26.3942 43.0185 27.8068 47.6011 30.2908V5.19231ZM31.9933 76.0419C42.0538 76.0419 50.2094 67.9775 50.2094 58.0296C50.2094 48.0817 42.0538 40.0173 31.9933 40.0173C21.9329 40.0173 13.7773 48.0817 13.7773 58.0296C13.7773 67.9775 21.9329 76.0419 31.9933 76.0419Z" fill="white"/>
</g>
<defs>
<linearGradient id="paint0_linear_1005_584" x1="209.358" y1="10.4186" x2="233.796" y2="40.797" gradientUnits="userSpaceOnUse">
<stop stop-color="white"/>
<stop offset="1" stop-color="white" stop-opacity="0.55"/>
</linearGradient>
<linearGradient id="paint1_linear_1005_584" x1="258.158" y1="83.5978" x2="227.713" y2="42.4423" gradientUnits="userSpaceOnUse">
<stop stop-color="#6966FF"/>
<stop offset="1" stop-color="#6966FF" stop-opacity="0.36"/>
</linearGradient>
<linearGradient id="paint2_linear_1005_584" x1="82.7693" y1="10.6561" x2="108.428" y2="41.891" gradientUnits="userSpaceOnUse">
<stop stop-color="white"/>
<stop offset="1" stop-color="white" stop-opacity="0.55"/>
</linearGradient>
<clipPath id="clip0_1005_584">
<rect width="273" height="90" fill="white"/>
</clipPath>
</defs>
</svg>
