<svg width="75" height="54" viewBox="0 0 75 54" fill="none" xmlns="http://www.w3.org/2000/svg">
<g clip-path="url(#clip0_1066_430)">
<path d="M5.09901 39.6708H4.42006L3.74343 43.4579H4.40268C5.9645 43.4579 6.66199 42.6462 6.66199 41.1214C6.66199 40.1601 6.13482 39.6708 5.09901 39.6708ZM4.23237 45.472H3.38542L2.55932 50.2157H-0.0742188L2.14454 37.6567H5.62503C7.67462 37.6567 9.44383 38.4486 9.44383 40.8953C9.44383 44.0597 7.33746 45.472 4.23237 45.472Z" fill="#176FC1"/>
<path d="M13.7044 43.5502C12.7323 43.5502 11.7776 45.1712 11.7776 46.9558C11.7776 47.8753 11.9954 48.4145 12.4438 48.4145C13.2178 48.4145 14.3173 46.6485 14.7309 44.3421L14.8027 43.9467C14.6405 43.818 14.3694 43.5502 13.7044 43.5502ZM16.1166 50.2164H13.687L13.9037 48.9537C13.4912 49.603 12.8771 50.3985 11.4914 50.3985C10.3374 50.3985 9.22168 49.494 9.22168 47.2259C9.22168 43.9653 11.1485 41.5674 13.3788 41.5674C14.6405 41.5674 15.1075 42.0892 15.272 42.2526L15.3612 41.7482H17.6124L16.1166 50.2164Z" fill="#176FC1"/>
<path d="M22.9018 49.6948C21.6609 52.1786 20.42 53.6385 17.5374 54.0002L17.2686 52.2342C18.3669 51.891 19.4827 51.3344 20.0956 50.0891L20.3458 49.5847L18.8721 41.7485H21.4465L22.093 46.36L24.2179 41.7485H26.899L22.9018 49.6948Z" fill="#176FC1"/>
<path d="M38.6739 50.2162H36.2431L37.2337 44.6306C37.3044 44.2723 37.287 43.9106 36.8745 43.9106C36.1179 43.9106 34.7658 45.7125 34.3893 47.8751L33.9768 50.2162H31.5426L32.5355 44.6306C32.605 44.2723 32.5911 43.9106 32.174 43.9106C31.4186 43.9106 30.07 45.7125 29.6888 47.8751L29.2763 50.2162H26.8467L28.3401 41.7492H30.7698L30.428 43.7308C30.969 42.8461 31.8148 41.5671 33.2724 41.5671C34.5863 41.5671 35.1632 42.4148 35.0717 43.7668C35.5398 42.9899 36.4238 41.5671 37.9717 41.5671C39.4664 41.5671 40.0063 42.6675 39.6992 44.3953L38.6739 50.2162Z" fill="#176FC1"/>
<path d="M45.7491 43.2969C44.9937 43.2969 44.273 44.2536 43.9845 45.623C45.5869 45.4061 46.5589 45.0293 46.5589 44.0889C46.5589 43.5497 46.2334 43.2969 45.7491 43.2969ZM43.8582 47.011C43.8953 47.9444 44.2915 48.4152 45.1014 48.4152C46.0376 48.4152 46.9355 47.9282 47.604 47.5154L48.2702 49.0993C47.7118 49.5144 46.5057 50.398 44.7596 50.398C42.8687 50.398 41.3579 49.4796 41.3579 46.9205C41.3579 43.9463 42.9939 41.5669 45.8765 41.5669C48.0362 41.5669 48.9724 42.5061 48.9724 43.9463C48.9724 46.2886 47.0629 46.8475 43.8582 47.011Z" fill="#176FC1"/>
<path d="M57.0367 50.2162H54.6059L55.5965 44.6306C55.6695 44.2723 55.651 43.9106 55.2374 43.9106C54.4808 43.9106 53.1298 45.7125 52.7521 47.8751L52.3397 50.2162H49.9077L51.4023 41.7492H53.8331L53.4925 43.7308C54.0312 42.8461 54.877 41.5671 56.3346 41.5671C57.8292 41.5671 58.3691 42.6675 58.0655 44.3953L57.0367 50.2162Z" fill="#176FC1"/>
<path d="M64.5992 43.5502H63.3398L62.6029 47.7292C62.5265 48.091 62.6539 48.2695 62.9239 48.2695C63.1765 48.2695 63.3757 48.2 63.6098 48.091L63.86 49.7653C63.4997 49.9996 62.8161 50.3985 61.844 50.3985C60.5846 50.3985 59.8477 49.603 60.1513 47.8938L60.909 43.5502H60.0088L60.3297 41.7482H61.2323L61.7351 39.9115L64.0779 39.406L63.6608 41.7482H64.9225L64.5992 43.5502Z" fill="#176FC1"/>
<path d="M71.3848 44.3257C70.8634 43.9651 70.0339 43.5697 69.3897 43.5697C68.8833 43.5697 68.5404 43.7482 68.5404 44.1633C68.5404 44.5414 68.9204 44.706 69.4244 44.9194L69.8913 45.1177C70.7557 45.4783 71.7115 46.0534 71.7115 47.5678C71.7115 49.3697 70.7557 50.3982 68.5948 50.3982C66.8314 50.3982 65.8026 49.6213 65.1572 49.1552L66.1096 47.4796C66.7411 47.9458 67.7305 48.3957 68.3793 48.3957C68.939 48.3957 69.1695 48.1997 69.1695 47.7846C69.1695 47.3707 68.7744 47.1886 68.2716 46.9903L67.785 46.7955C66.923 46.4523 66.0019 45.8748 66.0019 44.3779C66.0019 42.4333 67.4988 41.5683 69.3688 41.5683C70.882 41.5683 71.8193 42.3255 72.2491 42.6478L71.3848 44.3257Z" fill="#176FC1"/>
<path d="M38.6996 27.2785H33.4511L32.9413 30.1982H37.0057L36.6292 32.3643H32.5659L31.6251 37.6738H28.9893L31.2126 25.1148H39.0936L38.6996 27.2785Z" fill="#176FC1"/>
<path d="M42.0183 31.0067C41.0463 31.0067 40.0916 32.6289 40.0916 34.4123C40.0916 35.3318 40.3071 35.8721 40.7578 35.8721C41.5317 35.8721 42.6312 34.1073 43.0426 31.801L43.1167 31.4044C42.9557 31.278 42.6857 31.0067 42.0183 31.0067ZM44.4294 37.6741H41.9986L42.2153 36.4125C41.8028 37.0618 41.1911 37.855 39.8031 37.855C38.6514 37.855 37.5356 36.9528 37.5356 34.6848C37.5356 31.4218 39.4624 29.025 41.6916 29.025C42.9557 29.025 43.4214 29.548 43.5848 29.7103L43.6752 29.2059H45.9252L44.4294 37.6741Z" fill="#176FC1"/>
<path d="M52.6607 31.7822C52.137 31.4216 51.3098 31.0238 50.661 31.0238C50.157 31.0238 49.814 31.2059 49.814 31.6187C49.814 31.9979 50.194 32.159 50.6957 32.3759L51.1638 32.5753C52.0281 32.9348 52.9828 33.5099 52.9828 35.0243C52.9828 36.8274 52.0281 37.8536 49.8685 37.8536C48.1039 37.8536 47.0797 37.079 46.4297 36.6129L47.3855 34.935C48.0135 35.4023 49.0053 35.8533 49.653 35.8533C50.2079 35.8533 50.4455 35.6562 50.4455 35.2411C50.4455 34.8272 50.0492 34.6463 49.5441 34.4468L49.0586 34.2509C48.1954 33.9076 47.2766 33.3325 47.2766 31.8355C47.2766 29.891 48.7713 29.0248 50.6424 29.0248C52.1533 29.0248 53.0906 29.7808 53.5239 30.1043L52.6607 31.7822Z" fill="#176FC1"/>
<path d="M59.4106 31.0067H58.1512L57.4109 35.1892C57.3413 35.5486 57.4653 35.7295 57.7353 35.7295C57.989 35.7295 58.186 35.6565 58.42 35.5486L58.6703 37.223C58.3099 37.4584 57.6264 37.855 56.6554 37.855C55.3972 37.855 54.6568 37.0618 54.9639 35.3503L55.7204 31.0067H54.8179L55.1434 29.2059H56.0437L56.5477 27.368L58.8881 26.8625L58.4722 29.2059H59.7339L59.4106 31.0067Z" fill="#176FC1"/>
<path d="M64.5046 30.7544C63.7492 30.7544 63.0274 31.7087 62.7412 33.0769C64.3436 32.8624 65.3145 32.4844 65.3145 31.5475C65.3145 31.006 64.9924 30.7544 64.5046 30.7544ZM62.6138 34.4661C62.6508 35.403 63.0471 35.8714 63.8581 35.8714C64.7943 35.8714 65.6934 35.3856 66.3607 34.9716L67.0258 36.5556C66.4673 36.9707 65.26 37.8531 63.5152 37.8531C61.6243 37.8531 60.1123 36.9347 60.1123 34.3779C60.1123 31.4037 61.7494 29.0255 64.6332 29.0255C66.7917 29.0255 67.7267 29.9624 67.7267 31.4037C67.7267 33.746 65.8185 34.3049 62.6138 34.4661Z" fill="#176FC1"/>
<path d="M74.6059 31.656C73.3813 31.656 71.9759 32.7008 71.509 35.3318L71.0953 37.6741H68.6646L70.1592 29.2047H72.5355L72.2308 30.9893C72.7858 29.7289 73.4357 29.025 75.074 29.025L74.6059 31.656Z" fill="#176FC1"/>
<path d="M37.9073 17.4231V17.5089C37.9039 18.113 37.4265 18.7206 36.4811 19.1763L4.79634 34.5356C2.89157 35.4598 2.18713 34.7073 3.2241 32.8624L9.02182 22.5529C9.86182 21.049 10.3438 19.3143 10.3438 17.466C10.3438 15.6177 9.86182 13.8818 9.02182 12.379L3.2241 2.06953C2.18713 0.223534 2.89157 -0.529011 4.79634 0.395145L36.4811 15.7533C37.4265 16.2148 37.9039 16.8189 37.9073 17.4231Z" fill="#176FC1"/>
</g>
<defs>
<clipPath id="clip0_1066_430">
<rect width="75" height="54" fill="white"/>
</clipPath>
</defs>
</svg>
