<svg width="88" height="99" viewBox="0 0 88 99" fill="none" xmlns="http://www.w3.org/2000/svg">
<g clip-path="url(#clip0_1006_206)">
<path d="M4.14689 42.8124H83.853C85.5932 42.8124 87.1699 41.7127 87.7766 40.0749C88.3816 38.4375 87.9026 36.5728 86.5842 35.4343L46.7305 1.01713C45.9717 0.360892 45.0016 0 43.9995 0C42.9979 0 42.0277 0.360892 41.2686 1.01713L1.41598 35.4343C0.0970292 36.5728 -0.382148 38.4379 0.223641 40.0763C0.82999 41.7127 2.40683 42.8124 4.14689 42.8124Z" fill="black"/>
<path d="M83.7481 84.0999H4.04199C1.73424 84.0999 -0.143066 85.9828 -0.143066 88.297V94.8214C-0.143066 97.1356 1.73443 99.0185 4.04199 99.0185H83.7481C86.0558 99.0185 87.9331 97.1356 87.9331 94.8214V88.297C87.9331 85.983 86.0555 84.0999 83.7481 84.0999Z" fill="black"/>
<path d="M6.65596 45.2735C6.05771 45.2735 5.57129 45.6841 5.57129 46.1888V81.0355C5.57129 81.54 6.05789 81.9508 6.65596 81.9508H20.3441C20.942 81.9508 21.4284 81.5402 21.4284 81.0355V46.1888C21.4284 45.6843 20.942 45.2735 20.3441 45.2735H6.65596Z" fill="black"/>
<path d="M37.0944 45.2735C36.4908 45.2735 36 45.6841 36 46.1888V81.0355C36 81.54 36.491 81.9508 37.0944 81.9508H50.9056C51.5092 81.9508 52 81.5402 52 81.0355V46.1888C52 45.6843 51.509 45.2735 50.9056 45.2735H37.0944Z" fill="black"/>
<path d="M67.6559 45.2735C67.0577 45.2735 66.5713 45.6841 66.5713 46.1888V81.0355C66.5713 81.54 67.0577 81.9508 67.6559 81.9508H81.3438C81.942 81.9508 82.4284 81.5402 82.4284 81.0355V46.1888C82.4284 45.6843 81.9418 45.2735 81.3438 45.2735H67.6559Z" fill="black"/>
</g>
<defs>
<clipPath id="clip0_1006_206">
<rect width="88" height="99" fill="white"/>
</clipPath>
</defs>
</svg>
