<svg width="43" height="20" viewBox="0 0 43 20" fill="none" xmlns="http://www.w3.org/2000/svg">
<g clip-path="url(#clip0_1311_212)">
<path d="M20.3176 10.341V15.2229H18.7051V3.14938H22.8976C23.9188 3.14938 24.8863 3.51684 25.6388 4.19925C26.3913 4.82917 26.7676 5.77406 26.7676 6.77143C26.7676 7.76881 26.3913 8.66119 25.6388 9.34361C24.8863 10.026 23.9726 10.3935 22.8976 10.3935L20.3176 10.341ZM20.3176 4.6192V8.81867H23.0051C23.5963 8.81867 24.1876 8.6087 24.5638 8.18875C25.4238 7.40135 25.4238 6.08902 24.6176 5.30161L24.5638 5.24912C24.1338 4.82917 23.5963 4.56671 23.0051 4.6192H20.3176Z" fill="#5F6368"/>
<path d="M30.4763 6.71893C31.6588 6.71893 32.5726 7.03389 33.2713 7.66382C33.9701 8.29374 34.2926 9.13363 34.2926 10.1835V15.2229H32.7876V14.068H32.7338C32.0888 15.0129 31.1751 15.4853 30.1001 15.4853C29.1863 15.4853 28.3801 15.2229 27.7351 14.6979C27.1438 14.173 26.7676 13.4381 26.7676 12.6507C26.7676 11.8108 27.0901 11.1284 27.7351 10.6034C28.3801 10.0785 29.2938 9.86854 30.3688 9.86854C31.3363 9.86854 32.0888 10.026 32.6801 10.3935V10.026C32.6801 9.50109 32.4651 8.97615 32.0351 8.66119C31.6051 8.29374 31.0676 8.08376 30.4763 8.08376C29.5626 8.08376 28.8638 8.45122 28.3801 9.18612L26.9826 8.34623C27.8426 7.24387 28.9713 6.71893 30.4763 6.71893ZM28.4338 12.7032C28.4338 13.1231 28.6488 13.4906 28.9713 13.7006C29.3476 13.963 29.7776 14.1205 30.2076 14.1205C30.8526 14.1205 31.4976 13.858 31.9813 13.3856C32.5188 12.9132 32.7876 12.3357 32.7876 11.7058C32.3038 11.3384 31.6051 11.1284 30.6913 11.1284C30.0463 11.1284 29.5088 11.2859 29.0788 11.6008C28.6488 11.8633 28.4338 12.2307 28.4338 12.7032Z" fill="#5F6368"/>
<path d="M43.0003 6.9814L37.679 18.8974H36.0665L38.0553 14.7504L34.5615 7.03389H36.2815L38.8078 12.9657H38.8615L41.334 7.03389H43.0003V6.9814Z" fill="#5F6368"/>
<path d="M13.921 9.29112C13.921 8.81868 13.8672 8.34624 13.8135 7.87379H7.09473V10.551H10.911C10.7497 11.3909 10.266 12.1783 9.51348 12.6507V14.383H11.8247C13.1685 13.1756 13.921 11.3909 13.921 9.29112Z" fill="#4285F4"/>
<path d="M7.09543 16.0628C9.03043 16.0628 10.6429 15.4328 11.8254 14.383L9.51418 12.6507C8.86918 13.0706 8.06293 13.3331 7.09543 13.3331C5.26793 13.3331 3.65543 12.1258 3.11793 10.446H0.75293V12.2307C1.98918 14.593 4.40793 16.0628 7.09543 16.0628Z" fill="#34A853"/>
<path d="M3.11727 10.446C2.79477 9.60607 2.79477 8.66119 3.11727 7.7688V5.98402H0.752266C-0.268984 7.92628 -0.268984 10.236 0.752266 12.2307L3.11727 10.446Z" fill="#FBBC04"/>
<path d="M7.09539 4.93416C8.11664 4.93416 9.08414 5.30161 9.83664 5.98403L11.8791 3.98928C10.5891 2.83442 8.86914 2.15201 7.14914 2.2045C4.46164 2.2045 1.98914 3.67432 0.806641 6.03652L3.17164 7.8213C3.65539 6.14151 5.26789 4.93416 7.09539 4.93416Z" fill="#EA4335"/>
</g>
<defs>
<clipPath id="clip0_1311_212">
<rect width="43" height="20" fill="white"/>
</clipPath>
</defs>
</svg>
