<svg width="522" height="150" viewBox="0 0 522 150" fill="none" xmlns="http://www.w3.org/2000/svg">
<path d="M333.005 41.536C333.005 41.0469 332.842 40.7752 332.353 40.7752C329.038 40.7752 325.722 40.7752 322.407 40.7752C321.918 40.7752 321.701 40.9926 321.701 41.4817C321.701 42.5686 321.701 43.6012 321.701 45.0141C318.712 42.2425 316.973 41.1013 314.364 40.4491C307.843 38.8188 302.082 40.3405 297.191 44.7968C291.05 50.503 289.202 57.6766 290.942 65.7197C293.007 75.1214 301.484 82.295 311.756 81.2081C315.125 80.8277 318.168 79.5777 320.614 77.1865C320.886 76.9148 321.049 76.48 321.647 76.5887C321.592 78.8712 321.81 81.0994 321.375 83.3819C320.56 87.2404 317.734 89.9033 313.712 90.3381C309.528 90.8272 305.56 89.6316 303.713 85.7187C303.169 84.5775 302.571 84.2514 301.43 84.3057C299.311 84.4144 297.191 84.3057 295.072 84.3601C294.094 84.3601 293.17 84.1971 292.191 84.4688C292.083 85.2296 292.191 85.8818 292.354 86.5339C293.822 92.4575 297.68 96.2617 303.278 98.3268C308.712 100.338 314.256 100.392 319.744 98.7072C326.32 96.7508 330.45 92.4032 332.135 85.7731C332.679 83.6536 332.896 81.5341 332.896 79.306C332.896 67.024 332.896 54.7419 332.896 42.4599C333.005 42.1882 333.005 41.8621 333.005 41.536ZM312.245 71.1542C305.723 71.0999 301.756 66.1544 301.756 60.6112C301.811 54.6333 306.213 50.1769 312.082 50.1226C318.06 50.0682 322.516 54.5789 322.516 60.6656C322.57 66.5892 318.114 71.2085 312.245 71.1542Z" fill="white"/>
<path d="M466.259 44.9596C459.249 38.1665 448.379 38.1121 442.238 44.6879C442.13 44.7966 442.021 44.7966 441.804 44.6336C441.804 43.8184 441.749 42.8402 441.804 41.9163C441.858 40.9924 441.478 40.7751 440.608 40.7751C437.891 40.8294 435.119 40.7751 432.402 40.7751C430.228 40.7751 430.5 40.5577 430.5 42.6772C430.5 60.8285 430.5 79.0341 430.5 97.1854C430.5 97.4028 430.5 97.6202 430.5 97.8919C430.554 99.0332 430.554 99.0875 431.75 99.0875C434.684 99.0875 437.565 99.0875 440.499 99.0875C441.749 99.0875 441.804 99.0875 441.804 97.7289C441.804 91.6966 441.804 85.6099 441.804 79.5776V77.4581C443.651 79.4689 445.499 80.7732 447.673 81.6427C454.303 84.2513 462.129 82.3492 467.237 76.7516C470.444 73.2735 472.291 69.1433 472.889 64.5239C473.704 56.9699 471.802 50.2855 466.259 44.9596ZM460.988 65.3391C459.629 69.6867 455.933 72.404 451.368 72.404C446.151 72.404 442.075 69.0346 441.152 63.8175C440.771 61.698 440.825 59.6329 441.478 57.5678C442.891 52.8397 446.912 49.9051 451.695 50.1224C456.586 50.3398 460.39 53.7092 461.368 58.546C461.748 60.8828 461.694 63.111 460.988 65.3391Z" fill="white"/>
<path d="M183.911 49.1276C188.204 44.1821 193.421 43.0409 199.127 44.0735C205.649 45.2691 209.29 49.5623 210.866 55.812C211.355 57.7685 211.573 59.7249 211.573 61.7357C211.573 69.2353 211.573 76.6806 211.573 84.1802C211.573 84.3433 211.573 84.5063 211.573 84.6693C211.681 85.4845 211.355 85.8649 210.54 85.7563C210.377 85.7563 210.214 85.7563 210.051 85.7563C207.334 85.7563 204.562 85.7563 201.845 85.7563C200.323 85.7563 200.323 85.865 200.323 84.2889C200.323 82.5499 200.323 80.8652 200.323 79.1261C200.323 74.0177 200.323 68.9636 200.323 63.8551C200.323 62.6052 200.214 61.3552 199.943 60.1053C198.91 54.8882 194.236 52.5513 189.345 54.7251C187.389 55.5946 186.03 57.1163 185.161 59.0727C184.183 61.2466 183.911 63.5834 183.911 65.9202C183.911 71.7352 183.911 77.5501 183.911 83.4194C183.911 83.6911 183.911 84.0172 183.911 84.2889C183.911 85.7019 183.911 85.7019 182.552 85.7019C179.672 85.7019 176.846 85.7019 173.966 85.7019C173.911 85.7019 173.857 85.7019 173.803 85.7019C172.661 85.6476 172.661 85.6476 172.607 84.3976C172.607 84.1802 172.607 83.9629 172.607 83.6911C172.607 64.4529 172.607 45.2147 172.607 25.9221C172.607 25.6504 172.661 25.3244 172.607 25.0526C172.498 24.1288 172.933 23.9114 173.803 23.9114C176.737 23.9657 179.618 23.9114 182.552 23.9114C183.911 23.9114 183.965 23.9114 183.965 25.3244C183.965 32.4979 183.965 39.7258 183.965 46.8994C183.911 47.6059 183.911 48.1493 183.911 49.1276Z" fill="white"/>
<path d="M494.356 44.851C499.41 39.5795 505.442 38.6556 511.909 40.8838C517.452 42.7858 520.17 47.2422 521.365 52.7854C521.746 54.5244 521.8 56.3178 521.8 58.0569C521.8 65.4478 521.8 72.7844 521.8 80.1754C521.8 80.4471 521.8 80.7732 521.8 81.0449C521.8 81.5883 521.637 81.9144 521.039 81.9144C517.779 81.9144 514.518 81.9144 511.257 81.9144C510.768 81.9144 510.496 81.697 510.496 81.2079C510.496 80.8275 510.496 80.3927 510.496 80.0123C510.496 73.3822 510.496 66.7521 510.496 60.122C510.496 58.7633 510.442 57.4047 510.116 56.0461C509.464 53.3832 508.159 51.2094 505.388 50.4485C502.453 49.6333 499.682 50.2855 497.453 52.405C495.28 54.4157 494.519 57.133 494.301 59.9589C494.193 61.2089 494.247 62.4588 494.247 63.7088C494.247 69.252 494.247 74.7952 494.247 80.3384C494.247 81.8601 494.247 81.8601 492.78 81.8601C489.899 81.8601 487.073 81.8601 484.193 81.8601C482.943 81.8601 482.943 81.8601 482.889 80.5014C482.889 80.2841 482.889 80.0667 482.889 79.795C482.889 60.5567 482.889 41.3185 482.889 22.026C482.889 19.7978 482.671 20.1239 484.791 20.1239C487.345 20.1239 489.954 20.1239 492.508 20.1239C494.356 20.1239 494.193 20.0152 494.193 21.7543C494.193 28.8191 494.193 35.9383 494.193 43.0032C494.247 43.601 494.138 44.1988 494.356 44.851Z" fill="white"/>
<path d="M417.023 40.7208C413.871 40.7208 410.719 40.7751 407.566 40.7208C406.751 40.7208 406.588 41.0468 406.643 41.7533C406.697 42.7315 406.643 43.6554 406.643 44.9597C406.208 44.6336 406.099 44.5249 405.936 44.4162C402.784 41.1012 398.817 39.6882 394.361 39.8512C388.6 40.0143 383.872 42.5142 380.34 47.0248C375.72 52.8941 374.47 59.5785 376.101 66.7521C377.459 72.8388 380.774 77.6212 386.318 80.6645C392.622 84.1426 401.262 83.3818 406.045 78.0559C406.154 77.9472 406.317 77.8385 406.588 78.1103C406.588 78.9254 406.643 79.9037 406.588 80.8819C406.534 81.6971 406.914 81.9688 407.73 81.9144C410.447 81.8601 413.218 81.9144 415.936 81.9144C418.001 81.9144 417.892 82.2405 417.892 80.0124C417.892 67.5673 417.892 55.1222 417.892 42.6772C417.892 42.3511 417.892 41.9707 417.892 41.6446C418.001 40.9381 417.675 40.7208 417.023 40.7208ZM407.023 65.1218C405.61 69.7955 401.806 72.5127 396.861 72.404C392.187 72.2953 388.437 69.252 387.296 64.5783C386.698 62.1328 386.752 59.7416 387.513 57.2961C388.98 52.7311 392.893 49.9051 397.621 50.1225C402.349 50.2855 406.045 53.3288 407.186 58.0025C407.458 59.0351 407.621 60.122 407.566 61.2089C407.621 62.5675 407.403 63.8718 407.023 65.1218Z" fill="white"/>
<path d="M263.364 60.214C261.57 52.6057 257.114 47.2798 249.56 44.78C246.299 43.6931 242.984 43.4213 239.56 43.9104C231.572 44.9973 225.757 49.0732 222.55 56.5185C220.811 60.5944 220.431 64.8877 221.246 69.2897C222.496 76.1372 225.974 81.463 232.387 84.3976C240.43 88.0931 248.364 87.4953 255.864 82.7129C259.07 80.6478 261.407 77.7675 262.874 74.2894C263.092 73.746 263.472 73.2025 263.364 72.3873C259.722 72.3873 256.081 72.3873 252.44 72.3873C251.897 72.3873 251.625 72.7134 251.408 73.0938C250.756 74.1264 249.832 74.8872 248.799 75.485C246.517 76.735 244.071 77.1154 241.517 76.8436C236.245 76.3002 232.767 73.0938 232.169 68.0941C232.876 67.8223 233.528 67.931 234.126 67.931C241.789 67.931 249.451 67.931 257.114 67.931C259.07 67.931 261.027 67.931 262.929 67.931C264.124 67.931 264.124 67.8767 264.179 66.7354C264.124 64.5073 263.853 62.3335 263.364 60.214ZM232.604 60.3227C233.148 55.9207 237.441 52.7687 242.495 52.8774C247.06 52.9861 251.082 56.3555 251.408 60.3227H232.604Z" fill="white"/>
<path d="M162.933 75.6481C162.933 78.5827 162.933 81.6261 162.933 84.6151C162.933 85.4302 162.39 85.5389 161.846 85.6476C159.944 86.1367 157.988 86.2454 156.086 86.2454C153.314 86.2454 150.597 85.9193 148.097 84.7237C143.695 82.713 141.195 79.2892 140.326 74.5612C140.108 73.3112 140.054 72.0613 140.054 70.8114C140.054 65.866 140.054 60.8662 140.054 55.9208C140.054 54.5621 140.054 54.5078 138.641 54.5078C136.685 54.5078 134.783 54.4535 132.826 54.5078C132.011 54.5078 131.739 54.2904 131.739 53.4209C131.794 50.8123 131.794 48.1494 131.739 45.5408C131.739 44.78 132.011 44.5626 132.717 44.5626C134.783 44.617 136.848 44.5083 138.858 44.617C139.782 44.617 140.054 44.3452 140.054 43.4757C140 40.4867 140.054 37.5521 140.054 34.5631C140.054 33.2588 140.054 33.2045 141.358 33.2045C144.347 33.2045 147.282 33.2045 150.271 33.2045C151.086 33.2045 151.358 33.4218 151.358 34.2914C151.304 37.1717 151.358 39.9976 151.358 42.8779C151.358 44.8343 151.195 44.6713 153.26 44.6713C156.14 44.6713 158.966 44.6713 161.846 44.6713C162.662 44.6713 163.096 44.8343 163.042 45.8126C162.988 48.3668 162.988 50.9754 163.042 53.5296C163.042 54.5078 162.662 54.6708 161.846 54.6165C158.803 54.5621 155.814 54.6165 152.771 54.6165C151.467 54.6165 151.412 54.6165 151.412 55.9208C151.412 60.2684 151.412 64.616 151.412 68.9093C151.412 69.8332 151.521 70.757 151.684 71.6265C152.119 73.9634 153.477 75.3764 155.76 75.9198C157.879 76.4089 159.944 76.2459 162.01 75.7568C162.227 75.5937 162.499 75.4851 162.933 75.6481Z" fill="white"/>
<path d="M356.753 46.4271C357.405 46.0466 357.514 45.5032 357.786 45.1228C360.503 41.2643 364.905 39.5252 369.85 40.5034C370.394 40.6121 370.774 40.8295 370.774 41.536C370.774 45.0141 370.774 48.4922 370.774 52.0246C369.85 52.079 369.144 51.7529 368.383 51.5899C362.514 50.3399 358.112 53.3289 357.025 59.2525C356.808 60.3394 356.753 61.372 356.753 62.4589C356.753 68.2195 356.753 73.9801 356.753 79.7407C356.753 80.0668 356.699 80.4472 356.753 80.7732C356.862 81.6971 356.373 81.9145 355.558 81.9145C352.569 81.8601 349.634 81.9145 346.645 81.9145C345.449 81.9145 345.449 81.8602 345.449 80.6646C345.449 67.7847 345.449 54.8506 345.449 41.9707C345.449 41.1012 345.667 40.7752 346.591 40.7752C349.634 40.8295 352.623 40.8295 355.666 40.7752C356.59 40.7752 356.808 41.1556 356.808 41.9707C356.753 43.3294 356.753 44.7967 356.753 46.4271Z" fill="white"/>
<path d="M50.0276 100.055C43.2611 100.055 36.719 98.7404 30.5617 96.1107C24.5969 93.5773 19.2414 89.9855 14.6555 85.3997C10.0697 80.8138 6.44587 75.4583 3.94449 69.4935C1.3469 63.3042 0 56.7621 0 50.0276C0 43.2931 1.31483 36.719 3.94449 30.5617C6.47793 24.5969 10.0697 19.2414 14.6555 14.6555C19.2414 10.0697 24.5969 6.44587 30.5617 3.94449C36.7511 1.3469 43.2931 0 50.0276 0C56.7621 0 63.3362 1.31483 69.4935 3.94449C75.4583 6.47793 80.8138 10.0697 85.3997 14.6555C89.9855 19.2414 93.6094 24.5969 96.1107 30.5617C98.7083 36.7511 100.055 43.2931 100.055 50.0276C100.055 56.7621 98.7404 63.3362 96.1107 69.4935C93.5773 75.4583 89.9855 80.8138 85.3997 85.3997C80.8138 89.9855 75.4583 93.6094 69.4935 96.1107C63.3362 98.7083 56.7942 100.055 50.0276 100.055ZM50.0276 16.1628C31.3635 16.1628 16.1948 31.3314 16.1948 49.9955C16.1948 68.6597 31.3955 83.8604 50.0597 83.8604C68.7238 83.8604 83.9245 68.6597 83.9245 49.9955C83.8925 31.3314 68.6918 16.1628 50.0276 16.1628Z" fill="url(#paint0_linear_1002_518)"/>
<path d="M108.457 15.9382C112.814 15.9382 116.346 12.4062 116.346 8.04924C116.346 3.69229 112.814 0.160278 108.457 0.160278C104.1 0.160278 100.568 3.69229 100.568 8.04924C100.568 12.4062 104.1 15.9382 108.457 15.9382Z" fill="url(#paint1_linear_1002_518)"/>
<path d="M58.3335 149.955C56.2491 149.955 54.1966 149.153 52.6253 147.581C49.4504 144.407 49.4504 139.308 52.6253 136.133L86.2977 102.46C89.4725 99.2855 94.5715 99.2855 97.7463 102.46C100.921 105.635 100.921 110.734 97.7463 113.909L64.0739 147.581C62.4704 149.185 60.386 149.955 58.3335 149.955Z" fill="url(#paint2_linear_1002_518)"/>
<defs>
<linearGradient id="paint0_linear_1002_518" x1="19.0383" y1="11.718" x2="79.384" y2="86.3185" gradientUnits="userSpaceOnUse">
<stop stop-color="#00D1E6"/>
<stop offset="1" stop-color="#2B4DD4"/>
</linearGradient>
<linearGradient id="paint1_linear_1002_518" x1="74.8832" y1="-33.4558" x2="135.229" y2="41.1447" gradientUnits="userSpaceOnUse">
<stop stop-color="#00D1E6"/>
<stop offset="1" stop-color="#2B4DD4"/>
</linearGradient>
<linearGradient id="paint2_linear_1002_518" x1="-2.42339" y1="29.0788" x2="57.9222" y2="103.679" gradientUnits="userSpaceOnUse">
<stop stop-color="#00D1E6"/>
<stop offset="1" stop-color="#2B4DD4"/>
</linearGradient>
</defs>
</svg>
