<svg width="45" height="39" viewBox="0 0 45 39" fill="none" xmlns="http://www.w3.org/2000/svg">
<path d="M31.4765 19.0367C31.4765 17.4797 31.4765 15.9178 31.4765 14.3607C31.4765 14.1404 31.4765 13.9201 31.4765 13.7046C30.9868 14.1943 30.4972 14.6839 30.0076 15.1735C31.5303 15.1735 33.058 15.1735 34.5808 15.1735C37.0093 15.1735 39.4379 15.1735 41.8665 15.1735C42.4198 15.1735 42.978 15.1735 43.5313 15.1735C44.3245 15.1735 45.0002 14.5027 45.0002 13.7046C45.0002 11.7804 45.0002 9.86101 45.0002 7.93675C45.0002 7.66256 45.0002 7.38347 45.0002 7.10927C45.0002 6.31607 44.3294 5.64037 43.5313 5.64037C42.0085 5.64037 40.4808 5.64037 38.9581 5.64037C36.5295 5.64037 34.1009 5.64037 31.6723 5.64037C31.119 5.64037 30.5609 5.64037 30.0076 5.64037C30.4972 6.13001 30.9868 6.61964 31.4765 7.10927C31.4765 5.55224 31.4765 3.99031 31.4765 2.43327C31.4765 2.21294 31.4765 1.9926 31.4765 1.77717C31.4765 1.25815 31.1974 0.76852 30.7469 0.509014C30.3209 0.259301 29.6844 0.215234 29.2633 0.509014C27.8875 1.47849 26.5116 2.45286 25.1357 3.42233C22.9422 4.96958 20.7437 6.52171 18.5502 8.06896C18.0458 8.42639 17.5415 8.78382 17.0323 9.14125C16.5965 9.44972 16.3027 9.85612 16.3027 10.4094C16.3027 10.9627 16.5965 11.374 17.0323 11.6776C18.4082 12.647 19.784 13.6214 21.1599 14.5909C23.3535 16.1381 25.5519 17.6903 27.7455 19.2375C28.2498 19.5949 28.7541 19.9524 29.2633 20.3098C29.5571 20.5203 30.0565 20.5497 30.3944 20.4567C30.7371 20.3637 31.1044 20.0993 31.2708 19.781C31.6674 19.027 31.4177 18.2435 30.742 17.7735C29.3662 16.804 27.9903 15.8296 26.6144 14.8602C24.4209 13.3129 22.2224 11.7608 20.0288 10.2135C19.5245 9.85612 19.0202 9.49868 18.511 9.14125C18.511 9.98832 18.511 10.8305 18.511 11.6776C19.8869 10.7081 21.2627 9.73371 22.6386 8.76424C24.8322 7.21699 27.0306 5.66486 29.2242 4.11761C29.7285 3.76018 30.2328 3.40275 30.742 3.04532C30.0076 2.62423 29.2682 2.19825 28.5338 1.77717C28.5338 3.3342 28.5338 4.89613 28.5338 6.45317C28.5338 6.6735 28.5338 6.89383 28.5338 7.10927C28.5338 7.90248 29.2046 8.57817 30.0027 8.57817C31.5254 8.57817 33.0531 8.57817 34.5759 8.57817C37.0044 8.57817 39.433 8.57817 41.8616 8.57817C42.4149 8.57817 42.9731 8.57817 43.5264 8.57817C43.0367 8.08854 42.5471 7.59891 42.0575 7.10927C42.0575 9.03353 42.0575 10.9529 42.0575 12.8772C42.0575 13.1514 42.0575 13.4304 42.0575 13.7046C42.5471 13.215 43.0367 12.7254 43.5264 12.2357C42.0036 12.2357 40.4759 12.2357 38.9532 12.2357C36.5246 12.2357 34.096 12.2357 31.6674 12.2357C31.1141 12.2357 30.556 12.2357 30.0027 12.2357C29.2095 12.2357 28.5338 12.9065 28.5338 13.7046C28.5338 15.2617 28.5338 16.8236 28.5338 18.3806C28.5338 18.601 28.5338 18.8213 28.5338 19.0367C28.5338 19.8055 29.2095 20.5399 30.0027 20.5056C30.8057 20.4714 31.4765 19.8593 31.4765 19.0367Z" fill="url(#paint0_linear_591_5493)"/>
<path d="M16.6695 36.6489C16.6695 35.0918 16.6695 33.5299 16.6695 31.9729C16.6695 31.7525 16.6695 31.5322 16.6695 31.3168C16.6695 30.5236 15.9987 29.8479 15.2006 29.8479C13.6778 29.8479 12.1502 29.8479 10.6274 29.8479C8.19884 29.8479 5.77026 29.8479 3.34168 29.8479C2.78839 29.8479 2.23021 29.8479 1.67692 29.8479C2.16656 30.3375 2.65619 30.8271 3.14582 31.3168C3.14582 29.3925 3.14582 27.4731 3.14582 25.5489C3.14582 25.2747 3.14582 24.9956 3.14582 24.7214C2.65619 25.211 2.16656 25.7007 1.67692 26.1903C3.19968 26.1903 4.72734 26.1903 6.2501 26.1903C8.67868 26.1903 11.1073 26.1903 13.5358 26.1903C14.0891 26.1903 14.6473 26.1903 15.2006 26.1903C15.9938 26.1903 16.6695 25.5195 16.6695 24.7214C16.6695 23.1644 16.6695 21.6024 16.6695 20.0454C16.6695 19.8251 16.6695 19.6047 16.6695 19.3893C15.935 19.8104 15.1957 20.2364 14.4613 20.6574C15.8371 21.6269 17.213 22.6013 18.5889 23.5708C20.7824 25.118 22.9809 26.6701 25.1744 28.2174C25.6788 28.5748 26.1831 28.9322 26.6923 29.2897C26.6923 28.4426 26.6923 27.6004 26.6923 26.7534C25.3164 27.7228 23.9406 28.6972 22.5647 29.6667C20.3711 31.2139 18.1727 32.7661 15.9791 34.3133C15.4748 34.6707 14.9705 35.0282 14.4613 35.3856C14.143 35.6108 13.8933 35.8752 13.7856 36.2621C13.6876 36.6146 13.7317 37.0797 13.9324 37.3931C14.3339 38.0149 15.2691 38.392 15.9399 37.9219C17.3158 36.9524 18.6917 35.9781 20.0676 35.0086C22.2611 33.4614 24.4596 31.9092 26.6531 30.362C27.1574 30.0045 27.6618 29.6471 28.171 29.2897C28.6068 28.9812 28.9005 28.5748 28.9005 28.0215C28.9005 27.4682 28.6068 27.0569 28.171 26.7534C26.7951 25.7839 25.4193 24.8095 24.0434 23.8401C21.8498 22.2928 19.6514 20.7407 17.4578 19.1934C16.9535 18.836 16.4492 18.4786 15.9399 18.1211C15.5189 17.8274 14.8823 17.8714 14.4564 18.1211C14.0108 18.3806 13.7268 18.8703 13.7268 19.3893C13.7268 20.9463 13.7268 22.5083 13.7268 24.0653C13.7268 24.2856 13.7268 24.506 13.7268 24.7214C14.2164 24.2318 14.7061 23.7421 15.1957 23.2525C13.6729 23.2525 12.1453 23.2525 10.6225 23.2525C8.19394 23.2525 5.76536 23.2525 3.33678 23.2525C2.78349 23.2525 2.22531 23.2525 1.67203 23.2525C0.878819 23.2525 0.203125 23.9233 0.203125 24.7214C0.203125 26.6457 0.203125 28.565 0.203125 30.4893C0.203125 30.7635 0.203125 31.0426 0.203125 31.3168C0.203125 32.11 0.873923 32.7857 1.67203 32.7857C3.19479 32.7857 4.72244 32.7857 6.2452 32.7857C8.67378 32.7857 11.1024 32.7857 13.5309 32.7857C14.0842 32.7857 14.6424 32.7857 15.1957 32.7857C14.7061 32.296 14.2164 31.8064 13.7268 31.3168C13.7268 32.8738 13.7268 34.4357 13.7268 35.9928C13.7268 36.2131 13.7268 36.4334 13.7268 36.6489C13.7268 37.4176 14.4025 38.152 15.1957 38.1178C15.9938 38.0786 16.6695 37.4715 16.6695 36.6489Z" fill="url(#paint1_linear_591_5493)"/>
<defs>
<linearGradient id="paint0_linear_591_5493" x1="16.3027" y1="17.5006" x2="44.1585" y2="23.1574" gradientUnits="userSpaceOnUse">
<stop stop-color="#0072CE"/>
<stop offset="1" stop-color="#00D6BF"/>
</linearGradient>
<linearGradient id="paint1_linear_591_5493" x1="0.203125" y1="35.1245" x2="28.0604" y2="40.7778" gradientUnits="userSpaceOnUse">
<stop stop-color="#0072CE"/>
<stop offset="1" stop-color="#00D6BF"/>
</linearGradient>
</defs>
</svg>
