<svg width="239" height="24" viewBox="0 0 239 24" fill="none" xmlns="http://www.w3.org/2000/svg">
<path d="M23 18.6145V3.20842H29.659C30.7441 3.20842 31.6743 3.38764 32.4494 3.74608C33.2245 4.10452 33.8164 4.6215 34.2251 5.29702C34.6338 5.95876 34.8381 6.76525 34.8381 7.7165C34.8381 8.39202 34.6479 9.03997 34.2674 9.66035C33.8869 10.2669 33.2597 10.777 32.386 11.1906V9.61899C33.2174 9.93607 33.8587 10.3152 34.3097 10.7564C34.7606 11.1975 35.0707 11.68 35.2398 12.2039C35.4089 12.714 35.4935 13.2517 35.4935 13.8169C35.4935 15.3334 34.9791 16.5121 33.9503 17.353C32.9215 18.194 31.491 18.6145 29.659 18.6145H23ZM26.2766 15.8228H30.0395C30.7018 15.8228 31.2303 15.6367 31.6249 15.2644C32.0195 14.8922 32.2168 14.4097 32.2168 13.8169C32.2168 13.2103 32.0195 12.7209 31.6249 12.3487C31.2303 11.9764 30.7018 11.7903 30.0395 11.7903H26.2766V15.8228ZM26.2766 8.99861H29.8915C30.3988 8.99861 30.8005 8.86075 31.0964 8.58503C31.4065 8.29552 31.5615 7.9164 31.5615 7.44767C31.5615 6.97894 31.4065 6.60671 31.0964 6.33099C30.8005 6.04148 30.3988 5.89672 29.8915 5.89672H26.2766V8.99861Z" fill="white"/>
<path d="M40.9354 18.8626C40.1039 18.8626 39.3852 18.7317 38.7792 18.4697C38.1732 18.2078 37.7081 17.8356 37.384 17.353C37.0598 16.8567 36.8978 16.2708 36.8978 15.5953C36.8978 14.9611 37.0457 14.4028 37.3417 13.9203C37.6376 13.424 38.0886 13.0104 38.6946 12.6795C39.3147 12.3487 40.0828 12.1143 40.9988 11.9764L44.5291 11.4181V13.6928L41.5696 14.2098C41.1186 14.2925 40.7733 14.4373 40.5338 14.6441C40.2942 14.8371 40.1744 15.1197 40.1744 15.4919C40.1744 15.8366 40.3083 16.1054 40.576 16.2984C40.8438 16.4914 41.175 16.5879 41.5696 16.5879C42.091 16.5879 42.5491 16.4776 42.9437 16.257C43.3383 16.0365 43.6413 15.7401 43.8527 15.3678C44.0782 14.9818 44.1909 14.5613 44.1909 14.1064V11.1699C44.1909 10.7426 44.0147 10.3841 43.6624 10.0946C43.3242 9.80511 42.8591 9.66035 42.2672 9.66035C41.7035 9.66035 41.2032 9.812 40.7663 10.1153C40.3435 10.4186 40.0335 10.8184 39.8362 11.3147L37.2994 10.136C37.5249 9.50181 37.8843 8.95726 38.3775 8.50231C38.8708 8.04737 39.4627 7.69582 40.1533 7.44767C40.8438 7.19952 41.5978 7.07544 42.4152 7.07544C43.3876 7.07544 44.2473 7.24777 44.9942 7.59242C45.7411 7.93708 46.319 8.4196 46.7276 9.03997C47.1504 9.64657 47.3618 10.3566 47.3618 11.1699V18.6145H44.4023V16.7947L45.121 16.6706C44.7828 17.1669 44.4093 17.5805 44.0006 17.9114C43.592 18.2285 43.1339 18.4628 42.6266 18.6145C42.1192 18.7799 41.5555 18.8626 40.9354 18.8626Z" fill="white"/>
<path d="M55.3527 18.8626C54.1971 18.8626 53.1542 18.6076 52.2241 18.0975C51.308 17.5736 50.5752 16.8636 50.0256 15.9675C49.49 15.0714 49.2223 14.065 49.2223 12.9484C49.2223 11.8317 49.49 10.8322 50.0256 9.94986C50.5611 9.05376 51.294 8.35066 52.2241 7.84058C53.1542 7.33049 54.1971 7.07544 55.3527 7.07544C56.2124 7.07544 57.0087 7.2202 57.7415 7.50971C58.4744 7.79922 59.1015 8.20591 59.6229 8.72978C60.1444 9.23987 60.5178 9.84647 60.7433 10.5496L57.9952 11.7076C57.7979 11.1424 57.4597 10.6943 56.9805 10.3634C56.5154 10.0326 55.9728 9.86714 55.3527 9.86714C54.8031 9.86714 54.3099 9.99811 53.873 10.2601C53.4502 10.522 53.112 10.8873 52.8583 11.3561C52.6187 11.8248 52.4989 12.3624 52.4989 12.969C52.4989 13.5756 52.6187 14.1133 52.8583 14.582C53.112 15.0508 53.4502 15.4161 53.873 15.678C54.3099 15.94 54.8031 16.0709 55.3527 16.0709C55.9869 16.0709 56.5366 15.9055 57.0016 15.5746C57.4667 15.2438 57.7979 14.7957 57.9952 14.2305L60.7433 15.4092C60.5319 16.0709 60.1655 16.6637 59.6441 17.1876C59.1226 17.7115 58.4955 18.1251 57.7627 18.4284C57.0298 18.7179 56.2265 18.8626 55.3527 18.8626Z" fill="white"/>
<path d="M62.6105 18.6145V2.96027H65.7815V12.9897L64.5977 12.6175L69.6923 7.32359H73.6031L69.4175 11.873L73.582 18.6145H69.9882L66.5002 12.8863L68.3394 12.4314L64.8091 16.195L65.7815 14.3959V18.6145H62.6105Z" fill="white"/>
<path d="M74.997 22.7503V7.32359H77.9565V9.47424L77.6817 8.85386C78.0622 8.28863 78.5766 7.85436 79.2249 7.55106C79.8873 7.23398 80.6413 7.07544 81.4868 7.07544C82.5861 7.07544 83.5796 7.33738 84.4675 7.86125C85.3554 8.38513 86.06 9.09512 86.5815 9.99122C87.1029 10.8735 87.3636 11.8661 87.3636 12.969C87.3636 14.0581 87.1029 15.0508 86.5815 15.9469C86.0741 16.843 85.3765 17.5529 84.4887 18.0768C83.6008 18.6007 82.5931 18.8626 81.4657 18.8626C80.6765 18.8626 79.9436 18.7248 79.2672 18.449C78.6048 18.1595 78.0693 17.7391 77.6606 17.1876L78.1679 16.5466V22.7503H74.997ZM81.0852 16.0709C81.6771 16.0709 82.1985 15.94 82.6495 15.678C83.1005 15.4161 83.4528 15.0508 83.7065 14.582C83.9602 14.1133 84.087 13.5756 84.087 12.969C84.087 12.3624 83.9602 11.8317 83.7065 11.3767C83.4528 10.908 83.1005 10.5427 82.6495 10.2807C82.1985 10.005 81.6771 9.86714 81.0852 9.86714C80.5215 9.86714 80.0141 9.99811 79.5631 10.2601C79.1263 10.522 78.781 10.8873 78.5273 11.3561C78.2877 11.8248 78.1679 12.3624 78.1679 12.969C78.1679 13.5756 78.2877 14.1133 78.5273 14.582C78.781 15.0508 79.1263 15.4161 79.5631 15.678C80.0141 15.94 80.5215 16.0709 81.0852 16.0709Z" fill="white"/>
<path d="M92.7934 18.8626C91.9619 18.8626 91.2431 18.7317 90.6371 18.4697C90.0311 18.2078 89.566 17.8356 89.2419 17.353C88.9178 16.8567 88.7557 16.2708 88.7557 15.5953C88.7557 14.9611 88.9037 14.4028 89.1996 13.9203C89.4956 13.424 89.9466 13.0104 90.5526 12.6795C91.1727 12.3487 91.9407 12.1143 92.8568 11.9764L96.3871 11.4181V13.6928L93.4275 14.2098C92.9766 14.2925 92.6313 14.4373 92.3917 14.6441C92.1521 14.8371 92.0323 15.1197 92.0323 15.4919C92.0323 15.8366 92.1662 16.1054 92.434 16.2984C92.7017 16.4914 93.0329 16.5879 93.4275 16.5879C93.949 16.5879 94.407 16.4776 94.8016 16.257C95.1962 16.0365 95.4992 15.7401 95.7106 15.3678C95.9361 14.9818 96.0488 14.5613 96.0488 14.1064V11.1699C96.0488 10.7426 95.8727 10.3841 95.5204 10.0946C95.1821 9.80511 94.717 9.66035 94.1251 9.66035C93.5614 9.66035 93.0611 9.812 92.6242 10.1153C92.2014 10.4186 91.8914 10.8184 91.6941 11.3147L89.1573 10.136C89.3828 9.50181 89.7422 8.95726 90.2355 8.50231C90.7287 8.04737 91.3206 7.69582 92.0112 7.44767C92.7017 7.19952 93.4557 7.07544 94.2731 7.07544C95.2455 7.07544 96.1052 7.24777 96.8521 7.59242C97.5991 7.93708 98.1769 8.4196 98.5856 9.03997C99.0084 9.64657 99.2198 10.3566 99.2198 11.1699V18.6145H96.2602V16.7947L96.979 16.6706C96.6407 17.1669 96.2673 17.5805 95.8586 17.9114C95.4499 18.2285 94.9919 18.4628 94.4845 18.6145C93.9772 18.7799 93.4134 18.8626 92.7934 18.8626Z" fill="white"/>
<path d="M107.211 18.8626C106.055 18.8626 105.012 18.6076 104.082 18.0975C103.166 17.5736 102.433 16.8636 101.884 15.9675C101.348 15.0714 101.08 14.065 101.08 12.9484C101.08 11.8317 101.348 10.8322 101.884 9.94986C102.419 9.05376 103.152 8.35066 104.082 7.84058C105.012 7.33049 106.055 7.07544 107.211 7.07544C108.07 7.07544 108.867 7.2202 109.599 7.50971C110.332 7.79922 110.959 8.20591 111.481 8.72978C112.002 9.23987 112.376 9.84647 112.601 10.5496L109.853 11.7076C109.656 11.1424 109.318 10.6943 108.838 10.3634C108.373 10.0326 107.831 9.86714 107.211 9.86714C106.661 9.86714 106.168 9.99811 105.731 10.2601C105.308 10.522 104.97 10.8873 104.716 11.3561C104.477 11.8248 104.357 12.3624 104.357 12.969C104.357 13.5756 104.477 14.1133 104.716 14.582C104.97 15.0508 105.308 15.4161 105.731 15.678C106.168 15.94 106.661 16.0709 107.211 16.0709C107.845 16.0709 108.394 15.9055 108.86 15.5746C109.325 15.2438 109.656 14.7957 109.853 14.2305L112.601 15.4092C112.39 16.0709 112.023 16.6637 111.502 17.1876C110.981 17.7115 110.353 18.1251 109.621 18.4284C108.888 18.7179 108.084 18.8626 107.211 18.8626Z" fill="white"/>
<path d="M114.468 18.6145V2.96027H117.639V12.9897L116.456 12.6175L121.55 7.32359H125.461L121.275 11.873L125.44 18.6145H121.846L118.358 12.8863L120.197 12.4314L116.667 16.195L117.639 14.3959V18.6145H114.468Z" fill="white"/>
<path d="M166.385 18.8626C165.229 18.8626 164.186 18.6076 163.256 18.0975C162.34 17.5736 161.607 16.8636 161.058 15.9675C160.522 15.0714 160.254 14.065 160.254 12.9484C160.254 11.8317 160.522 10.8322 161.058 9.94986C161.593 9.05376 162.326 8.35066 163.256 7.84058C164.186 7.33049 165.229 7.07544 166.385 7.07544C167.244 7.07544 168.041 7.2202 168.774 7.50971C169.506 7.79922 170.134 8.20591 170.655 8.72978C171.176 9.23987 171.55 9.84646 171.775 10.5496L169.027 11.7076C168.83 11.1424 168.492 10.6943 168.013 10.3634C167.547 10.0326 167.005 9.86714 166.385 9.86714C165.835 9.86714 165.342 9.99811 164.905 10.2601C164.482 10.522 164.144 10.8873 163.89 11.3561C163.651 11.8248 163.531 12.3624 163.531 12.969C163.531 13.5756 163.651 14.1133 163.89 14.582C164.144 15.0508 164.482 15.4161 164.905 15.678C165.342 15.94 165.835 16.0709 166.385 16.0709C167.019 16.0709 167.569 15.9055 168.034 15.5746C168.499 15.2438 168.83 14.7957 169.027 14.2305L171.775 15.4092C171.564 16.0709 171.198 16.6637 170.676 17.1876C170.155 17.7115 169.528 18.1251 168.795 18.4284C168.062 18.7179 167.259 18.8626 166.385 18.8626Z" fill="white"/>
<path d="M189.493 18.8626C188.661 18.8626 187.942 18.7317 187.336 18.4697C186.73 18.2078 186.265 17.8356 185.941 17.353C185.617 16.8567 185.455 16.2708 185.455 15.5953C185.455 14.9611 185.603 14.4028 185.899 13.9203C186.195 13.424 186.646 13.0104 187.252 12.6795C187.872 12.3487 188.64 12.1143 189.556 11.9764L193.086 11.4181V13.6928L190.127 14.2098C189.676 14.2925 189.33 14.4373 189.091 14.6441C188.851 14.8371 188.731 15.1197 188.731 15.4919C188.731 15.8366 188.865 16.1054 189.133 16.2984C189.401 16.4914 189.732 16.5879 190.127 16.5879C190.648 16.5879 191.106 16.4776 191.501 16.257C191.895 16.0365 192.198 15.7401 192.41 15.3678C192.635 14.9818 192.748 14.5613 192.748 14.1064V11.1699C192.748 10.7426 192.572 10.3841 192.22 10.0946C191.881 9.80511 191.416 9.66035 190.824 9.66035C190.261 9.66035 189.76 9.812 189.323 10.1153C188.901 10.4186 188.591 10.8184 188.393 11.3147L185.857 10.136C186.082 9.50181 186.441 8.95726 186.935 8.50231C187.428 8.04737 188.02 7.69582 188.71 7.44767C189.401 7.19952 190.155 7.07544 190.972 7.07544C191.945 7.07544 192.804 7.24777 193.551 7.59242C194.298 7.93708 194.876 8.4196 195.285 9.03997C195.708 9.64657 195.919 10.3566 195.919 11.1699V18.6145H192.959V16.7947L193.678 16.6706C193.34 17.1669 192.966 17.5805 192.558 17.9114C192.149 18.2285 191.691 18.4628 191.184 18.6145C190.676 18.7799 190.113 18.8626 189.493 18.8626Z" fill="white"/>
<path d="M237.851 16.5181C237.296 17.2262 236.596 17.7728 235.749 18.1576C234.903 18.5425 234.025 18.7349 233.117 18.7349C232.255 18.7349 231.439 18.5964 230.669 18.3193C229.915 18.0422 229.253 17.6496 228.683 17.1416C228.129 16.6182 227.69 15.9947 227.367 15.2711C227.043 14.5475 226.882 13.7393 226.882 12.8464C226.882 11.9535 227.043 11.1453 227.367 10.4217C227.69 9.69815 228.129 9.08235 228.683 8.57432C229.253 8.05089 229.915 7.65063 230.669 7.37352C231.439 7.09641 232.255 6.95786 233.117 6.95786C233.917 6.95786 234.641 7.09641 235.287 7.37352C235.949 7.65063 236.504 8.05089 236.95 8.57432C237.412 9.08235 237.766 9.69815 238.012 10.4217C238.259 11.1453 238.382 11.9535 238.382 12.8464V13.9317H230.346C230.484 14.5937 230.784 15.1248 231.246 15.5251C231.708 15.91 232.278 16.1024 232.955 16.1024C233.525 16.1024 234.002 15.9793 234.387 15.7329C234.787 15.4712 235.133 15.1402 235.426 14.74L237.851 16.5181ZM234.918 11.5763C234.933 10.9913 234.741 10.491 234.341 10.0753C233.94 9.65966 233.425 9.45183 232.793 9.45183C232.409 9.45183 232.07 9.51341 231.777 9.63657C231.485 9.75973 231.231 9.92137 231.015 10.1215C230.815 10.3062 230.654 10.5295 230.53 10.7912C230.423 11.0375 230.361 11.2992 230.346 11.5763H234.918Z" fill="white"/>
<path d="M224.229 17.5111C224.229 19.6355 223.69 21.2443 222.613 22.3374C221.55 23.4458 219.926 24 217.74 24C216.739 24 215.754 23.8845 214.784 23.6536C213.814 23.4381 212.921 23.007 212.106 22.3604L214.022 19.497C214.561 19.9434 215.123 20.2975 215.708 20.5592C216.308 20.821 216.963 20.9518 217.671 20.9518C218.733 20.9518 219.51 20.6901 220.003 20.1667C220.511 19.6586 220.765 19.0044 220.765 18.2038V17.1185H220.719C220.319 17.6573 219.818 18.0422 219.218 18.2731C218.633 18.4886 218.079 18.5964 217.555 18.5964C216.724 18.5964 215.97 18.4578 215.292 18.1807C214.615 17.8882 214.03 17.488 213.537 16.9799C213.06 16.4565 212.691 15.8407 212.429 15.1325C212.167 14.4244 212.036 13.6469 212.036 12.8002C212.036 12.0613 212.152 11.3377 212.383 10.6295C212.629 9.92137 212.968 9.29788 213.399 8.75906C213.845 8.22024 214.384 7.78918 215.015 7.46589C215.646 7.1272 216.362 6.95786 217.163 6.95786C217.655 6.95786 218.102 7.01174 218.502 7.1195C218.918 7.22727 219.287 7.36582 219.611 7.53516C219.934 7.70451 220.211 7.89694 220.442 8.11247C220.673 8.31261 220.858 8.51274 220.996 8.71287H221.042V7.23496H224.229V17.5111ZM215.5 12.7771C215.5 13.1466 215.569 13.5007 215.708 13.8394C215.846 14.1627 216.039 14.4552 216.285 14.7169C216.547 14.9632 216.839 15.1633 217.163 15.3173C217.501 15.4712 217.871 15.5482 218.271 15.5482C218.656 15.5482 219.018 15.4712 219.357 15.3173C219.695 15.1633 219.988 14.9632 220.234 14.7169C220.496 14.4552 220.696 14.1627 220.834 13.8394C220.973 13.5007 221.042 13.1466 221.042 12.7771C221.042 12.4076 220.973 12.0613 220.834 11.738C220.696 11.3993 220.496 11.1068 220.234 10.8605C219.988 10.5987 219.695 10.3909 219.357 10.237C219.018 10.083 218.656 10.006 218.271 10.006C217.871 10.006 217.501 10.083 217.163 10.237C216.839 10.3909 216.547 10.5987 216.285 10.8605C216.039 11.1068 215.846 11.3993 215.708 11.738C215.569 12.0613 215.5 12.4076 215.5 12.7771Z" fill="white"/>
<path d="M198.961 7.23496H202.286V8.75906H202.332C202.44 8.54353 202.594 8.328 202.794 8.11247C202.994 7.89694 203.233 7.70451 203.51 7.53516C203.787 7.36582 204.103 7.22727 204.457 7.1195C204.811 7.01174 205.196 6.95786 205.612 6.95786C206.489 6.95786 207.197 7.09641 207.736 7.37352C208.275 7.63523 208.691 8.00471 208.983 8.48195C209.291 8.95919 209.499 9.5211 209.607 10.1677C209.714 10.8143 209.768 11.5147 209.768 12.2691V18.4578H206.304V12.9619C206.304 12.6386 206.289 12.3076 206.258 11.9689C206.243 11.6148 206.173 11.2915 206.05 10.999C205.943 10.7065 205.765 10.4679 205.519 10.2832C205.288 10.0984 204.95 10.006 204.503 10.006C204.057 10.006 203.695 10.0907 203.418 10.2601C203.141 10.414 202.925 10.6295 202.771 10.9066C202.633 11.1684 202.54 11.4686 202.494 11.8072C202.448 12.1459 202.425 12.5 202.425 12.8695V18.4578H198.961V7.23496Z" fill="white"/>
<path d="M176.3 1V8.75903H176.346C176.423 8.5435 176.554 8.32797 176.739 8.11244C176.923 7.89691 177.147 7.70448 177.408 7.53513C177.67 7.36579 177.978 7.22723 178.332 7.11947C178.686 7.01171 179.071 6.95782 179.487 6.95782C180.364 6.95782 181.072 7.09638 181.611 7.37349C182.15 7.6352 182.566 8.00468 182.858 8.48192C183.166 8.95916 183.374 9.52107 183.482 10.1677C183.589 10.8142 183.643 11.5147 183.643 12.2691V18.4578H180.179V12.9618C180.179 12.6385 180.164 12.3075 180.133 11.9689C180.118 11.6148 180.048 11.2915 179.925 10.999C179.818 10.7065 179.64 10.4679 179.394 10.2831C179.163 10.0984 178.825 10.006 178.378 10.006C177.932 10.006 177.57 10.0907 177.293 10.26C177.016 10.414 176.8 10.6295 176.646 10.9066C176.508 11.1683 176.415 11.4685 176.369 11.8072C176.323 12.1459 176.3 12.5 176.3 12.8695V18.4578H172.836V1H176.3Z" fill="white"/>
<path d="M151.427 12.4538L147.686 7.23495H151.774L153.76 10.2831L155.676 7.23495H159.533L155.884 12.4538L160.202 18.4578H156.115L153.667 14.7169L151.035 18.4578H146.994L151.427 12.4538Z" fill="white"/>
<path d="M134.203 2.10846H145.311V5.43376H137.806V8.48194H144.895V11.8072H137.806V15.1325H145.726V18.4578H134.203V2.10846Z" fill="white"/>
<g clip-path="url(#clip0_3714_276)">
<path fill-rule="evenodd" clip-rule="evenodd" d="M8.58639 1.65119C9.34967 1.65119 10.0656 1.75351 10.7285 1.94328C10.0795 0.430722 8.73202 0 7.23237 0C5.72978 0 4.37994 0.432415 3.73242 1.95219C4.39044 1.75575 5.10331 1.65119 5.86399 1.65119H8.58639ZM5.6894 3.16974C2.06503 3.16974 0 6.021 0 9.53821V13.1512C0 13.503 0.293813 13.7812 0.65625 13.7812H13.7812C14.1437 13.7812 14.4375 13.503 14.4375 13.1512V9.53821C14.4375 6.021 12.0362 3.16974 8.4118 3.16974H5.6894ZM7.21362 9.56946C8.48215 9.56946 9.5105 8.54111 9.5105 7.27258C9.5105 6.00405 8.48215 4.97571 7.21362 4.97571C5.94509 4.97571 4.91675 6.00405 4.91675 7.27258C4.91675 8.54111 5.94509 9.56946 7.21362 9.56946ZM0 15.9049C0 15.5532 0.293813 15.2681 0.65625 15.2681H13.7812C14.1437 15.2681 14.4375 15.5532 14.4375 15.9049V19.726C14.4375 20.4294 13.8499 20.9997 13.125 20.9997H1.3125C0.587626 20.9997 0 20.4294 0 19.726V15.9049Z" fill="#E33E3F"/>
</g>
<defs>
<clipPath id="clip0_3714_276">
<rect width="14.4375" height="21" fill="white"/>
</clipPath>
</defs>
</svg>
