<svg width="70" height="62" viewBox="0 0 70 62" fill="none" xmlns="http://www.w3.org/2000/svg">
<g clip-path="url(#clip0_1066_423)">
<path d="M0.00341797 0.00338745V62.0034H35.975C59.7041 62.0034 69.9933 48.6508 69.9933 30.9424C69.9933 13.3051 59.7041 0.00338745 35.975 0.00338745H0.00341797Z" fill="white"/>
<path d="M3.88965 3.91187H35.9783C57.7576 3.91187 66.107 15.8644 66.107 30.939C66.107 49.0169 54.4482 58.0881 35.9783 58.0881H3.88965V3.91187ZM7.00001 7.03729V54.9627H35.9783C53.4733 54.9627 62.9933 46.7695 62.9933 30.939C62.9933 14.6678 52.6737 7.03729 35.9783 7.03729H7.00001Z" fill="black"/>
<path d="M10.8896 34.4644H20.1668V51.0542H10.8896V34.4644Z" fill="black"/>
<path d="M15.5246 31.8983C18.7087 31.8983 21.2899 29.3046 21.2899 26.1051C21.2899 22.9056 18.7087 20.3119 15.5246 20.3119C12.3405 20.3119 9.75928 22.9056 9.75928 26.1051C9.75928 29.3046 12.3405 31.8983 15.5246 31.8983Z" fill="black"/>
<path d="M39.6181 28.8169V31.5017H33.0094V20.722H39.4089V23.4068H35.6812V24.6542H39.2065V27.339H35.6812V28.8136L39.6181 28.8169ZM40.7752 31.5051L44.0104 20.7186H47.8123L51.0475 31.5051H48.2644L47.6571 29.4203H44.1622L43.555 31.5051H40.7752ZM44.9448 26.7356H46.8779L45.9906 23.6881H45.8287L44.9448 26.7356ZM52.3901 20.7186H55.0653V28.8169H59.0224C57.9362 14.1254 46.4359 10.9492 35.9815 10.9492H24.8354V20.7254H26.4851C29.4909 20.7254 31.3598 22.7729 31.3598 26.0712C31.3598 29.4746 29.5381 31.5051 26.4851 31.5051H24.8354V51.0644H35.9781C52.9704 51.0644 58.8875 43.1356 59.0967 31.5051H52.3901V20.7186ZM24.8354 23.4102V28.8169H26.4851C27.6287 28.8169 28.688 28.4847 28.688 26.0712C28.688 23.7153 27.5106 23.4102 26.4851 23.4102H24.8354Z" fill="#D50072"/>
</g>
<defs>
<clipPath id="clip0_1066_423">
<rect width="70" height="62" fill="white"/>
</clipPath>
</defs>
</svg>
