<svg width="175" height="175" viewBox="0 0 175 175" fill="none" xmlns="http://www.w3.org/2000/svg">
<g clip-path="url(#clip0_1066_447)">
<mask id="mask0_1066_447" style="mask-type:luminance" maskUnits="userSpaceOnUse" x="-1" y="0" width="68" height="68">
<path d="M67 0H-0.000488281V67.0016H67V0Z" fill="white"/>
</mask>
<g mask="url(#mask0_1066_447)">
<path d="M6.53435 1.14155H60.4655C61.8959 1.14155 63.2678 1.7098 64.2793 2.7213C65.2908 3.7328 65.8591 5.10468 65.8591 6.53516V60.467C65.8591 61.8974 65.2908 63.2692 64.2794 64.2806C63.268 65.2921 61.8962 65.8603 60.4658 65.8603H6.53357C5.1034 65.8603 3.73181 65.2921 2.72053 64.2808C1.70925 63.2696 1.14111 61.898 1.14111 60.4678V6.53478C1.14111 5.82653 1.28061 5.12521 1.55165 4.47088C1.82268 3.81654 2.21995 3.22199 2.72075 2.72119C3.22156 2.22038 3.81611 1.82312 4.47045 1.55208C5.12478 1.28105 5.8261 1.14155 6.53435 1.14155Z" fill="#FDB913"/>
<path d="M60.4661 1.14147C61.8963 1.1419 63.2678 1.71033 64.2791 2.72177C65.2903 3.7332 65.8584 5.10484 65.8585 6.53508V60.4669C65.8585 61.8972 65.2903 63.2688 64.2791 64.2802C63.2678 65.2916 61.8963 65.8599 60.4661 65.8602H6.5342C5.8259 65.8603 5.12452 65.721 4.47011 65.45C3.8157 65.179 3.22109 64.7817 2.72024 64.2809C2.2194 63.7801 1.82215 63.1855 1.55117 62.531C1.2802 61.8766 1.14081 61.1752 1.14097 60.4669V6.53508C1.14083 5.82677 1.28023 5.12538 1.55122 4.47095C1.8222 3.81653 2.21945 3.22191 2.72028 2.72104C3.22111 2.22017 3.8157 1.82288 4.47011 1.55185C5.12451 1.28083 5.82589 1.14138 6.5342 1.14147H60.4661ZM60.4661 0H6.5342C4.8016 0.00187675 3.14051 0.691007 1.91541 1.91618C0.690317 3.14135 0.00128552 4.80248 -0.000488281 6.53508V60.4669C0.00142891 62.1995 0.690519 63.8605 1.9156 65.0856C3.14067 66.3106 4.80168 66.9997 6.5342 67.0016H60.4661C62.1985 66.9996 63.8594 66.3105 65.0843 65.0854C66.3092 63.8603 66.9982 62.1994 67 60.4669V6.53508C66.9983 4.80258 66.3094 3.1415 65.0845 1.91633C63.8595 0.691155 62.1986 0.00197055 60.4661 0Z" fill="white"/>
<path d="M37.2764 34.1995L37.271 22.6122L40.2956 21.8944V23.4134C40.2956 23.4134 41.0791 21.4158 42.8972 20.9521C43.1687 20.8646 43.4576 20.8452 43.7384 20.8956V23.8521C43.1939 23.8592 42.6558 23.9712 42.1537 24.182C41.036 24.6233 40.4736 25.5864 40.4736 27.0566L40.4755 33.4548L37.2764 34.1995Z" fill="#231F20"/>
<path d="M21.3322 37.9675C21.3322 37.9675 20.8405 37.2301 20.8405 34.623V28.8534L19.2842 29.2237V26.8469L20.8439 26.4786V23.8877L24.06 23.128V25.7189L26.3325 25.1791V27.5532L24.06 28.0926C24.06 28.0926 24.0565 32.8195 24.06 33.9675C24.06 36.6388 24.7689 37.1516 24.7689 37.1516L21.3322 37.9675Z" fill="#231F20"/>
<path d="M26.6689 31.0741C26.6689 29.0141 26.9623 27.5113 27.592 26.3579C28.3414 24.9892 29.5701 24.0973 31.3601 23.6897C34.8883 22.8874 36.1617 24.9757 36.1125 27.7762C36.0936 28.7777 36.0982 29.2656 36.0982 29.2656L29.8823 30.7265V30.8269C29.8823 32.7834 30.2925 33.7119 31.5324 33.4489C32.6035 33.2228 32.9015 32.5519 32.986 31.7223C32.9999 31.5885 33.0064 31.2482 33.0064 31.2482L35.9183 30.5504C35.9183 30.5504 35.9252 30.7888 35.921 31.0564C35.8956 32.1683 35.5723 34.9264 31.5251 35.8833C27.6912 36.7933 26.6689 34.452 26.6689 31.0741ZM31.4893 25.8481C30.4594 26.0818 29.9192 27.0922 29.8957 28.7662L33.0226 28.0215C33.0279 27.9457 33.0287 27.7789 33.0279 27.5174C33.0226 26.2537 32.6319 25.5867 31.4893 25.8481Z" fill="#231F20"/>
<path d="M54.6234 24.298C54.5031 20.769 55.4185 17.9682 59.3557 17.0762C61.8651 16.5061 62.8182 17.1589 63.3007 17.7898C63.7648 18.3919 63.9439 19.2039 63.9439 20.3411L63.9466 20.5499L60.8663 21.2819C60.8663 21.2819 60.864 20.8666 60.864 20.8532C60.8663 19.5045 60.4914 18.9916 59.5118 19.2369C58.3469 19.5295 57.8763 20.6352 57.8763 22.8336C57.8763 23.614 57.8798 23.754 57.8798 23.8593C57.8798 26.0934 58.1851 27.1161 59.5276 26.835C60.6921 26.5944 60.8517 25.5717 60.8705 24.6751C60.8728 24.5344 60.8786 24.0838 60.8786 24.0838L63.9543 23.3572C63.9543 23.3572 63.9574 23.5844 63.9574 23.837C63.9497 26.7666 62.4057 28.6128 59.513 29.286C55.5277 30.2202 54.7472 27.9173 54.6234 24.298Z" fill="#231F20"/>
<path d="M43.9756 29.2387C43.9756 26.5544 45.548 25.7055 47.9148 24.7263C50.0432 23.8458 50.0893 23.4087 50.0981 22.6436C50.1101 21.9997 49.8113 21.4487 48.7518 21.719C48.3984 21.7902 48.0795 21.9786 47.8467 22.2538C47.6139 22.529 47.4809 22.8747 47.4692 23.2349C47.4518 23.4327 47.4452 23.6312 47.4492 23.8297L44.465 24.5344C44.4449 23.9397 44.5144 23.3453 44.6711 22.7713C45.1482 21.1661 46.5638 20.0862 49.0074 19.5206C52.1823 18.789 53.2407 20.1823 53.2446 22.3495V27.4817C53.2446 29.9638 53.7052 30.3275 53.7052 30.3275L50.7756 31.0207C50.614 30.6822 50.4826 30.33 50.383 29.9684C50.383 29.9684 49.7414 31.5847 47.5292 32.1045C45.2059 32.6523 43.9756 31.2125 43.9756 29.2387ZM50.0778 25.5732C49.584 25.9194 49.0627 26.2247 48.5192 26.4859C47.5426 26.9631 47.1013 27.5517 47.1013 28.4582C47.1013 29.2433 47.5876 29.7589 48.4715 29.5405C49.4196 29.3013 50.0778 28.4167 50.0778 27.1876V25.5732Z" fill="#231F20"/>
<path d="M4.51652 46.0902C4.18216 46.0897 3.85409 45.9992 3.56686 45.828C3.27964 45.6569 3.04387 45.4114 2.88438 45.1175C2.72489 44.8237 2.64758 44.4922 2.66059 44.1581C2.6736 43.824 2.77644 43.4996 2.95829 43.219L2.97906 43.1921L3.01404 43.1829L7.38844 42.1502V45.4723L7.32039 45.4881C6.3281 45.7269 5.14204 45.9987 4.8979 46.0506C4.77251 46.0771 4.64468 46.0904 4.51652 46.0902Z" fill="#231F20"/>
<path d="M4.51652 50.34C4.02429 50.3401 3.55215 50.1448 3.20387 49.7969C2.85559 49.4491 2.65968 48.9772 2.65919 48.485C2.65818 48.1263 2.76216 47.7752 2.9583 47.475L2.97906 47.4438L3.01404 47.435L7.38845 46.4027V49.7248L7.3204 49.7425C6.3281 49.9805 5.14204 50.2554 4.89791 50.3042C4.77224 50.3285 4.64451 50.3405 4.51652 50.34Z" fill="#231F20"/>
<path d="M4.51653 54.598C4.02415 54.5977 3.55202 54.402 3.20379 54.0539C2.85556 53.7058 2.65969 53.2338 2.65919 52.7414C2.6578 52.3827 2.76181 52.0315 2.9583 51.7314L2.97907 51.698L7.38845 50.6588V53.9809L7.3204 53.9986C6.27236 54.2508 5.1086 54.5138 4.89791 54.5603C4.77234 54.5854 4.64459 54.598 4.51653 54.598Z" fill="#231F20"/>
<path d="M4.00018 42.0193L3.99902 23.431L7.38805 22.6302V41.2181L4.00018 42.0193Z" fill="#231F20"/>
<path d="M12.4416 40.4379C12.4416 39.8834 12.2213 39.3516 11.8291 38.9594C11.437 38.5673 10.9052 38.347 10.3507 38.347C9.79612 38.347 9.26429 38.5673 8.87217 38.9594C8.48006 39.3516 8.25977 39.8834 8.25977 40.4379L8.26323 57.8114C8.26509 59.3117 8.86164 60.75 9.92216 61.8113C10.9827 62.8725 12.4207 63.4701 13.921 63.4729C15.5038 63.4729 19.8397 63.4652 19.8397 63.4652L19.8417 56.2174C19.8428 52.2574 19.8436 48.2267 19.8436 48.1348C19.8441 47.6843 19.7334 47.2405 19.5213 46.843C19.3091 46.4455 19.0021 46.1065 18.6275 45.8561L13.3523 42.2733C13.3523 42.2733 13.3512 50.0518 13.3512 50.4093C13.3512 50.5286 13.3038 50.643 13.2194 50.7274C13.1351 50.8117 13.0207 50.8591 12.9014 50.8591C12.7821 50.8591 12.6677 50.8117 12.5833 50.7274C12.4989 50.643 12.4515 50.5286 12.4515 50.4093C12.4515 50.322 12.4416 41.5125 12.4416 40.4379Z" fill="#231F20"/>
<path d="M15.2657 27.4757C14.6247 27.6244 14.0234 27.9098 13.5028 28.3123C12.9822 28.7148 12.5546 29.2249 12.2492 29.8078V28.5014L9.19775 29.2234L9.20121 37.5662C9.73649 37.3546 10.3199 37.295 10.8869 37.3941C11.4539 37.4932 11.9825 37.7472 12.4142 38.1279V32.7412C12.4142 31.451 13.0562 30.4203 13.9735 30.218C14.6636 30.0665 15.24 30.3134 15.24 31.5425L15.2423 39.4017L18.4564 38.6481V30.3341C18.4564 28.3184 17.6801 26.9094 15.2657 27.4757Z" fill="#231F20"/>
<path d="M61.9645 15.5787C61.5715 15.5791 61.1871 15.4628 60.8602 15.2447C60.5332 15.0266 60.2783 14.7163 60.1277 14.3533C59.9771 13.9902 59.9376 13.5907 60.0141 13.2051C60.0906 12.8196 60.2798 12.4655 60.5577 12.1875C60.8356 11.9095 61.1897 11.7202 61.5751 11.6435C61.9606 11.5668 62.3602 11.6062 62.7233 11.7567C63.0864 11.9071 63.3968 12.1619 63.615 12.4888C63.8333 12.8157 63.9497 13.1999 63.9495 13.593C63.949 14.1194 63.7397 14.624 63.3676 14.9963C62.9955 15.3686 62.4909 15.578 61.9645 15.5787ZM61.9645 11.8552C61.6209 11.8551 61.285 11.957 60.9992 12.1478C60.7135 12.3387 60.4907 12.6099 60.3591 12.9274C60.2276 13.2448 60.1931 13.5941 60.2601 13.9312C60.327 14.2682 60.4924 14.5778 60.7353 14.8208C60.9783 15.0639 61.2878 15.2294 61.6248 15.2965C61.9618 15.3636 62.3111 15.3293 62.6286 15.1979C62.9461 15.0665 63.2175 14.8438 63.4085 14.5582C63.5995 14.2725 63.7014 13.9366 63.7015 13.593C63.7011 13.1324 63.518 12.6907 63.1924 12.3649C62.8667 12.0391 62.4252 11.8558 61.9645 11.8552Z" fill="#231F20"/>
<path d="M61.2407 12.4091H62.0969C62.1806 12.4001 62.2653 12.4102 62.3445 12.4384C62.4238 12.4667 62.4957 12.5125 62.5549 12.5724C62.614 12.6323 62.6589 12.7047 62.6862 12.7844C62.7135 12.864 62.7224 12.9487 62.7124 13.0323C62.7124 13.3468 62.5729 13.5886 62.3084 13.6298V13.6344C62.549 13.659 62.6755 13.7916 62.6878 14.1327C62.6925 14.2864 62.6948 14.4771 62.7021 14.6255C62.7022 14.6673 62.7127 14.7083 62.7328 14.745C62.7529 14.7816 62.7819 14.8125 62.817 14.8351H62.3795C62.3378 14.7709 62.3151 14.6963 62.3141 14.6198C62.3007 14.4748 62.3041 14.338 62.2976 14.1619C62.2911 13.8974 62.21 13.7816 61.9443 13.7816H61.6275V14.8351H61.2407V12.4091ZM61.9374 13.4895C61.99 13.4943 62.0429 13.4874 62.0925 13.4692C62.1421 13.4511 62.1871 13.4221 62.2241 13.3845C62.2611 13.3469 62.2894 13.3015 62.3067 13.2516C62.3241 13.2017 62.3302 13.1486 62.3245 13.0961C62.3245 12.8374 62.2126 12.7013 61.9577 12.7013H61.6275V13.4895H61.9374Z" fill="#231F20"/>
</g>
<path d="M-81.7999 102.5C-85.6999 100.2 -89.5999 98.6 -93.4999 97C-98.9999 96.2 -103.7 95.4 -109.1 95.4H-141.9V195.4H-123.9V154H-110.6C-105.9 154 -100.4 153.2 -95.7999 152.4C-91.0999 151.6 -87.1999 150.1 -83.2999 147.7C-79.3999 145.4 -77.0999 142.2 -74.6999 138.3C-72.3999 134.4 -71.5999 128.9 -71.5999 124.2C-71.5999 119.5 -72.3999 114.8 -73.8999 110.9C-76.2999 108 -78.6999 104.8 -81.7999 102.5ZM-91.1999 132.2L-95.8999 136.9L-102.9 139.2C-106 140 -108.4 140 -111.5 140H-124V110.3H-110.7C-108.4 110.3 -105.2 110.3 -102.9 111.1C-100.6 111.1 -98.1999 111.9 -95.8999 113.4C-91.1999 115.7 -88.8999 119.6 -88.8999 125.1L-91.1999 132.2ZM-12.2999 135.3C-14.5999 132.2 -17.7999 129.8 -21.6999 128.3C-26.3999 126.7 -31.8999 126 -36.4999 126C-41.9999 126 -46.6999 126.8 -52.0999 128.3C-56.7999 129.9 -61.4999 133 -65.3999 136.1L-56.7999 146.3C-54.4999 144 -51.2999 142.4 -48.9999 140.8C-45.8999 139.2 -41.9999 138.5 -38.7999 138.5C-34.8999 138.5 -30.9999 139.3 -27.8999 141.6C-24.7999 143.9 -23.1999 147.1 -23.1999 151V152.6C-28.6999 152.6 -34.0999 152.6 -39.5999 153.4C-45.0999 154.2 -49.7999 155 -54.3999 156.5C-58.2999 158.1 -62.1999 160.4 -65.2999 163.5C-68.3999 166.6 -69.9999 171.3 -69.9999 176C-69.9999 179.1 -69.1999 183 -67.6999 186.2C-66.0999 188.5 -63.7999 190.9 -61.4999 192.4C-59.1999 193.9 -55.9999 195.5 -53.6999 196.3C-50.5999 197.1 -48.1999 197.1 -45.0999 197.1C-40.3999 197.1 -36.4999 196.3 -32.5999 194C-29.4999 192.4 -26.3999 190.1 -24.7999 186.2H-23.9999V194.8H-8.3999V153.4C-8.3999 150.3 -9.19991 146.4 -9.99991 143.2C-9.19991 140.8 -10.6999 137.6 -12.2999 135.3ZM-22.4999 170.4C-23.2999 179 -31.8999 185.2 -40.4999 184.5C-42.0999 184.5 -43.5999 184.5 -44.3999 183.7C-45.9999 183.7 -46.6999 182.9 -48.2999 182.1C-49.0999 181.3 -50.5999 180.5 -51.3999 179.8C-52.1999 178.2 -52.1999 177.5 -52.1999 175.9C-52.1999 173.6 -51.3999 171.2 -49.8999 169.7C-48.2999 168.1 -45.9999 167.4 -43.6999 166.6C-41.3999 165.8 -38.1999 165 -35.0999 165H-22.5999C-22.4999 165 -22.4999 170.4 -22.4999 170.4ZM53.3001 127.5H71.3001L39.3001 210.3C38.5001 213.4 37.0001 215.8 35.4001 218.9C33.8001 221.2 32.3001 223.6 29.9001 225.1C27.6001 226.7 25.2001 228.2 22.9001 229C19.8001 229.8 16.7001 230.6 13.5001 230.6H8.80011C7.2001 230.6 5.7001 229.8 4.1001 229.8L5.7001 215C6.50011 215 8.00011 215.8 8.80011 215.8H11.9001C13.5001 215.8 15.0001 215.8 16.6001 215C18.2001 214.2 18.9001 214.2 19.7001 212.7C20.5001 211.9 21.3001 210.4 22.0001 209.6L24.3001 204.9L27.4001 196.3L-1.49991 127.6H17.2001L35.9001 176.8C36.1001 176.7 53.3001 127.5 53.3001 127.5ZM250.1 39.2H139.2C114.2 39.2 93.1001 59.5 93.1001 85.3V195.4C93.1001 220.4 113.4 241.5 139.2 241.5H250.1C275.1 241.5 296.2 221.2 296.2 195.4V85.3C296.2 59.5 275.9 39.2 250.1 39.2ZM179.8 88.4L185.3 87.6C193.9 86.8 202.5 87.6 211.1 89.2C227.5 91.5 242.3 102.5 249.4 118.1L237.7 122.8C229.1 102.5 204.9 100.2 194 100.2V161.1H180.7V88.5H179.8V88.4ZM138.4 97C138.4 91.5 143.1 86.8 148.6 86.8C154.1 86.8 158.8 91.5 158.8 97C158.8 102.5 154.1 107.2 148.6 107.2C142.3 106.4 138.4 102.5 138.4 97ZM251.7 152.5C250.9 156.4 250.1 160.3 248.6 164.2C240 185.3 218.9 195.4 186.9 195.4H140.8V123.5H154.1V182.9H187.7C213.5 182.9 230.7 175.1 236.9 159.5C237.7 157.2 238.5 154.8 238.5 152.5H227.6L246.3 129.1L265 152.5H251.7Z" fill="#222323"/>
</g>
<defs>
<clipPath id="clip0_1066_447">
<rect width="174.271" height="174.274" fill="white"/>
</clipPath>
</defs>
</svg>
