<svg width="156" height="53" viewBox="0 0 156 53" fill="none" xmlns="http://www.w3.org/2000/svg">
<g clip-path="url(#clip0_1068_512)">
<path d="M58.6299 41.68C58.9299 41.98 59.2799 42.13 59.6999 42.13H66.7599C67.1699 42.13 67.5299 41.98 67.8299 41.68C68.1299 41.38 68.2799 41.03 68.2799 40.61V25.2C68.2799 23 67.9799 21.09 67.3799 19.48C66.7799 17.87 65.9499 16.55 64.8899 15.5C63.8199 14.45 62.5399 13.68 61.0499 13.17C59.5499 12.67 57.9099 12.41 56.1199 12.41C54.3599 12.41 52.8099 12.77 51.4699 13.5C50.1199 14.23 49.1299 14.99 48.4999 15.77V3.84002C48.4999 3.43002 48.3499 3.07002 48.0499 2.78002C47.7499 2.48002 47.3999 2.33002 46.9899 2.33002H39.8999C39.4899 2.33002 39.1299 2.48002 38.8299 2.78002C38.5299 3.08002 38.3799 3.43002 38.3799 3.84002V40.61C38.3799 41.02 38.5299 41.38 38.8299 41.68C39.1299 41.98 39.4799 42.13 39.8999 42.13H46.9599C47.3699 42.13 47.7299 41.98 48.0199 41.68C48.3199 41.38 48.4699 41.03 48.4699 40.61V26.43C48.4699 24.82 48.8499 23.53 49.6199 22.56C50.3899 21.59 51.6099 21.1 53.2899 21.1C54.9699 21.1 56.1999 21.59 56.9899 22.56C57.7699 23.53 58.1699 24.82 58.1699 26.43V40.61C58.1799 41.03 58.3299 41.38 58.6299 41.68Z" fill="#8347AD"/>
<path d="M83.07 12.98H76C75.59 12.98 75.23 13.13 74.93 13.43C74.63 13.73 74.48 14.08 74.48 14.49V40.61C74.48 41.02 74.63 41.38 74.93 41.68C75.23 41.98 75.58 42.13 76 42.13H83.06C83.47 42.13 83.83 41.98 84.12 41.68C84.42 41.38 84.57 41.03 84.57 40.61V14.49C84.57 14.08 84.42 13.72 84.12 13.43C83.83 13.13 83.48 12.98 83.07 12.98Z" fill="#8347AD"/>
<path d="M120.09 35.51C120.78 33.9 121.16 32 121.24 29.79C121.28 29.23 121.3 28.47 121.3 27.52C121.3 26.57 121.28 25.81 121.24 25.25C121.16 23.05 120.78 21.14 120.09 19.53C119.4 17.92 118.49 16.59 117.37 15.52C116.25 14.45 114.94 13.67 113.45 13.17C111.95 12.67 110.37 12.41 108.69 12.41C107.46 12.41 106.42 12.51 105.58 12.72C104.74 12.93 104.03 13.19 103.45 13.5C102.87 13.82 102.39 14.18 101.99 14.59C101.6 15 101.23 15.39 100.9 15.77V14.48C100.9 14.07 100.75 13.71 100.45 13.41C100.15 13.11 99.7998 12.96 99.3898 12.96H92.6098C92.1998 12.96 91.8398 13.11 91.5398 13.41C91.2398 13.71 91.0898 14.06 91.0898 14.48V51.25C91.0898 51.66 91.2398 52.02 91.5398 52.32C91.8398 52.62 92.1898 52.77 92.6098 52.77H99.6698C100.08 52.77 100.44 52.62 100.74 52.32C101.04 52.02 101.19 51.67 101.19 51.25V39.33C101.45 39.67 101.79 40.03 102.2 40.42C102.61 40.81 103.12 41.18 103.71 41.51C104.31 41.85 105.02 42.13 105.84 42.35C106.66 42.57 107.61 42.69 108.7 42.69C110.38 42.69 111.97 42.43 113.46 41.91C114.95 41.39 116.26 40.59 117.38 39.53C118.49 38.46 119.4 37.12 120.09 35.51ZM111.2 29.12C111.09 30.43 110.66 31.57 109.91 32.54C109.16 33.51 107.91 34 106.15 34C105.33 34 104.62 33.87 104.02 33.61C103.42 33.35 102.93 33 102.53 32.57C102.14 32.14 101.83 31.66 101.61 31.14C101.39 30.62 101.24 30.08 101.16 29.51C101.08 28.95 101.05 28.3 101.05 27.55C101.05 26.8 101.09 26.15 101.16 25.59C101.23 25.03 101.38 24.49 101.61 23.96C101.83 23.44 102.14 22.96 102.53 22.53C102.92 22.1 103.42 21.75 104.02 21.49C104.62 21.23 105.33 21.1 106.15 21.1C107.91 21.1 109.16 21.59 109.91 22.56C110.66 23.53 111.09 24.67 111.2 25.98C111.32 27.03 111.32 28.08 111.2 29.12Z" fill="#8347AD"/>
<path d="M146.57 41.68C146.87 41.98 147.22 42.13 147.64 42.13H154.14C154.55 42.13 154.91 41.98 155.2 41.68C155.5 41.38 155.65 41.03 155.65 40.61V14.49C155.65 14.08 155.5 13.72 155.2 13.43C154.9 13.13 154.55 12.98 154.14 12.98H147.08C146.67 12.98 146.31 13.13 146.01 13.43C145.71 13.73 145.56 14.08 145.56 14.49V28.67C145.56 30.28 145.21 31.57 144.52 32.54C143.83 33.51 142.66 34 141.02 34C139.38 34 138.2 33.51 137.49 32.54C136.78 31.57 136.42 30.28 136.42 28.67V14.49C136.42 14.08 136.27 13.72 135.97 13.43C135.67 13.13 135.32 12.98 134.9 12.98H127.84C127.43 12.98 127.07 13.13 126.77 13.43C126.47 13.73 126.32 14.08 126.32 14.49V29.9C126.32 34.31 127.39 37.54 129.54 39.6C131.69 41.66 134.58 42.68 138.2 42.68C139.36 42.68 140.36 42.58 141.2 42.37C142.04 42.16 142.78 41.9 143.41 41.59C144.05 41.27 144.58 40.92 145.01 40.52C145.44 40.13 145.8 39.73 146.1 39.32V40.61C146.12 41.03 146.27 41.38 146.57 41.68Z" fill="#8347AD"/>
<path d="M79.35 9.97001C76.66 9.97001 74.48 7.78001 74.48 5.10001C74.48 2.41001 76.67 0.230011 79.35 0.230011C82.04 0.230011 84.22 2.42001 84.22 5.10001C84.23 7.78001 82.04 9.97001 79.35 9.97001Z" fill="#3CB4E5"/>
<path d="M11.3297 26.29V16.98L8.54969 20.47C8.11969 21.01 8.09969 21.77 8.49969 22.34L11.3297 26.29Z" fill="#743CEB"/>
<path d="M10.7198 2.76002C10.4398 2.48002 10.0798 2.33002 9.66984 2.33002H1.76984C1.38984 2.33002 1.05984 2.47002 0.769844 2.76002C0.489844 3.04002 0.339844 3.40002 0.339844 3.81002V40.71C0.339844 41.09 0.479844 41.42 0.769844 41.71C1.04984 41.99 1.38984 42.14 1.76984 42.14H9.66984C10.0898 42.14 10.4398 42 10.7198 41.71C10.9998 41.43 11.1498 41.09 11.1498 40.71V29.69L10.2798 28.54L10.2598 28.52L10.2398 28.49L6.69984 23.53C5.76984 22.23 5.80984 20.44 6.80984 19.19L10.2898 14.81L11.1498 13.69V3.80002C11.1498 3.39002 11.0098 3.04002 10.7198 2.76002Z" fill="#8347AD"/>
<path d="M33.9997 42.13C34.3397 42.13 34.6297 42.01 34.8497 41.76C35.0797 41.51 35.1897 41.24 35.1897 40.94C35.1897 40.64 35.1097 40.41 34.9597 40.26L20.9797 21.38L33.9397 4.21003C34.0897 4.02003 34.1697 3.79003 34.1697 3.53003C34.1697 3.23003 34.0497 2.95003 33.7997 2.71003C33.6497 2.56003 33.4697 2.45003 33.2797 2.39003C33.1697 2.36003 33.0397 2.34003 32.9197 2.34003H23.9397C23.3297 2.34003 22.8497 2.46003 22.4897 2.71003C22.1297 2.96003 21.8497 3.21003 21.6697 3.48003L11.9997 16.15L8.49971 20.55C8.29971 20.8 8.18971 21.1 8.18971 21.41C8.17971 21.72 8.26971 22.02 8.45971 22.29L10.2697 24.82L11.9997 27.23L22.3997 40.93C22.5097 41.08 22.7397 41.32 23.0797 41.64C23.2897 41.84 23.5797 41.98 23.9397 42.06C24.1597 42.11 24.3997 42.13 24.6697 42.13H33.9997Z" fill="#3CB4E5"/>
</g>
<defs>
<clipPath id="clip0_1068_512">
<rect width="156" height="53" fill="white"/>
</clipPath>
</defs>
</svg>
