<svg width="314" height="79" viewBox="0 0 314 79" fill="none" xmlns="http://www.w3.org/2000/svg">
<g clip-path="url(#clip0_1005_588)">
<path d="M246.886 39.7831C246.886 37.8012 246.886 35.8193 246.886 34.1205C246.886 32.4217 246.629 30.7229 246.371 29.3072C246.114 27.8916 245.6 26.4759 245.086 25.0602C244.571 23.6446 243.543 22.5121 242.514 21.3795C240.971 19.6807 239.429 18.5482 237.371 17.4157C235.314 16.5663 233.257 16 230.943 16C228.629 16 226.571 16.2831 224.514 17.4157C222.714 18.2651 220.914 19.6807 219.371 21.0964C218.343 22.2289 217.571 23.3615 216.8 24.7771C216.286 26.1928 215.771 27.6084 215.514 29.0241C215.257 30.7229 215 32.4217 215 33.8373C215 35.5361 215 37.5181 215 39.5C215 41.4819 215 43.4638 215 45.1626C215 46.8614 215.257 48.5602 215.514 49.9759C215.771 51.3916 216.286 52.8072 216.8 54.2229C217.314 55.6385 218.343 56.7711 219.371 57.9036C220.914 59.6024 222.457 60.7349 224.514 61.5843C226.571 62.4337 228.886 63 230.943 63C233.257 63 235.314 62.7169 237.371 61.5843C239.171 60.7349 240.971 59.3193 242.514 57.9036C243.543 56.7711 244.314 55.6385 245.086 54.2229C245.6 52.8072 246.114 51.3916 246.371 49.9759C246.629 48.2771 246.886 46.5783 246.886 45.1626C246.886 43.747 247.143 41.7651 246.886 39.7831ZM238.657 39.7831C238.657 42.0482 238.657 44.0301 238.657 45.4458C238.657 46.5783 238.4 47.994 238.4 49.1265C238.4 49.9759 238.143 50.8253 237.629 51.3916C237.371 51.9578 237.114 52.5241 236.6 53.0904C236.086 53.9398 235.314 54.506 234.286 54.7892C233.257 55.3554 232.229 55.3554 231.2 55.3554C230.171 55.3554 229.143 55.0723 228.114 54.7892C227.343 54.506 226.314 53.6566 225.8 53.0904C225.286 52.5241 225.029 51.9578 224.771 51.3916C224.514 50.5422 224.257 49.9759 224.257 49.1265C224 47.994 224 46.5783 224 45.4458C224 44.0301 224 42.0482 224 39.7831C224 37.5181 224 35.5361 224 34.1205C224 32.988 224.257 31.5723 224.257 30.4398C224.257 29.5904 224.514 28.741 224.771 28.1747C225.029 27.6084 225.286 27.0422 225.8 26.4759C226.314 25.6265 227.343 25.0602 228.114 24.7771C229.143 24.2108 230.171 24.2108 231.2 24.2108C232.229 24.2108 233.257 24.494 234.286 24.7771C235.057 25.0602 235.829 25.9096 236.6 26.4759C237.114 27.0422 237.371 27.6084 237.629 28.1747C237.886 29.0241 238.143 29.5904 238.4 30.4398C238.657 31.5723 238.657 32.988 238.657 34.1205C238.657 35.8193 238.657 37.5181 238.657 39.7831Z" fill="#23AF91"/>
<path d="M313.742 16.8494C313.742 16.2831 313.484 16 312.969 16H306.266C305.75 16 305.492 16.2831 305.492 16.8494V44.8795L288.734 16.2831C288.734 16 288.477 16 288.219 16H281.773C281.258 16 281 16.2831 281 16.8494V62.1506C281 62.7169 281.258 63 281.773 63H288.734C289.25 63 289.508 62.7169 289.508 62.1506V34.1205L306.266 62.7169C306.266 63 306.523 63 306.781 63H313.227C313.742 63 314 62.7169 314 62.1506L313.742 16.8494Z" fill="#23AF91"/>
<path d="M268 16.8494C268 16.2831 267.727 16 267.182 16H259.818C259.273 16 259 16.2831 259 16.8494V62.1506C259 62.7169 259.273 63 259.818 63H267.182C267.727 63 268 62.7169 268 62.1506V16.8494Z" fill="#23AF91"/>
<path d="M184.585 39.7798C184.585 37.5417 184.585 35.5833 184.585 34.1845C184.585 33.0655 184.846 31.6667 184.846 30.5476C185.366 26.631 188.228 24.1131 191.87 24.1131C194.211 24.1131 196.293 24.9524 197.854 27.1905C198.374 28.3095 198.894 29.4286 199.154 30.5476C199.154 30.5476 199.154 30.8274 199.415 30.8274H207.74C207.74 30.8274 208 30.8274 208 30.5476C207.22 25.2321 204.358 20.1964 199.675 17.6786C197.333 16.5595 194.732 16 192.13 16C187.447 16 183.545 17.6786 180.423 21.0357C178.602 22.994 177.301 25.2321 176.78 28.0298C176.26 30.5476 176 34.4643 176 39.5C176 44.5357 176.26 48.4524 176.78 50.9702C177.301 53.4881 178.602 56.006 180.163 57.9643C183.285 61.3214 187.187 63 191.87 63C194.472 63 197.073 62.4405 199.415 61.3214C204.098 58.8036 206.959 54.0476 207.74 48.4524C207.74 48.4524 207.74 48.1726 207.48 48.1726H199.415C199.415 48.1726 199.154 48.1726 199.154 48.4524C198.894 49.5714 198.374 50.6905 197.854 51.8095C196.553 54.0476 194.211 54.8869 191.87 54.8869C188.228 54.8869 185.366 52.6488 184.846 48.4524C184.585 47.3333 184.585 45.9345 184.585 44.8155C184.585 43.9762 184.585 42.0179 184.585 39.7798Z" fill="#23AF91"/>
<path d="M99.1551 16.8494C99.1551 16.2831 98.9002 16 98.3905 16H91.7645C91.2548 16 91 16.2831 91 16.8494V62.1506C91 62.7169 91.2548 63 91.7645 63H98.6454C99.1551 63 99.4099 62.7169 99.4099 62.1506V48.8434L104.762 41.4819L115.975 62.7169C115.975 63 116.23 63 116.485 63H124.64C124.894 63 125.149 62.7169 124.894 62.4337L110.113 34.6867L123.62 16.8494C123.875 16.5663 123.875 16 123.365 16H114.446C114.446 16 114.191 16 114.191 16.2831L99.4099 36.1024V16.8494H99.1551Z" fill="#23AF91"/>
<path d="M149.262 55.7143C145.328 55.7143 141.656 51.7143 141.656 47.1429V16.8571C141.656 16.2857 141.393 16 140.869 16H133.787C133.262 16 133 16.2857 133 16.8571V46.8571C133 57.4286 140.082 64 149 64C157.918 64 165 57.4286 165 46.8571V16.8571C165 16.2857 164.738 16 164.213 16H157.131C156.607 16 156.344 16.2857 156.344 16.8571V46.8571C156.607 51.7143 153.197 55.7143 149.262 55.7143Z" fill="#23AF91"/>
<path fill-rule="evenodd" clip-rule="evenodd" d="M21.3874 39.5L43.0356 62.9597L56.5983 48.2621C58.9457 46.0009 62.858 46.0009 65.2054 48.5447C67.5528 51.0886 67.5528 55.0456 65.4662 57.8721L47.2087 77.0921C44.8613 79.6359 40.949 79.6359 38.6016 77.0921L12.5194 48.8274V65.7862C12.5194 69.4606 9.6504 72.5698 6.25972 72.5698C2.86904 72.5698 0 69.4606 0 65.7862V13.4964C0 9.822 2.86904 6.71287 6.25972 6.71287C9.6504 6.71287 12.5194 9.822 12.5194 13.4964V30.1726L38.6016 1.90787C40.949 -0.635957 44.8613 -0.635957 47.2087 1.90787L65.2054 21.4105C67.292 23.9544 67.292 28.1941 64.9446 30.7379C62.5972 33.2817 58.9457 33.2818 56.3375 31.0206L42.7747 16.3229L21.3874 39.5ZM43.0356 32.9991C40.4274 32.9991 38.3408 34.695 37.2975 37.2388C36.2542 39.7826 36.7759 42.6091 38.6016 44.5877C40.4274 46.5662 43.0356 47.1315 45.383 46.0009C47.7304 44.8703 49.2953 42.6091 49.2953 39.7826C49.2953 38.0868 48.7737 36.3909 47.4695 34.9776C46.1654 33.5644 44.6005 32.9991 43.0356 32.9991Z" fill="#23AF91"/>
</g>
<defs>
<clipPath id="clip0_1005_588">
<rect width="314" height="79" fill="white"/>
</clipPath>
</defs>
</svg>
