<svg width="296" height="84" viewBox="0 0 296 84" fill="none" xmlns="http://www.w3.org/2000/svg">
<path d="M86.8109 0H1.97299C1.44971 0 0.947882 0.194501 0.577871 0.540719C0.207865 0.886934 0 1.35651 0 1.84614V81.2296C0 81.7193 0.207865 82.1893 0.577871 82.5356C0.947882 82.8813 1.44971 83.0757 1.97299 83.0757H86.8109C87.3348 83.0757 87.8361 82.8813 88.2066 82.5356C88.5764 82.1893 88.7846 81.7193 88.7846 81.2296V1.84614C88.7846 1.35651 88.5764 0.886934 88.2066 0.540719C87.8361 0.194501 87.3348 0 86.8109 0ZM59.1895 53.5379C59.1895 54.0275 58.9816 54.4971 58.6116 54.8433C58.2416 55.1895 57.7398 55.384 57.2165 55.384H31.5677C31.0445 55.384 30.5426 55.1895 30.1726 54.8433C29.8026 54.4971 29.5947 54.0275 29.5947 53.5379V29.5381C29.5947 29.0485 29.8026 28.5789 30.1726 28.2327C30.5426 27.8865 31.0445 27.692 31.5677 27.692H57.2165C57.7398 27.692 58.2416 27.8865 58.6116 28.2327C58.9816 28.5789 59.1895 29.0485 59.1895 29.5381V53.5379Z" fill="white"/>
<path d="M264.416 27.6954H238.767C237.678 27.6954 236.794 28.5219 236.794 29.5416V53.5413C236.794 54.5609 237.678 55.3874 238.767 55.3874H264.416C265.506 55.3874 266.389 54.5609 266.389 53.5413V29.5416C266.389 28.5219 265.506 27.6954 264.416 27.6954Z" fill="white"/>
<path d="M234.828 0.00134277H209.179C208.09 0.00134277 207.207 0.827887 207.207 1.84747V25.8472C207.207 26.8668 208.09 27.6934 209.179 27.6934H234.828C235.918 27.6934 236.802 26.8668 236.802 25.8472V1.84747C236.802 0.827887 235.918 0.00134277 234.828 0.00134277Z" fill="white"/>
<path d="M294.027 0.00134277H268.378C267.289 0.00134277 266.405 0.827887 266.405 1.84747V25.8472C266.405 26.8668 267.289 27.6934 268.378 27.6934H294.027C295.117 27.6934 296 26.8668 296 25.8472V1.84747C296 0.827887 295.117 0.00134277 294.027 0.00134277Z" fill="white"/>
<path d="M234.828 55.3867H209.179C208.09 55.3867 207.207 56.2132 207.207 57.2328V81.2328C207.207 82.2521 208.09 83.079 209.179 83.079H234.828C235.918 83.079 236.802 82.2521 236.802 81.2328V57.2328C236.802 56.2132 235.918 55.3867 234.828 55.3867Z" fill="white"/>
<path d="M294.027 55.3867H268.378C267.289 55.3867 266.405 56.2132 266.405 57.2328V81.2328C266.405 82.2521 267.289 83.079 268.378 83.079H294.027C295.117 83.079 296 82.2521 296 81.2328V57.2328C296 56.2132 295.117 55.3867 294.027 55.3867Z" fill="white"/>
<path d="M190.401 0.00134277H164.752C163.662 0.00134277 162.779 0.827887 162.779 1.84747V25.8472C162.779 26.8668 163.662 27.6934 164.752 27.6934H190.401C191.49 27.6934 192.374 26.8668 192.374 25.8472V1.84747C192.374 0.827887 191.49 0.00134277 190.401 0.00134277Z" fill="white"/>
<path d="M190.401 55.3867H164.752C163.662 55.3867 162.779 56.2132 162.779 57.2328V81.2328C162.779 82.2521 163.662 83.079 164.752 83.079H190.401C191.49 83.079 192.374 82.2521 192.374 81.2328V57.2328C192.374 56.2132 191.49 55.3867 190.401 55.3867Z" fill="white"/>
<path d="M162.77 29.5174C162.77 29.0278 162.562 28.5582 162.192 28.212C161.822 27.8657 161.32 27.6712 160.797 27.6712H133.175V1.84613C133.175 1.35651 132.967 0.886934 132.597 0.540718C132.227 0.194501 131.725 0 131.202 0H105.554C105.03 0 104.529 0.194501 104.158 0.540718C103.788 0.886934 103.58 1.35651 103.58 1.84613V81.1883C103.58 81.678 103.788 82.1474 104.158 82.4937C104.529 82.84 105.03 83.0345 105.554 83.0345H131.202C131.725 83.0345 132.227 82.84 132.597 82.4937C132.967 82.1474 133.175 81.678 133.175 81.1883V55.3632H160.797C161.32 55.3632 161.822 55.1687 162.192 54.8225C162.562 54.4763 162.77 54.0067 162.77 53.5171V29.5174Z" fill="white"/>
</svg>
