<svg width="385" height="125" viewBox="0 0 385 125" fill="none" xmlns="http://www.w3.org/2000/svg">
<path d="M325.773 117.155V125H380V89.5158H372.075V117.155H325.773ZM325.773 0V7.84497H372.075V35.4842H379.948V0H325.773ZM297.825 60.8894V42.6018H310.235C316.283 42.6018 318.421 44.628 318.421 50.0831V53.3042C318.421 58.9152 316.336 60.8375 310.235 60.8375L297.825 60.8894ZM317.483 64.1105C323.114 62.6559 327.077 57.4086 327.077 51.1222C327.077 47.2257 325.46 43.4331 322.592 40.7835C318.89 37.2506 313.937 35.4842 307.471 35.4842H290.056V89.5158H297.825V67.9551H309.453C315.397 67.9551 317.795 70.4489 317.795 76.5794V89.4638H325.721V77.8263C325.721 69.3578 323.687 66.0848 317.535 65.1496L317.483 64.1105ZM252.254 65.9289H276.135V58.8113H252.254V42.6018H278.429V35.4842H244.381V89.5158H279.628V82.3982H252.254V65.9289ZM226.34 68.7344V72.4231C226.34 80.2161 223.472 82.7618 216.276 82.7618H214.556C207.36 82.7618 203.867 80.4239 203.867 69.7215V55.2265C203.867 44.4202 207.517 42.1862 214.712 42.1862H216.276C223.315 42.1862 225.558 44.7839 225.662 52.0573H234.161C233.379 41.4069 226.288 34.7049 215.599 34.7049C210.384 34.7049 206.057 36.3155 202.824 39.4327C197.923 44.0046 195.263 51.6937 195.263 62.5C195.263 72.8907 197.61 80.6317 202.407 85.4115C205.692 88.5287 210.019 90.2951 214.556 90.2951C219.196 90.2951 223.472 88.4248 225.61 84.4244H226.705V89.5677H233.848V61.7207H212.835V68.7864H226.34V68.7344ZM158.035 42.6018H166.482C174.459 42.6018 178.787 44.628 178.787 55.3824V69.5657C178.787 80.372 174.459 82.3982 166.482 82.3982H158.035V42.6018ZM167.159 89.5158C181.967 89.5158 187.442 78.3458 187.442 62.5C187.442 46.4464 181.55 35.4842 167.003 35.4842H150.266V89.5158H167.159ZM112.88 65.9289H136.761V58.8113H112.88V42.6018H139.055V35.4842H104.955V89.5158H140.202V82.3982H112.88V65.9289ZM67.1524 35.4842H59.2269V89.5158H94.8394V82.3982H67.1524V35.4842ZM5 89.5158V125H59.2269V117.103H12.8733V89.4638H5V89.5158ZM5 0V35.4842H12.8733V7.84497H59.1748V0H5Z" fill="white"/>
</svg>
