<svg width="326" height="96" viewBox="0 0 326 96" fill="none" xmlns="http://www.w3.org/2000/svg">
<path fill-rule="evenodd" clip-rule="evenodd" d="M129.601 46.316V94.7195H148.515V88.0933H137.588V46.316H129.601ZM326 63.608V55.5998C326 49.7177 321.97 45.9262 314.673 45.9262C307.377 45.9262 303.347 49.7885 303.347 55.5998V85.4711C303.347 91.2824 307.377 95.1448 314.673 95.1448C321.97 95.1448 326 91.3533 326 85.4711V70.5886H314.819V77.2149H318.231V85.4357C318.231 87.3137 316.743 88.2705 314.673 88.2705C312.459 88.2705 311.406 87.3137 311.406 85.4357V55.5644C310.825 51.7729 318.413 51.9146 318.195 55.5644V63.5726H326V63.608ZM290.714 60.5606C290.714 64.2813 290.786 68.3917 290.931 72.821L283.562 46.316H274.849V94.755H282.146V80.5103C282.146 76.5771 282.073 72.3603 281.928 67.7893L289.516 94.755H298.01V46.316H290.714V60.5606ZM261.018 94.7195H269.004V46.316H261.018V94.7195ZM247.767 66.7263C247.767 68.6043 246.787 69.561 244.863 69.561H241.233V52.9422H244.863C246.787 52.9422 247.767 53.899 247.767 55.777V66.7263ZM255.79 66.7263V55.8124C255.79 49.9303 252.051 46.3514 244.863 46.3514H233.246V94.755H241.269V76.1873H243.738L248.784 94.7195H256.807L251.361 74.7699C254.302 73.2462 255.79 70.4469 255.79 66.7263ZM221.266 66.7263C221.266 68.6043 220.286 69.561 218.362 69.561H214.732V52.9422H218.362C220.286 52.9422 221.266 53.899 221.266 55.777V66.7263ZM218.362 46.316H206.745V94.7195H214.768V76.1873H218.398C225.55 76.1873 229.325 72.573 229.325 66.7263V55.8124C229.253 49.8948 225.514 46.316 218.362 46.316ZM193.386 85.4711C193.821 89.1918 186.306 89.1918 186.778 85.4711V55.5998C186.27 51.8792 193.785 51.8792 193.386 55.5998V85.4711ZM190.082 45.8907C182.785 45.8907 178.755 49.7531 178.755 55.5644V85.4357C178.755 91.247 182.785 95.1093 190.082 95.1093C197.379 95.1093 201.408 91.3178 201.408 85.4357V55.5644C201.408 49.6822 197.379 45.8907 190.082 45.8907ZM165.977 85.4711C166.412 89.1918 158.898 89.1918 159.37 85.4711V55.5998C158.861 51.8792 166.376 51.8792 165.977 55.5998V85.4711ZM162.637 45.8907C155.34 45.8907 151.31 49.7531 151.31 55.5644V85.4357C151.31 91.247 155.34 95.1093 162.637 95.1093C169.934 95.1093 173.963 91.3178 173.963 85.4357V55.5644C173.963 49.6822 169.934 45.8907 162.637 45.8907Z" fill="#1C42FF"/>
<path fill-rule="evenodd" clip-rule="evenodd" d="M70.827 46.2806H122.268V46.5995L41.9299 94.4361L81.7905 63.3246L70.827 46.2806ZM40.8408 0.144775V95.0385L0.145264 63.2891L40.8408 0.144775Z" fill="#1C42FF"/>
</svg>
