<svg width="211" height="97" viewBox="0 0 211 97" fill="none" xmlns="http://www.w3.org/2000/svg">
<path d="M28.8171 30.3515C26.9471 29.2486 25.0771 28.4815 23.2071 27.7143C20.5699 27.3307 18.3164 26.9471 15.7271 26.9471H0V74.8957H8.63075V55.045H15.0079C17.2615 55.045 19.8987 54.6614 22.1043 54.2778C24.3579 53.8942 26.2279 53.175 28.0979 52.0242C29.9679 50.9214 31.0707 49.3871 32.2215 47.5171C33.3243 45.6471 33.7079 43.0099 33.7079 40.7563C33.7079 38.5027 33.3243 36.2491 32.605 34.3791C31.4543 32.9886 30.3035 31.4543 28.8171 30.3515ZM24.3099 44.5922L22.0564 46.8458L18.6999 47.9486C17.2135 48.3322 16.0628 48.3322 14.5764 48.3322H8.5828V34.0914H14.96C16.0628 34.0914 17.5971 34.0915 18.6999 34.475C19.8028 34.475 20.9535 34.8586 22.0564 35.5779C24.3099 36.6807 25.4128 38.5507 25.4128 41.1878L24.3099 44.5922ZM62.1414 46.0786C61.0386 44.5922 59.5042 43.4414 57.6342 42.7222C55.3806 41.955 52.7435 41.6194 50.5378 41.6194C47.9006 41.6194 45.6471 42.003 43.0578 42.7222C40.8042 43.4894 38.5507 44.9758 36.6807 46.4622L40.8042 51.3529C41.9071 50.2501 43.4414 49.4829 44.5442 48.7158C46.0306 47.9486 47.9006 47.6129 49.435 47.6129C51.305 47.6129 53.175 47.9965 54.6614 49.0994C56.1478 50.2022 56.915 51.7365 56.915 53.6065V54.3737C54.2778 54.3737 51.6886 54.3737 49.0514 54.7573C46.4142 55.1409 44.1607 55.5245 41.955 56.2437C40.085 57.0109 38.215 58.1137 36.7286 59.6001C35.2422 61.0865 34.475 63.3401 34.475 65.5937C34.475 67.0801 34.8586 68.9501 35.5779 70.4844C36.345 71.5872 37.4478 72.738 38.5507 73.4572C39.6535 74.1765 41.1878 74.9436 42.2907 75.3272C43.7771 75.7108 44.9278 75.7108 46.4142 75.7108C48.6678 75.7108 50.5378 75.3272 52.4078 74.2244C53.8942 73.4572 55.3806 72.3544 56.1478 70.4844H56.5314V74.608H64.0114V54.7573C64.0114 53.2709 63.6278 51.4009 63.2442 49.8665C63.6278 48.7158 62.9086 47.1814 62.1414 46.0786ZM57.2506 62.9086C56.867 67.0321 52.7435 70.0049 48.6199 69.6693C47.8527 69.6693 47.1335 69.6693 46.7499 69.2857C45.9827 69.2857 45.6471 68.9021 44.8799 68.5185C44.4963 68.1349 43.7771 67.7514 43.3935 67.4157C43.0099 66.6485 43.0099 66.3129 43.0099 65.5457C43.0099 64.4429 43.3935 63.2921 44.1127 62.5729C44.8799 61.8057 45.9827 61.4701 47.0855 61.0865C48.1883 60.7029 49.7227 60.3193 51.2091 60.3193H57.2027C57.2506 60.3193 57.2506 62.9086 57.2506 62.9086ZM93.5956 42.3386H102.226L86.8828 82.04C86.4992 83.5264 85.78 84.6772 85.0128 86.1636C84.2457 87.2664 83.5264 88.4172 82.3757 89.1364C81.2729 89.9036 80.1221 90.6228 79.0193 91.0064C77.5329 91.39 76.0465 91.7736 74.5121 91.7736H72.2585C71.4914 91.7736 70.7721 91.39 70.0049 91.39L70.7721 84.2936C71.1557 84.2936 71.8749 84.6772 72.2585 84.6772H73.7449C74.5121 84.6772 75.2313 84.6772 75.9985 84.2936C76.7657 83.91 77.1013 83.91 77.4849 83.1908C77.8685 82.8072 78.2521 82.088 78.5877 81.7044L79.6906 79.4508L81.177 75.3272L67.3198 42.3866H76.2862L85.2526 65.9773C85.3485 65.9293 93.5956 42.3386 93.5956 42.3386ZM187.958 0H134.783C122.796 0 112.679 9.73357 112.679 22.1043V74.8957C112.679 86.8828 122.413 97 134.783 97H187.958C199.946 97 210.063 87.2664 210.063 74.8957V22.1043C210.063 9.73357 200.329 0 187.958 0ZM154.251 23.5907L156.888 23.2071C161.011 22.8235 165.135 23.2071 169.259 23.9743C177.122 25.0771 184.218 30.3515 187.623 37.8314L182.013 40.085C177.889 30.3515 166.286 29.2486 161.059 29.2486V58.4493H154.682V23.6387H154.251V23.5907ZM134.4 27.7143C134.4 25.0771 136.653 22.8235 139.291 22.8235C141.928 22.8235 144.181 25.0771 144.181 27.7143C144.181 30.3515 141.928 32.605 139.291 32.605C136.27 32.2215 134.4 30.3515 134.4 27.7143ZM188.726 54.3258C188.342 56.1957 187.958 58.0657 187.239 59.9357C183.116 70.0529 172.999 74.8957 157.655 74.8957H135.551V40.4207H141.928V68.9021H158.039C170.409 68.9021 178.656 65.1621 181.629 57.6822C182.013 56.5793 182.396 55.4286 182.396 54.3258H177.17L186.136 43.1058L195.103 54.3258H188.726Z" fill="#222323"/>
</svg>
