<svg width="271" height="93" viewBox="0 0 271 93" fill="none" xmlns="http://www.w3.org/2000/svg">
<path d="M107.648 84.9706V32.783C107.648 23.1804 115.432 15.3962 125.034 15.3962L140.443 15.4194C150.018 15.4384 157.769 23.2055 157.769 32.7803V43.8886C157.769 53.4912 149.985 61.2754 140.383 61.2754H118.609" stroke="#939598" stroke-width="11.2493" stroke-miterlimit="10" stroke-linecap="round" stroke-linejoin="round"/>
<path d="M162.076 15.3893H168.76C172.7 15.3893 175.895 18.5838 175.895 22.5247V61.5089" stroke="#939598" stroke-width="11.2493" stroke-miterlimit="10" stroke-linecap="round" stroke-linejoin="round"/>
<path d="M174.462 9.34956L171.431 6.3181C170.678 5.56604 170.678 4.34652 171.431 3.59446L174.46 0.564899C175.213 -0.1883 176.434 -0.1883 177.187 0.564899L180.216 3.59446C180.969 4.34652 180.969 5.56604 180.216 6.3181L177.185 9.34956C176.433 10.1016 175.214 10.1016 174.462 9.34956Z" fill="#32BCAD"/>
<path d="M188.718 15.3545H195.346C198.757 15.3545 202.027 16.7093 204.438 19.1201L219.942 34.6245C221.95 36.633 225.207 36.633 227.215 34.6245L242.663 19.1769C245.074 16.766 248.344 15.4112 251.754 15.4112H257.143" stroke="#939598" stroke-width="11.2493" stroke-miterlimit="10" stroke-linecap="round" stroke-linejoin="round"/>
<path d="M188.718 61.1676H195.346C198.757 61.1676 202.027 59.8129 204.438 57.402L219.942 41.8976C221.95 39.8891 225.207 39.8891 227.215 41.8976L242.663 57.3453C245.074 59.7561 248.344 61.1109 251.754 61.1109H257.143" stroke="#939598" stroke-width="11.2493" stroke-miterlimit="10" stroke-linecap="round" stroke-linejoin="round"/>
<path d="M68.1287 71.0728C64.802 71.0728 61.673 69.7774 59.3204 67.426L46.6021 54.7073C45.7091 53.812 44.1528 53.8147 43.2602 54.7073L30.4954 67.4725C28.1428 69.8239 25.0138 71.1193 21.6871 71.1193H19.1807L35.2889 87.2271C40.3194 92.2576 48.4758 92.2576 53.5067 87.2271L69.6607 71.0728H68.1287Z" fill="#32BCAD"/>
<path d="M21.6868 26.0856C25.0136 26.0856 28.1426 27.3809 30.4951 29.7323L43.2599 42.4994C44.1792 43.4191 45.6803 43.4225 46.6019 42.4983L59.3202 29.7789C61.6727 27.4274 64.8017 26.1321 68.1284 26.1321H69.6604L53.5068 9.97813C48.4755 4.94727 40.3191 4.94727 35.2887 9.97813L19.1812 26.0856L21.6868 26.0856Z" fill="#32BCAD"/>
<path d="M83.0224 39.4936L73.2605 29.7317C73.0456 29.8178 72.8128 29.8715 72.5671 29.8715H68.1287C65.834 29.8715 63.5877 30.8023 61.9663 32.4249L49.2484 45.1432C48.0582 46.3334 46.4943 46.9288 44.9319 46.9288C43.368 46.9288 41.8052 46.3334 40.6154 45.1443L27.8494 32.3784C26.228 30.7554 23.9817 29.8251 21.6871 29.8251H16.2295C15.9967 29.8251 15.7792 29.7702 15.5739 29.6929L5.77314 39.4936C0.742286 44.5245 0.742286 52.6805 5.77314 57.7114L15.5735 67.5117C15.7792 67.4344 15.9967 67.3795 16.2295 67.3795H21.6871C23.9817 67.3795 26.228 66.4492 27.8494 64.8266L40.6142 52.0618C42.9214 49.7565 46.9434 49.7557 49.2484 52.0629L61.9663 64.78C63.5877 66.4026 65.834 67.3334 68.1287 67.3334H72.5671C72.8128 67.3334 73.0456 67.387 73.2605 67.4732L83.0224 57.7113C88.0529 52.6804 88.0529 44.5245 83.0224 39.4936Z" fill="#32BCAD"/>
<path d="M120.899 80.5345C120.179 80.5345 119.34 80.7078 118.511 80.899V84.0791C119.085 84.289 119.741 84.39 120.37 84.39C121.965 84.39 122.721 83.852 122.721 82.4474C122.721 81.1269 122.102 80.5345 120.899 80.5345ZM117.973 86.4404V80.1512H118.41L118.456 80.4251C119.194 80.2518 120.215 80.0239 120.944 80.0239C121.537 80.0239 122.102 80.1142 122.575 80.4975C123.123 80.9448 123.296 81.6641 123.296 82.4474C123.296 83.2691 123.022 84.0433 122.275 84.4711C121.755 84.763 121.054 84.8814 120.425 84.8814C119.777 84.8814 119.158 84.7809 118.511 84.59V86.4404H117.973Z" fill="#939598"/>
<path d="M127.3 80.5155C125.704 80.5155 124.993 81.0172 124.993 82.4207C124.993 83.7786 125.695 84.3897 127.3 84.3897C128.885 84.3897 129.596 83.8971 129.596 82.4935C129.596 81.1357 128.895 80.5155 127.3 80.5155ZM129.35 84.3897C128.821 84.7718 128.111 84.8815 127.3 84.8815C126.47 84.8815 125.759 84.763 125.24 84.3897C124.656 83.9797 124.419 83.3046 124.419 82.4577C124.419 81.6184 124.656 80.9357 125.24 80.5155C125.759 80.1425 126.47 80.0236 127.3 80.0236C128.119 80.0236 128.821 80.1425 129.35 80.5155C129.943 80.9357 130.17 81.6184 130.17 82.4474C130.17 83.2959 129.933 83.9797 129.35 84.3897Z" fill="#939598"/>
<path d="M136.9 84.7541L135.123 80.9359H135.086L133.336 84.7541H132.853L130.958 80.1511H131.55L133.127 84.0154H133.163L134.876 80.1511H135.369L137.128 84.0154H137.165L138.705 80.1511H139.279L137.383 84.7541H136.9Z" fill="#939598"/>
<path d="M142.717 80.5065C141.241 80.5065 140.739 81.1626 140.648 82.1112H144.786C144.741 81.0631 144.202 80.5065 142.717 80.5065ZM142.699 84.8813C141.814 84.8813 141.241 84.7541 140.785 84.3708C140.247 83.906 140.064 83.2321 140.064 82.4575C140.064 81.7192 140.311 80.9355 140.922 80.4886C141.432 80.1335 142.061 80.0238 142.717 80.0238C143.31 80.0238 143.993 80.0874 144.558 80.4707C145.223 80.9168 145.351 81.7013 145.351 82.5939H140.63C140.648 83.5414 140.958 84.3807 142.744 84.3807C143.592 84.3807 144.385 84.2436 145.123 84.1159V84.5986C144.357 84.7362 143.51 84.8813 142.699 84.8813Z" fill="#939598"/>
<path d="M146.894 84.7541V80.1511H147.331L147.378 80.425C148.352 80.1793 148.808 80.0238 149.665 80.0238H149.729V80.5343H149.601C148.881 80.5343 148.444 80.6341 147.432 80.8989V84.7541H146.894Z" fill="#939598"/>
<path d="M152.852 80.5065C151.376 80.5065 150.874 81.1626 150.783 82.1112H154.921C154.876 81.0631 154.338 80.5065 152.852 80.5065ZM152.834 84.8813C151.95 84.8813 151.376 84.7541 150.92 84.3708C150.382 83.906 150.2 83.2321 150.2 82.4575C150.2 81.7192 150.446 80.9355 151.057 80.4886C151.567 80.1335 152.196 80.0238 152.852 80.0238C153.445 80.0238 154.128 80.0874 154.693 80.4707C155.359 80.9168 155.487 81.7013 155.487 82.5939H150.765C150.783 83.5414 151.093 84.3807 152.879 84.3807C153.727 84.3807 154.52 84.2436 155.258 84.1159V84.5986C154.493 84.7362 153.645 84.8813 152.834 84.8813Z" fill="#939598"/>
<path d="M161.377 80.8261C160.803 80.6162 160.147 80.5156 159.518 80.5156C157.923 80.5156 157.166 81.0543 157.166 82.4575C157.166 83.7875 157.786 84.3708 158.989 84.3708C159.709 84.3708 160.548 84.1974 161.377 84.0153V80.8261ZM161.478 84.754L161.432 84.4801C160.694 84.6535 159.673 84.8817 158.944 84.8817C158.352 84.8817 157.786 84.7997 157.312 84.4077C156.766 83.9608 156.592 83.2408 156.592 82.4575C156.592 81.6372 156.866 80.8619 157.613 80.4429C158.133 80.1422 158.834 80.0238 159.472 80.0238C160.111 80.0238 160.731 80.1335 161.377 80.3156V78.2103H161.915V84.754H161.478Z" fill="#939598"/>
<path d="M169.8 80.5345C169.08 80.5345 168.241 80.7078 167.412 80.899V84.0703C167.996 84.289 168.643 84.39 169.272 84.39C170.866 84.39 171.623 83.852 171.623 82.4474C171.623 81.1269 171.003 80.5345 169.8 80.5345ZM171.176 84.4711C170.657 84.763 169.955 84.8814 169.326 84.8814C168.643 84.8814 167.959 84.763 167.266 84.5351L167.239 84.7542H166.874V78.2101H167.412V80.4061C168.15 80.243 169.144 80.0239 169.845 80.0239C170.439 80.0239 171.003 80.1142 171.477 80.4975C172.024 80.9448 172.197 81.6641 172.197 82.4474C172.197 83.2691 171.923 84.0433 171.176 84.4711Z" fill="#939598"/>
<path d="M172.911 86.5219V86.0213C173.175 86.0479 173.422 86.0669 173.595 86.0669C174.26 86.0669 174.661 85.8749 175.034 85.1183L175.208 84.7541L172.802 80.1511H173.422L175.482 84.1247H175.518L177.477 80.1511H178.088L175.5 85.3195C175.026 86.2582 174.515 86.5676 173.576 86.5676C173.366 86.5676 173.139 86.5496 172.911 86.5219Z" fill="#939598"/>
<path d="M185.499 82.129H183.713V83.7429H185.508C186.738 83.7429 187.204 83.6053 187.204 82.9314C187.204 82.2106 186.566 82.129 185.499 82.129ZM185.171 79.5132H183.713V81.1534H185.18C186.393 81.1534 186.875 81.0082 186.875 80.3243C186.875 79.5959 186.265 79.5132 185.171 79.5132ZM187.942 84.317C187.285 84.7361 186.492 84.754 185.043 84.754H182.318V78.5109H184.98C186.228 78.5109 186.994 78.5288 187.632 78.912C188.088 79.1856 188.27 79.6047 188.27 80.1514C188.27 80.807 187.997 81.2452 187.285 81.537V81.5728C188.088 81.7561 188.607 82.166 188.607 83.0499C188.607 83.6511 188.389 84.0431 187.942 84.317Z" fill="#939598"/>
<path d="M194.06 82.822C193.521 82.7759 192.975 82.7492 192.401 82.7492C191.462 82.7492 191.133 82.9405 191.133 83.3683C191.133 83.7695 191.407 83.9886 192.127 83.9886C192.729 83.9886 193.449 83.8522 194.06 83.7146V82.822ZM194.333 84.754L194.296 84.4804C193.512 84.6725 192.601 84.8816 191.799 84.8816C191.306 84.8816 190.778 84.8176 190.404 84.5441C190.059 84.2983 189.894 83.8972 189.894 83.4324C189.894 82.9123 190.122 82.4296 190.669 82.1839C191.152 81.9561 191.799 81.9382 192.392 81.9382C192.874 81.9382 193.521 81.9648 194.06 82.0018V81.9191C194.06 81.1995 193.585 80.9625 192.291 80.9625C191.79 80.9625 191.179 80.9892 190.596 81.044V80.1144C191.243 80.0607 191.972 80.0237 192.574 80.0237C193.375 80.0237 194.206 80.0877 194.716 80.4519C195.244 80.826 195.345 81.3457 195.345 82.0284V84.7539L194.333 84.754Z" fill="#939598"/>
<path d="M201.354 84.7541V82.2107C201.354 81.3729 200.926 81.0719 200.16 81.0719C199.595 81.0719 198.884 81.2174 198.282 81.3637V84.7541H196.997V80.1511H198.045L198.091 80.4429C198.902 80.2337 199.804 80.0238 200.552 80.0238C201.117 80.0238 201.691 80.1054 202.128 80.4978C202.493 80.8262 202.63 81.2811 202.63 81.9379V84.7541H201.354Z" fill="#939598"/>
<path d="M206.261 84.8815C205.668 84.8815 205.021 84.8 204.547 84.3988C203.982 83.9428 203.818 83.2231 203.818 82.4474C203.818 81.719 204.055 80.9258 204.757 80.4796C205.331 80.1055 206.042 80.024 206.78 80.024C207.309 80.024 207.828 80.0606 208.402 80.1143V81.0987C207.937 81.0541 207.381 81.0172 206.935 81.0172C205.713 81.0172 205.14 81.4004 205.14 82.4577C205.14 83.4513 205.568 83.8791 206.57 83.8791C207.153 83.8791 207.838 83.7698 208.503 83.6421V84.5896C207.782 84.7363 206.999 84.8815 206.261 84.8815Z" fill="#939598"/>
<path d="M212.299 80.9893C211.077 80.9893 210.539 81.3725 210.539 82.4206C210.539 83.4691 211.068 83.916 212.299 83.916C213.511 83.916 214.039 83.5415 214.039 82.4934C214.039 81.4453 213.52 80.9893 212.299 80.9893ZM214.504 84.3987C213.939 84.7808 213.201 84.8814 212.299 84.8814C211.378 84.8814 210.64 84.772 210.084 84.3987C209.446 83.9796 209.218 83.287 209.218 82.4576C209.218 81.6274 209.446 80.9257 210.084 80.5066C210.64 80.1332 211.378 80.0239 212.299 80.0239C213.211 80.0239 213.939 80.1332 214.504 80.5066C215.142 80.9257 215.361 81.6274 215.361 82.4477C215.361 83.2778 215.133 83.9796 214.504 84.3987Z" fill="#939598"/>
<path d="M222.78 84.8815C222.006 84.8815 221.168 84.7542 220.538 84.2346C219.791 83.6143 219.563 82.6577 219.563 81.6271C219.563 80.7074 219.855 79.6136 220.83 78.9759C221.586 78.484 222.525 78.3835 223.473 78.3835C224.166 78.3835 224.877 78.4291 225.652 78.4928V79.6136C224.986 79.5588 224.166 79.5131 223.528 79.5131C221.751 79.5131 220.994 80.1882 220.994 81.6272C220.994 83.0958 221.696 83.7519 223.009 83.7519C223.865 83.7519 224.822 83.5786 225.788 83.3774V84.4891C224.822 84.6815 223.81 84.8815 222.78 84.8815Z" fill="#939598"/>
<path d="M229.565 80.844C228.498 80.844 228.088 81.2273 228.006 81.929H231.105C231.069 81.1815 230.631 80.844 229.565 80.844ZM229.373 84.8816C228.617 84.8816 227.933 84.7909 227.423 84.3707C226.876 83.9159 226.685 83.232 226.685 82.4475C226.685 81.7458 226.913 80.9625 227.551 80.5064C228.116 80.1057 228.836 80.0237 229.565 80.0237C230.221 80.0237 230.996 80.0965 231.561 80.4885C232.299 81.0082 232.363 81.8105 232.372 82.758H227.997C228.024 83.4602 228.398 83.9158 229.692 83.9158C230.494 83.9158 231.387 83.7974 232.144 83.6789V84.581C231.26 84.7273 230.294 84.8816 229.373 84.8816Z" fill="#939598"/>
<path d="M238.089 84.7541V82.2107C238.089 81.3729 237.662 81.0719 236.895 81.0719C236.33 81.0719 235.62 81.2174 235.018 81.3637V84.7541H233.733V80.1511H234.781L234.827 80.4429C235.637 80.2337 236.54 80.0238 237.288 80.0238C237.852 80.0238 238.427 80.1054 238.864 80.4978C239.229 80.8262 239.366 81.2811 239.366 81.9379V84.7541H238.089Z" fill="#939598"/>
<path d="M243.023 84.8815C242.404 84.8815 241.839 84.7081 241.529 84.2254C241.301 83.897 241.191 83.4513 241.191 82.831V81.1079H240.262V80.1512H241.191L241.328 78.7565H242.468V80.1512H244.281V81.1079H242.468V82.5849C242.468 82.9404 242.495 83.241 242.595 83.4601C242.732 83.7698 243.032 83.8879 243.433 83.8879C243.734 83.8879 244.099 83.8422 244.354 83.7976V84.7173C243.935 84.8 243.451 84.8815 243.023 84.8815Z" fill="#939598"/>
<path d="M245.535 84.7541V80.1511H246.584L246.629 80.4429C247.477 80.2059 248.106 80.0238 248.908 80.0238C248.944 80.0238 248.999 80.0238 249.071 80.0325V81.1266C248.925 81.118 248.753 81.118 248.625 81.118C247.996 81.118 247.522 81.1903 246.82 81.355V84.7541L245.535 84.7541Z" fill="#939598"/>
<path d="M253.744 82.822C253.206 82.7759 252.659 82.7492 252.085 82.7492C251.146 82.7492 250.817 82.9405 250.817 83.3683C250.817 83.7695 251.091 83.9886 251.811 83.9886C252.413 83.9886 253.133 83.8522 253.744 83.7146V82.822ZM254.017 84.754L253.981 84.4804C253.197 84.6725 252.285 84.8816 251.483 84.8816C250.991 84.8816 250.462 84.8176 250.088 84.5441C249.743 84.2983 249.578 83.8972 249.578 83.4324C249.578 82.9123 249.806 82.4296 250.353 82.1839C250.836 81.9561 251.483 81.9382 252.076 81.9382C252.559 81.9382 253.206 81.9648 253.744 82.0018V81.9191C253.744 81.1995 253.269 80.9625 251.975 80.9625C251.474 80.9625 250.863 80.9892 250.28 81.044V80.1144C250.927 80.0607 251.656 80.0237 252.258 80.0237C253.06 80.0237 253.89 80.0877 254.4 80.4519C254.928 80.826 255.029 81.3457 255.029 82.0284V84.7539L254.017 84.754Z" fill="#939598"/>
<path d="M256.681 78.2103H257.966V84.754H256.681V78.2103Z" fill="#939598"/>
</svg>
