<svg width="98" height="96" viewBox="0 0 98 96" fill="none" xmlns="http://www.w3.org/2000/svg">
<g clip-path="url(#clip0_1066_419)">
<path d="M16.4007 -2.05158H81.5992C92.4617 -2.05158 97.9047 3.38781 97.9047 14.2784V79.5746C97.9047 90.4534 92.4735 95.9046 81.5992 95.9046H16.4007C5.53824 95.9046 0.0952148 90.4652 0.0952148 79.5746V14.2784C0.0952148 3.39961 5.53824 -2.05158 16.4007 -2.05158Z" fill="#26367E"/>
<path d="M8.68408 41.8765C8.68408 41.4399 8.90793 41.2158 8.90793 40.7792C9.34385 38.148 10.4395 37.0507 12.8547 36.6141C15.9179 35.9533 18.9928 35.9533 22.056 36.3899C25.1192 36.8265 26.4387 38.5846 26.4387 41.4399V42.7614H21.1842V42.5373C20.9603 40.5668 20.5244 40.3426 18.5569 40.3426H16.3656C15.0461 40.5668 14.3981 41.0034 14.3981 42.5373C14.3981 43.8587 14.834 44.5077 16.3656 44.5077C17.6851 44.5077 18.9928 44.5077 20.3124 44.7319L24.2591 45.3926C26.0146 45.8292 26.8864 47.1507 27.1103 48.9088C27.1103 50.4427 27.1103 52.2007 26.8864 53.7346C26.6626 55.4927 25.5669 56.59 24.0353 57.0266C22.7158 57.4631 21.6201 57.6873 20.3124 57.8997H16.3656C15.0461 57.6755 13.7383 57.6755 12.4188 57.4631C10.4513 57.0266 9.13178 55.7051 8.90793 53.7346C8.90793 53.5104 8.68408 53.0739 8.68408 52.8615V50.8792H13.9386C14.1625 52.8497 14.5984 53.5104 15.9061 53.5104H19.8529C21.1724 53.5104 21.6083 52.6373 21.6083 51.3158C21.6083 49.9943 20.9486 49.3453 19.8529 49.3453C17.8854 49.1212 15.694 48.9088 13.7148 48.6846C10.8636 48.4604 9.55591 47.1507 9.10821 44.2953C9.10821 44.0711 8.88437 43.8587 8.88437 43.6346C8.68408 42.9738 8.68408 42.5373 8.68408 41.8765ZM51.1915 57.8997V37.0507C51.1915 36.1775 51.4154 35.9534 52.2872 35.9534C56.0101 35.9534 59.7331 35.9534 63.4678 36.1775C67.4146 36.4017 69.382 38.3722 69.6059 42.3249C69.8297 44.0829 69.6059 45.841 69.3821 47.5873C68.9461 50.2185 66.9669 51.9765 64.1275 51.9765H56.6699V57.6873C54.9144 57.8997 52.9469 57.8997 51.1915 57.8997ZM56.6699 47.1507H61.7123C63.0319 47.1507 63.4678 46.49 63.4678 45.1802V42.9856C63.4678 41.4517 62.808 40.791 61.2764 40.5668H57.3296C57.1058 40.5668 56.6699 41.0034 56.6699 41.0034V47.1507ZM67.1907 57.8997C68.5102 53.2862 70.0418 48.4604 71.3496 43.8587C72.2214 41.2276 72.8811 38.5963 73.7647 35.9534H82.0942C82.3181 35.9534 82.754 36.3899 82.754 36.6141L88.6683 56.3658C88.8921 56.8024 89.1042 57.4631 89.328 57.8997H83.402C82.966 56.8024 82.7422 55.7051 82.3063 54.6077C82.0824 54.3836 81.8704 53.947 81.6465 53.947H74.6366C74.4127 53.947 73.9768 54.1712 73.9768 54.3836C73.5409 55.4809 73.3171 56.8024 73.0932 57.8997H67.1907ZM78.3713 40.5668H78.1474C77.2756 43.6346 76.392 46.9265 75.5202 50.0061H81.2224C80.3388 46.7023 79.2431 43.6346 78.3713 40.5668Z" fill="white"/>
<path d="M43.9573 54.3835C40.4464 54.3835 37.8191 52.8497 36.7235 50.4308H44.617L45.4888 48.012H35.8399V46.2658L45.7009 46.7023L46.7966 43.8587H36.2758C37.3714 40.791 40.2225 39.2453 43.9455 39.2453C45.5242 39.2335 47.0793 39.5403 48.552 40.1184L49.4239 37.0507C48.552 36.6141 46.5727 36.1775 43.7216 36.1775C37.8074 36.1775 33.2008 39.0329 31.6692 44.0829H29.042L27.9463 46.5017H31.2333V48.4604H29.2658L27.9463 50.8792H31.6692C33.0005 55.2685 37.1712 57.8997 43.0854 57.8997C45.9365 57.8997 48.1279 57.4631 48.9997 57.0147L48.34 53.947C47.4681 54.1712 45.7127 54.3953 43.9573 54.3835Z" fill="#FCBD0C"/>
</g>
<defs>
<clipPath id="clip0_1066_419">
<rect width="97.7977" height="97.9444" fill="white" transform="translate(0.0952148 -2.05157)"/>
</clipPath>
</defs>
</svg>
