<svg width="38" height="49" viewBox="0 0 38 49" fill="none" xmlns="http://www.w3.org/2000/svg">
<path d="M11.6279 7.54778C11.0866 7.54778 10.648 7.97715 10.648 8.50708C10.648 9.037 11.0866 9.46637 11.6279 9.46637H23.7151C24.2564 9.46637 24.695 9.037 24.695 8.50708C24.695 7.97715 24.2564 7.54778 23.7151 7.54778H11.6279Z" fill="url(#paint0_linear_591_5492)"/>
<path d="M11.3492 15.4595C10.8079 15.4595 10.3694 15.8889 10.3694 16.4188C10.3694 16.9489 10.8086 17.3781 11.3492 17.3781H31.4163C31.9576 17.3781 32.3962 16.9487 32.3962 16.4188C32.3962 15.8889 31.9576 15.4595 31.4163 15.4595H11.3492Z" fill="url(#paint1_linear_591_5492)"/>
<path d="M11.3492 23.3713C10.8079 23.3713 10.3694 23.8006 10.3694 24.3306C10.3694 24.8606 10.8086 25.2899 11.3492 25.2899H31.4163C31.9576 25.2899 32.3962 24.8605 32.3962 24.3306C32.3962 23.8006 31.9576 23.3713 31.4163 23.3713H11.3492Z" fill="url(#paint2_linear_591_5492)"/>
<path d="M11.3492 31.283C10.8079 31.283 10.3694 31.7124 10.3694 32.2423C10.3694 32.7722 10.8079 33.2016 11.3492 33.2016H31.4163C31.9576 33.2016 32.3962 32.7722 32.3962 32.2423C32.3962 31.7124 31.9576 31.283 31.4163 31.283H11.3492Z" fill="url(#paint3_linear_591_5492)"/>
<path d="M34.8208 38.5892C34.4282 38.2246 33.8072 38.2406 33.4349 38.6265L29.4825 42.7095L27.1627 41.0977C26.7217 40.7911 26.1096 40.8925 25.7964 41.325C25.4834 41.7566 25.5871 42.3559 26.0286 42.6625L29.0418 44.7562C29.213 44.8751 29.4118 44.9331 29.6088 44.9331C29.8699 44.9331 30.1296 44.831 30.3207 44.6333L34.8582 39.9455C35.2304 39.5605 35.2132 38.9536 34.8208 38.5892Z" fill="url(#paint4_linear_591_5492)"/>
<path fill-rule="evenodd" clip-rule="evenodd" d="M6.67844 0C6.13715 0 5.69858 0.429369 5.69858 0.959297V5.57898H0.979861C0.438573 5.57898 0 6.00835 0 6.53828V47.208C0 47.7379 0.438572 48.1673 0.979861 48.1673H26.9998C28.0394 48.6982 29.2198 49 30.471 49C34.623 49 38 45.6938 38 41.629C38 40.344 37.6605 39.1355 37.0675 38.0827V8.84649C37.0675 8.59165 36.9639 8.3477 36.7802 8.16791L28.7245 0.281266C28.5409 0.101478 28.2917 0 28.0314 0H6.67844ZM7.6583 40.6697V1.91914H27.0515V8.84649C27.0515 9.37642 27.4901 9.80578 28.0314 9.80578H35.1072V35.8267C33.8286 34.845 32.2186 34.258 30.4705 34.258C26.6507 34.258 23.4878 37.0571 23.0059 40.6697H7.6583ZM29.0113 7.88719V3.27575L33.7215 7.88719H29.0113ZM1.95972 46.2487V7.49812H5.69858V41.629C5.69858 42.1589 6.13715 42.5883 6.67844 42.5883H23.0059C23.1894 43.9635 23.7618 45.2196 24.61 46.2487H1.95972ZM24.9012 41.629C24.9012 38.623 27.4 36.1766 30.4705 36.1766C33.5409 36.1766 36.0397 38.623 36.0397 41.629C36.0397 44.6356 33.5415 47.0814 30.4705 47.0814C27.4 47.0814 24.9012 44.6351 24.9012 41.629Z" fill="url(#paint5_linear_591_5492)"/>
<defs>
<linearGradient id="paint0_linear_591_5492" x1="-3.61797e-07" y1="41.7083" x2="37.9403" y2="45.9146" gradientUnits="userSpaceOnUse">
<stop stop-color="#0072CE"/>
<stop offset="1" stop-color="#00D6BF"/>
</linearGradient>
<linearGradient id="paint1_linear_591_5492" x1="-3.61797e-07" y1="41.7083" x2="37.9403" y2="45.9146" gradientUnits="userSpaceOnUse">
<stop stop-color="#0072CE"/>
<stop offset="1" stop-color="#00D6BF"/>
</linearGradient>
<linearGradient id="paint2_linear_591_5492" x1="-3.61797e-07" y1="41.7083" x2="37.9403" y2="45.9146" gradientUnits="userSpaceOnUse">
<stop stop-color="#0072CE"/>
<stop offset="1" stop-color="#00D6BF"/>
</linearGradient>
<linearGradient id="paint3_linear_591_5492" x1="-3.61797e-07" y1="41.7083" x2="37.9403" y2="45.9146" gradientUnits="userSpaceOnUse">
<stop stop-color="#0072CE"/>
<stop offset="1" stop-color="#00D6BF"/>
</linearGradient>
<linearGradient id="paint4_linear_591_5492" x1="-3.61797e-07" y1="41.7083" x2="37.9403" y2="45.9146" gradientUnits="userSpaceOnUse">
<stop stop-color="#0072CE"/>
<stop offset="1" stop-color="#00D6BF"/>
</linearGradient>
<linearGradient id="paint5_linear_591_5492" x1="-3.61797e-07" y1="41.7083" x2="37.9403" y2="45.9146" gradientUnits="userSpaceOnUse">
<stop stop-color="#0072CE"/>
<stop offset="1" stop-color="#00D6BF"/>
</linearGradient>
</defs>
</svg>
