<svg width="50" height="50" viewBox="0 0 50 50" fill="none" xmlns="http://www.w3.org/2000/svg">
<path fill-rule="evenodd" clip-rule="evenodd" d="M1.25094 15.0572H6.64362V16.0193C6.64362 16.5125 7.04325 16.9121 7.53645 16.9121C8.02965 16.9121 8.42928 16.5125 8.42928 16.0193V15.0572H13.802L16.1997 17.4828C16.3744 17.6596 16.6044 17.7478 16.8347 17.7478C17.0615 17.7478 17.2886 17.6621 17.4622 17.4899C17.8129 17.1432 17.8161 16.5778 17.4697 16.2271L15.0719 13.8015V8.42202H15.9719C16.4651 8.42202 16.8647 8.02239 16.8647 7.52919C16.8647 7.03599 16.4651 6.63636 15.9719 6.63636H15.0719V1.25081C15.0719 0.56048 14.5123 0.000854492 13.822 0.000854492H1.25094C0.560602 0.000854492 0.000976562 0.56048 0.000976562 1.25081V13.8072C0.000976562 14.4975 0.560602 15.0572 1.25094 15.0572ZM2.5009 2.50078H12.572V12.5572H2.5009V2.50078ZM48.7495 0.000854492H36.1788C35.4884 0.000854492 34.9288 0.56048 34.9288 1.25081V6.63636H34.0289C33.5357 6.63636 33.136 7.03599 33.136 7.52919C33.136 8.02238 33.5357 8.42202 34.0289 8.42202H34.9288V13.8015L32.5307 16.2275C32.1839 16.5782 32.1875 17.1435 32.5382 17.4903C32.7121 17.6624 32.9392 17.7481 33.166 17.7481C33.3964 17.7481 33.6264 17.6596 33.801 17.4832L36.1988 15.0575H41.5715V16.0196C41.5715 16.5128 41.9711 16.9125 42.4643 16.9125C42.9575 16.9125 43.3571 16.5128 43.3571 16.0196V15.0575H48.7498C49.4401 15.0575 49.9998 14.4979 49.9998 13.8076V1.25081C49.9994 0.56048 49.4394 0.000854492 48.7495 0.000854492ZM47.4995 12.5572H37.4287V2.50077H47.4995V12.5572ZM43.3563 34.943H48.749C49.439 34.943 49.9989 35.5026 49.9989 36.193V48.7494C49.9989 49.4397 49.4393 49.9993 48.749 49.9993H36.1783C35.488 49.9993 34.9283 49.4397 34.9283 48.7494V43.3642H34.0284C33.5352 43.3642 33.1355 42.9645 33.1355 42.4713C33.1355 41.9781 33.5352 41.5785 34.0284 41.5785H34.9283V36.2076L32.5134 33.7991C32.1642 33.4509 32.1634 32.8856 32.5116 32.5363C32.8598 32.187 33.4252 32.1867 33.7745 32.5345L36.1894 34.943H41.5706V34.0502C41.5706 33.557 41.9703 33.1574 42.4635 33.1574C42.9567 33.1574 43.3563 33.557 43.3563 34.0502V34.943ZM37.4283 47.4994H47.499V37.4429H37.4283V47.4994ZM42.4641 24.1244C42.9573 24.1244 43.3569 23.7248 43.3569 23.2316V19.6256C43.3569 19.1324 42.9573 18.7328 42.4641 18.7328C41.9709 18.7328 41.5712 19.1324 41.5712 19.6256V23.2319C41.5712 23.7248 41.9709 24.1244 42.4641 24.1244ZM42.4641 31.3366C41.9709 31.3366 41.5712 30.937 41.5712 30.4438V26.8379C41.5712 26.3447 41.9709 25.945 42.4641 25.945C42.9573 25.945 43.3569 26.3447 43.3569 26.8379V30.4438C43.3569 30.937 42.9573 31.3366 42.4641 31.3366ZM7.53661 25.945C7.04341 25.945 6.64378 26.3447 6.64378 26.8379V30.4442C6.64378 30.9374 7.04341 31.337 7.53661 31.337C8.02981 31.337 8.42944 30.9374 8.42944 30.4442V26.8379C8.42944 26.3447 8.02946 25.945 7.53661 25.945ZM7.53661 18.7328C8.02981 18.7328 8.42944 19.1324 8.42944 19.6256V23.2319C8.42944 23.7251 8.02981 24.1248 7.53661 24.1248C7.04341 24.1248 6.64378 23.7251 6.64378 23.2319V19.6256C6.64378 19.1324 7.04341 18.7328 7.53661 18.7328ZM19.5832 8.42204H23.1945C23.6877 8.42204 24.0874 8.02241 24.0874 7.52921C24.0874 7.03601 23.6877 6.63638 23.1945 6.63638H19.5832C19.09 6.63638 18.6904 7.03601 18.6904 7.52921C18.6904 8.02241 19.09 8.42204 19.5832 8.42204ZM30.4172 8.42204H26.8059C26.3127 8.42204 25.913 8.02241 25.913 7.52921C25.913 7.03601 26.3127 6.63638 26.8059 6.63638H30.4172C30.9104 6.63638 31.31 7.03601 31.31 7.52921C31.31 8.02241 30.9104 8.42204 30.4172 8.42204ZM30.4172 41.5785H26.8059C26.3127 41.5785 25.913 41.9781 25.913 42.4713C25.913 42.9645 26.3127 43.3641 26.8059 43.3641H30.4172C30.9104 43.3641 31.31 42.9645 31.31 42.4713C31.31 41.9781 30.9104 41.5785 30.4172 41.5785ZM19.5832 41.5785H23.1945C23.6877 41.5785 24.0874 41.9781 24.0874 42.4713C24.0874 42.9645 23.6877 43.3641 23.1945 43.3641H19.5832C19.09 43.3641 18.6904 42.9645 18.6904 42.4713C18.6904 41.9781 19.09 41.5785 19.5832 41.5785ZM32.5357 18.7566C32.5357 18.0663 31.976 17.5067 31.2857 17.5067H18.7147C18.0243 17.5067 17.4647 18.0663 17.4647 18.7566V31.313C17.4647 32.0034 18.0243 32.563 18.7147 32.563H31.2857C31.976 32.563 32.5357 32.0034 32.5357 31.313V18.7566ZM30.0357 30.0631H19.9646V20.0066H30.0357V30.0631ZM13.8109 34.9429L16.2258 32.5344C16.5747 32.1862 17.1401 32.1873 17.4886 32.5362C17.8368 32.8852 17.8361 33.4505 17.4868 33.799L15.0719 36.2072V41.5784H15.9719C16.4651 41.5784 16.8647 41.9781 16.8647 42.4713C16.8647 42.9645 16.4651 43.3641 15.9719 43.3641H15.0719V48.7493C15.0719 49.4396 14.5123 49.9992 13.822 49.9992H1.25094C0.560602 49.9992 0.000976562 49.4396 0.000976562 48.7493V36.1929C0.000976562 35.5026 0.560602 34.9429 1.25094 34.9429H6.64362V34.0501C6.64362 33.5569 7.04325 33.1573 7.53645 33.1573C8.02965 33.1573 8.42928 33.5569 8.42928 34.0501V34.9429H13.8109ZM2.5009 47.4993H12.572V37.4429H2.5009V47.4993Z" fill="url(#paint0_linear_591_5432)"/>
<defs>
<linearGradient id="paint0_linear_591_5432" x1="0.000976086" y1="42.5591" x2="49.5227" y2="49.6387" gradientUnits="userSpaceOnUse">
<stop stop-color="#0072CE"/>
<stop offset="1" stop-color="#00D6BF"/>
</linearGradient>
</defs>
</svg>
