<svg width="46" height="50" viewBox="0 0 46 50" fill="none" xmlns="http://www.w3.org/2000/svg">
<path d="M45.0484 26.3089C45.1801 26.2435 45.246 26.1126 45.3119 26.0471C45.3778 25.9817 45.5096 25.8508 45.5754 25.7199L45.7072 25.589L45.7731 25.3927C45.839 25.2618 45.9048 25.1309 45.9048 25C45.9707 24.8691 45.9707 24.7382 45.9707 24.6073C45.9707 24.4764 46.0366 24.2801 45.9707 24.0838C45.9707 23.8874 45.9707 23.7565 45.9048 23.6257C45.9048 23.4948 45.839 23.3639 45.7731 23.233L45.7072 23.1021L45.5754 22.9058C45.5096 22.7749 45.3778 22.644 45.3119 22.5785C45.246 22.4476 45.1143 22.3822 45.0484 22.2513C44.9825 22.1859 44.8507 22.1204 44.7849 22.055V21.9895L38.9873 19.0445L44.719 15.5759C44.8507 15.5105 44.9825 15.3796 45.0484 15.3141C45.1801 15.2487 45.246 15.1178 45.3119 15.0524C45.3778 14.9869 45.5096 14.856 45.5754 14.7251L45.7072 14.5942L45.7731 14.3979C45.839 14.267 45.9048 14.1361 45.9048 14.0052C45.9707 13.8743 45.9707 13.7435 45.9707 13.6126C45.9707 13.4817 46.0366 13.2853 45.9707 13.089C45.9707 12.8927 45.9707 12.7618 45.9048 12.6309C45.9048 12.5 45.839 12.3691 45.7731 12.2382L45.7072 12.1073L45.5754 11.911C45.5096 11.7801 45.3778 11.6492 45.3119 11.5838C45.246 11.4529 45.1143 11.3874 45.0484 11.2565C44.9825 11.1911 44.8507 11.1257 44.7849 11.0602L23.8347 0.327225C23.703 0.26178 23.5712 0.196335 23.5053 0.196335C23.3736 0.13089 23.2418 0.13089 23.1759 0.0654447C22.9783 -3.75455e-07 22.7806 0 22.5171 0C22.3853 0 22.2536 -3.75455e-07 22.1877 0.0654447C21.9901 0.0654447 21.8583 0.13089 21.6606 0.196335L21.5289 0.26178L21.3312 0.39267C20.936 0.589005 2.29164 11.9764 1.36931 12.5C0.908143 12.7618 0.578739 13.089 0.381096 13.4817C0.117572 14.0052 -0.0141905 14.5942 0.117571 15.1178V15.3141C0.183452 15.5105 0.249334 15.7068 0.315214 15.9031L0.512857 16.3613L0.644619 16.4921C0.7105 16.5576 0.776381 16.623 0.842262 16.6885C0.908143 16.7539 0.974025 16.8194 1.10579 16.8848L1.36931 17.0812C1.50107 17.1466 3.87279 18.3901 7.03507 20.0262C4.00455 21.8586 1.63283 23.2984 1.30343 23.4948C0.842262 23.7565 0.512857 24.0838 0.315214 24.4764C0.0516906 25 -0.080071 25.5236 0.0516909 26.1126V26.3089C0.117572 26.5052 0.183452 26.7016 0.249333 26.8979L0.512857 27.356L0.644619 27.4869C0.7105 27.5524 0.776381 27.6178 0.842262 27.6832C0.908143 27.7487 1.0399 27.8796 1.17167 27.945L1.36931 28.0759C1.43519 28.0759 3.87279 29.3194 7.03507 31.0209C4.00455 32.8534 1.63283 34.2932 1.30343 34.4895C0.842262 34.7513 0.512857 35.0785 0.315214 35.4712C0.0516906 35.9948 -0.080071 36.5183 0.0516909 37.1073V37.3037C0.117572 37.5 0.183452 37.6963 0.249333 37.8927L0.512857 38.3508L0.644619 38.4162C0.7105 38.5471 0.842262 38.6126 0.842262 38.6126C0.908143 38.678 0.974025 38.7435 1.10579 38.8743L1.36931 39.0707C1.69871 39.267 21.9901 49.6073 22.2536 49.7382C22.3853 49.8037 22.4512 49.8037 22.583 49.8691C22.7806 49.9346 22.9783 50 23.1759 50C23.2418 50 23.3077 50 23.4394 50C23.703 50 23.9665 49.9346 24.23 49.8691L24.3618 49.8037C24.4935 49.7382 24.6912 49.6728 24.8229 49.6073L44.719 37.5C44.8507 37.4346 44.9825 37.3691 45.0484 37.3037C45.1801 37.2382 45.246 37.1728 45.3119 37.0419C45.3778 36.911 45.5096 36.8456 45.5754 36.7147L45.7072 36.5838L45.7731 36.3874C45.839 36.2565 45.9048 36.1257 45.9048 36.0602C45.9707 35.9293 45.9707 35.7984 45.9707 35.6675C45.9707 35.5367 46.0366 35.3403 45.9707 35.144C45.9707 34.9476 45.9707 34.8168 45.9048 34.6859C45.9048 34.555 45.839 34.4241 45.7731 34.2932L45.7072 34.1623L45.5754 33.966C45.5096 33.8351 45.3778 33.7042 45.3119 33.6387C45.246 33.5079 45.1143 33.4424 45.0484 33.3115C44.9825 33.2461 44.8507 33.1806 44.7849 33.1152V32.9843L38.9873 30.0393L44.719 26.5707C44.8507 26.4398 44.9825 26.3743 45.0484 26.3089ZM22.6489 3.40314L42.0837 13.3508L23.4394 24.6728C21.1995 23.5602 7.89153 16.7539 4.07043 14.7251C7.75976 12.5 20.4089 4.77749 22.6489 3.40314ZM42.0837 35.2749L23.4394 46.5969C21.1995 45.4843 7.95741 38.678 4.00455 36.6492C5.32217 35.8639 7.75976 34.3586 10.5268 32.7225C16.0608 35.5367 22.1218 38.678 22.3195 38.7435C22.4512 38.8089 22.5171 38.8089 22.583 38.8743C22.7806 38.9398 22.9783 39.0052 23.1759 39.0052C23.2418 39.0052 23.3077 39.0052 23.3736 39.0052C23.3736 39.0052 23.3736 39.0052 23.4394 39.0052C23.703 39.0052 23.9665 38.9398 24.23 38.8743H24.2959L23.7688 37.3037L24.3618 38.8089C24.4935 38.8089 24.6912 38.7435 24.8888 38.6126L35.7592 32.0026L42.0837 35.2749ZM23.4394 35.6021C21.1995 34.4895 7.89153 27.6832 4.07043 25.7199C5.38805 24.9346 7.82564 23.4293 10.5268 21.7932C16.0608 24.6073 22.1877 27.7487 22.3195 27.8141C22.4512 27.8796 22.5171 27.8796 22.583 27.945C22.7806 28.0105 22.9783 28.0759 23.1759 28.0759C23.2418 28.0759 23.3077 28.0759 23.3736 28.0759C23.6371 28.0759 23.9006 28.0105 24.23 27.945L24.3618 27.8796C24.4935 27.8796 24.6253 27.8141 24.8888 27.6832L35.6933 21.0733L42.0179 24.3456L23.4394 35.6021Z" fill="url(#paint0_linear_591_5491)"/>
<defs>
<linearGradient id="paint0_linear_591_5491" x1="-4.37964e-07" y1="42.5595" x2="45.7017" y2="48.5703" gradientUnits="userSpaceOnUse">
<stop stop-color="#0072CE"/>
<stop offset="1" stop-color="#00D6BF"/>
</linearGradient>
</defs>
</svg>
