<svg width="42" height="14" viewBox="0 0 42 14" fill="none" xmlns="http://www.w3.org/2000/svg">
<path d="M18.2001 13.7978H14.7979L16.9259 0.245438H20.328L18.2001 13.7978Z" fill="#00579F"/>
<path d="M30.5331 0.576765C29.862 0.302552 28.7976 -0.000213623 27.4815 -0.000213623C24.1216 -0.000213623 21.7556 1.84512 21.7411 4.48339C21.7132 6.4299 23.4351 7.51104 24.7229 8.16007C26.0393 8.82328 26.4867 9.25615 26.4867 9.84731C26.4733 10.7552 25.4231 11.1737 24.4435 11.1737C23.0852 11.1737 22.3573 10.958 21.2513 10.4528L20.8032 10.2363L20.3271 13.2785C21.1251 13.653 22.5953 13.9852 24.1216 13.9998C27.6916 13.9998 30.0157 12.183 30.0432 9.37151C30.0568 7.82875 29.1476 6.64663 27.1874 5.68065C25.9974 5.06056 25.2686 4.64244 25.2686 4.00797C25.2826 3.43119 25.885 2.84041 27.2283 2.84041C28.3344 2.81148 29.147 3.08531 29.7627 3.35933L30.0704 3.50324L30.5331 0.576765Z" fill="#00579F"/>
<path d="M35.0559 8.99667C35.3361 8.2181 36.4143 5.20483 36.4143 5.20483C36.4001 5.23376 36.6939 4.41189 36.8619 3.90734L37.0997 5.0751C37.0997 5.0751 37.7439 8.31909 37.8839 8.99667C37.3521 8.99667 35.7279 8.99667 35.0559 8.99667ZM39.2556 0.245422H36.6239C35.8124 0.245422 35.1958 0.490317 34.8457 1.36987L29.792 13.7976H33.3619C33.3619 13.7976 33.9496 12.1249 34.076 11.7647C34.4676 11.7647 37.9404 11.7647 38.4442 11.7647C38.5419 12.2405 38.8502 13.7976 38.8502 13.7976H42.0004L39.2556 0.245422Z" fill="#00579F"/>
<path d="M11.9556 0.245422L8.62366 9.48684L8.25956 7.61257C7.64355 5.44991 5.71161 3.10023 3.55566 1.9319L6.60763 13.7834H10.2055L15.5533 0.245422H11.9556Z" fill="#00579F"/>
<path d="M5.52996 0.245438H0.0560008L0 0.519267C4.27003 1.6439 7.09799 4.3548 8.25987 7.61316L7.0699 1.38464C6.87398 0.519076 6.27193 0.27399 5.52996 0.245438Z" fill="#FAA61A"/>
</svg>
